<svg width="381" height="383" viewBox="0 0 381 383" fill="none" xmlns="http://www.w3.org/2000/svg">
<path d="M380.211 331.883C381.211 346.783 381.861 361.563 369.431 372.993C363.187 378.855 354.905 382.055 346.341 381.913L267.941 382.013H263.941C254.711 383.013 245.451 382.373 236.211 382.393C227.471 382.393 218.701 382.993 209.971 382.013C149.438 382.013 88.9111 382.013 28.3911 382.013C12.1211 382.013 -2.6589 364.943 0.711096 346.823C2.9211 346.823 3.32111 348.823 4.29111 350.163C6.71111 353.593 8.24109 357.683 11.8311 360.243C19.5911 366.843 29.0211 365.793 38.1911 366.003C41.8492 365.696 45.5213 365.589 49.1911 365.683C107.441 365.683 165.701 365.543 223.961 365.773C238.051 365.833 252.151 366.333 266.241 366.373C290.851 366.443 315.461 366.563 340.071 366.453C342.06 366.306 344.039 366.053 346.001 365.693C355.761 366.563 364.341 364.073 370.801 356.363C373.801 352.723 376.801 348.933 377.401 343.903C377.401 341.173 378.021 338.493 377.931 335.753C377.825 334.946 377.992 334.127 378.405 333.426C378.818 332.725 379.454 332.181 380.211 331.883Z" fill="#313A42"/>
<path d="M0.881077 24.603C3.27108 12.553 10.8011 5.12297 22.0511 1.04297C23.8111 -0.267034 25.8611 0.0429661 27.8311 0.0429661C136.231 0.0429661 244.628 0.0429661 353.021 0.0429661C355.021 0.0429661 357.021 -0.337008 358.751 1.16299C367.561 4.47299 374.651 9.64299 377.921 18.943C378.921 21.283 377.641 21.693 375.921 20.943C374.258 20.2397 372.759 19.1975 371.521 17.883C366.391 8.98296 357.741 7.05297 348.521 6.33297C339.301 5.61297 330.261 7.25297 321.121 7.26297C294.994 7.26297 268.864 7.26297 242.731 7.26297C173.031 7.26297 103.324 7.26297 33.6111 7.26297C17.2411 7.26297 10.2011 12.893 6.23108 28.963C4.94108 34.743 3.57105 40.503 5.42105 46.433C5.52105 53.563 5.61107 60.703 5.37107 67.833C2.80107 76.283 3.04106 84.833 4.18106 93.493C4.53053 95.119 4.60825 96.7916 4.41108 98.443C2.02108 109.883 5.48108 121.263 4.63108 132.683C4.69454 134.182 4.94652 135.667 5.38108 137.103C5.47108 141.543 5.78105 145.993 5.17105 150.423C2.92105 153.933 4.63108 158.653 2.01108 162.073C0.0110816 161.533 0.531071 160.173 0.531071 159.173C0.531071 114.966 0.531071 70.7563 0.531071 26.543C0.505536 25.8786 0.624974 25.2166 0.881077 24.603Z" fill="#F0DB7F"/>
<path d="M373.871 17.033C375.551 16.953 375.001 21.683 377.921 18.923C380.021 22.193 379.921 25.863 379.921 29.543C379.881 75.0163 379.854 120.49 379.841 165.963C379.841 167.293 380.001 168.623 380.091 169.963C379.951 174.003 379.814 178.046 379.681 182.093C379.358 183.897 379.274 185.737 379.431 187.563C379.431 233.043 379.411 278.526 379.371 324.013C379.371 326.243 380.651 330.013 377.121 330.093C373.231 330.093 374.501 326.093 374.491 323.763C374.391 290.443 374.571 257.123 374.321 223.763C374.261 215.513 374.171 207.183 372.771 199.003C370.601 197.143 368.011 198.183 365.611 198.003C359.751 197.463 353.731 199.173 348.011 196.723C347.586 196.332 347.287 195.824 347.152 195.264C347.017 194.703 347.051 194.114 347.251 193.573C348.191 191.833 349.721 192.403 351.181 192.573C356.961 193.093 362.751 192.723 368.541 192.833C372.381 192.913 374.261 191.213 373.411 187.393C372.961 185.393 374.491 183.013 372.291 181.393C366.377 180.861 360.426 180.905 354.521 181.523C352.558 181.84 350.549 181.713 348.641 181.153C347.865 180.754 347.272 180.071 346.985 179.246C346.698 178.421 346.74 177.518 347.101 176.723C350.351 174.163 354.281 175.783 357.861 175.083C361.051 174.463 364.421 174.933 367.711 174.893C373.421 174.803 374.171 173.893 373.291 168.023C373.16 167.383 373.073 166.735 373.031 166.083C373.062 165.617 372.965 165.152 372.75 164.737C372.535 164.323 372.21 163.975 371.811 163.733C368.871 163.373 366.021 162.443 363.021 162.503C361.701 162.503 360.081 162.373 359.951 160.733C359.791 158.853 361.501 158.443 362.951 158.123C364.089 157.948 365.24 157.867 366.391 157.883C372.211 157.593 372.531 157.263 372.981 151.173C372.391 140.433 372.651 129.693 372.831 118.953C376.141 97.143 373.911 75.203 374.321 53.333C374.521 42.453 375.621 31.443 372.601 20.693C372.4 20.0269 372.414 19.3143 372.642 18.657C372.87 17.9997 373.301 17.4313 373.871 17.033Z" fill="#E2B651"/>
<path d="M0.881144 24.603V160.273C2.55114 156.883 0.881142 152.863 3.94114 149.943C6.09114 151.783 6.33114 154.403 6.09114 156.803C5.36114 163.973 6.54112 171.093 6.39112 178.223C6.00386 180.346 5.88629 182.51 6.04115 184.663C6.88115 194.893 6.12115 205.123 6.04115 215.373C6.54115 256.513 6.16113 297.653 6.27113 338.783C6.35837 341.451 6.29493 344.122 6.08113 346.783C5.87113 348.783 5.73112 350.933 2.89112 350.953C2.17112 349.573 1.44114 348.193 0.721141 346.803C0.521141 340.803 0.161143 334.803 0.161143 328.853C0.101143 229.893 0.0778023 130.926 0.0911356 31.953C0.0711356 29.493 -0.368856 26.943 0.881144 24.603Z" fill="#EFD378"/>
<path d="M374.661 196.153C376.561 197.463 375.861 199.453 375.861 201.153C375.921 241.893 375.968 282.633 376.001 323.373C375.936 324.202 375.936 325.034 376.001 325.863C376.171 327.033 375.411 329.053 377.381 328.953C378.971 328.863 378.791 326.953 378.831 325.653C378.901 323.493 378.831 321.333 378.831 319.163C378.831 275.583 378.861 231.996 378.921 188.403C378.921 186.273 378.521 184.063 379.611 182.033C379.611 193.033 379.771 204.033 379.781 214.983C379.781 252.443 379.781 289.91 379.781 327.383C379.781 328.873 379.981 330.383 380.091 331.843C379.598 336.23 379.114 340.623 378.641 345.023C377.921 346.413 378.031 348.953 376.081 348.763C374.131 348.573 373.871 346.193 373.661 344.343C372.914 338.231 372.527 332.08 372.501 325.923C372.581 292.59 372.581 259.28 372.501 225.993C372.676 223.318 372.525 220.632 372.051 217.993C371.571 215.303 369.531 215.373 367.481 215.373C362.191 215.373 356.901 215.293 351.621 215.373C347.621 215.463 345.741 213.563 345.711 209.753C345.711 206.343 344.821 202.753 346.931 199.633C349.151 197.893 351.811 197.903 354.421 197.873C359.351 197.803 364.271 197.873 369.201 197.873C371.341 197.983 373.341 198.053 374.661 196.153Z" fill="#CD932B"/>
<path d="M347.841 367.793C339.021 367.893 330.211 368.073 321.401 368.083C229.401 368.123 137.378 368.123 45.3309 368.083C42.5409 368.083 39.7209 368.953 36.9609 367.903C33.6909 365.593 35.431 363.373 37.541 361.963C44.0799 357.725 50.3981 353.156 56.4709 348.273C58.6209 346.493 61.6609 346.603 64.3809 346.153C65.0209 345.973 63.9009 345.603 64.2809 346.153C64.3909 346.303 64.2809 346.443 63.9209 346.413C62.5909 346.303 61.1809 346.913 59.9709 346.463C57.9209 345.683 58.7509 344.553 59.9709 343.563C63.3409 342.173 66.8909 342.703 70.3509 342.703C150.818 342.663 231.288 342.693 311.761 342.793C319.841 342.793 326.101 341.193 331.181 334.303C335.581 328.303 341.961 323.903 345.451 317.083C348.071 309.903 347.401 302.423 347.451 295.013C347.451 271.363 347.451 247.713 347.451 224.073C347.451 221.793 346.371 217.983 349.691 217.893C353.011 217.803 352.041 221.663 352.051 223.893C352.181 252.373 351.481 280.893 352.441 309.313C352.841 321.033 348.031 328.543 339.811 335.203C338.556 336.036 337.504 337.14 336.731 338.433C333.591 345.073 327.731 349.433 323.171 354.893C321.669 356.495 319.665 357.535 317.491 357.843C306.911 359.983 296.381 362.783 285.491 362.753C279.861 362.753 274.181 362.753 268.551 362.253C259.381 361.453 250.271 362.723 243.071 362.543C254.941 362.173 268.751 362.263 282.581 362.653C289.391 362.843 296.181 363.523 302.971 363.653C315.971 363.813 328.881 365.303 341.881 364.873C344.201 364.743 347.211 364.173 347.841 367.793Z" fill="#A86915"/>
<path d="M347.841 367.793C346.706 367.063 345.347 366.765 344.011 366.953C329.691 367.653 315.431 365.953 301.121 365.843C294.341 365.793 287.571 364.733 280.801 364.173C278.983 363.958 277.15 363.898 275.321 363.993C265.611 364.843 255.921 364.513 246.191 364.133C241.461 363.943 236.691 364.763 231.481 363.223C233.329 361.742 235.655 360.987 238.021 361.103C250.111 360.773 262.111 359.373 274.341 360.613C285.871 361.773 297.341 358.903 308.901 357.383C321.121 355.783 327.281 347.973 333.381 339.383C335.035 336.937 336.983 334.704 339.181 332.733C345.621 327.103 350.471 321.323 350.181 311.323C349.411 280.563 349.901 249.773 348.771 218.993V295.143C348.447 295.206 348.112 295.182 347.8 295.075C347.488 294.968 347.209 294.781 346.991 294.533C345.411 292.663 345.901 290.403 345.921 288.293C346.151 268.993 345.341 249.693 346.351 230.403C346.399 228.901 346.282 227.399 346.001 225.923C345.695 224.464 345.628 222.964 345.801 221.483C346.061 216.843 347.281 215.573 351.801 215.483C357.921 215.393 364.041 215.483 370.171 215.483C371.841 215.483 373.501 215.483 374.761 216.863C375.401 260.423 374.041 304.013 375.661 348.813L378.661 345.083C377.451 356.793 363.241 370.073 347.841 367.793Z" fill="#A2670F"/>
<path d="M2.87109 350.963C4.62109 348.963 3.9711 346.513 3.9711 344.263C4.0111 300.823 4.0111 257.386 3.9711 213.953C4.25542 213.814 4.57127 213.752 4.88712 213.773C5.20296 213.794 5.50775 213.897 5.77109 214.073C7.32109 215.783 9.40108 215.443 11.3611 215.453C16.6811 215.453 21.9911 215.543 27.3011 215.453C30.8911 215.393 32.4611 217.033 32.4611 220.543C32.4611 225.023 32.4611 229.506 32.4611 233.993C32.4611 256.233 32.4611 278.483 32.4611 300.733C32.334 305.377 32.825 310.018 33.9211 314.533C33.9193 316.716 34.7283 318.822 36.1911 320.443C41.1911 325.303 45.5911 330.723 50.1911 335.903C50.7707 336.37 51.1888 337.008 51.3862 337.726C51.5836 338.443 51.5503 339.205 51.2911 339.903C48.8111 341.903 47.0611 339.983 45.2911 338.683C41.4211 335.903 38.4411 336.893 37.0011 341.543C36.5711 342.953 36.4111 344.433 35.1111 345.403C34.4627 345.728 33.7135 345.789 33.0211 345.573C32.0008 345.02 31.153 344.197 30.5711 343.193C29.2511 341.513 27.6611 340.263 25.5111 341.623C23.6011 342.833 23.2111 344.723 23.9811 346.843C24.2996 347.607 24.5635 348.392 24.7711 349.193C24.9111 350.613 26.0911 351.873 25.4711 353.423C21.2383 357.612 15.7329 360.275 9.82111 360.993C6.60111 358.273 4.02109 355.123 2.87109 350.963Z" fill="#CFA244"/>
<path d="M35.001 344.913C35.261 342.403 33.721 339.743 36.231 337.423C40.821 333.193 42.311 333.083 46.991 337.423C48.211 338.573 49.341 339.813 51.181 339.883C55.541 338.883 57.681 341.323 58.971 345.013C61.171 346.683 63.861 345.473 66.341 346.473C59.701 346.113 56.411 351.473 51.931 354.733C47.8317 357.85 43.5472 360.715 39.101 363.313C37.161 364.383 35.591 365.413 36.961 367.913C29.091 368.083 21.091 369.103 13.961 364.373C12.471 363.373 11.171 362.123 9.78101 360.993C13.781 356.343 20.031 355.783 24.991 352.863C25.281 352.463 25.621 351.863 25.991 351.863C31.041 352.093 33.431 349.043 35.001 344.913Z" fill="#C2892A"/>
<path d="M373.871 17.033C378.151 34.863 375.191 52.953 375.801 70.913C376.281 84.993 375.901 99.103 375.871 113.213C375.871 115.213 376.221 117.213 375.071 119.033C371.901 117.223 372.781 114.033 372.771 111.403C372.661 86.113 372.771 60.833 372.661 35.543C372.661 33.353 373.851 30.203 371.341 29.203C368.831 28.203 367.501 31.263 365.901 32.793C361.441 37.033 357.201 41.493 352.781 45.793C350.121 48.373 347.191 50.473 343.391 51.013C339.931 50.493 338.071 47.773 335.931 45.503C334.681 44.173 333.581 42.693 332.451 41.253C328.341 36.003 323.191 34.123 316.401 34.133C232.774 34.3197 149.141 34.3197 65.5011 34.133C59.1911 34.133 54.2111 35.563 50.1011 40.473C47.3937 43.6464 44.334 46.5014 40.9811 48.983C38.7348 50.581 36.9308 52.723 35.738 55.2083C34.5452 57.6935 34.0027 60.4409 34.1611 63.193C34.4111 75.193 34.7211 87.193 34.1611 99.193C33.2211 118.003 34.9411 136.773 34.1611 155.553C34.0611 158.043 35.0911 161.553 30.7511 161.973C30.3911 161.633 29.8411 161.353 29.7511 160.873C28.8611 154.503 24.5511 153.773 19.2311 154.193C15.7463 154.433 12.2476 154.383 8.77109 154.043C6.09109 153.813 4.45109 152.643 4.49109 149.653C4.72109 132.723 4.0911 115.783 3.6311 98.883C3.0911 78.953 6.3311 59.073 3.6311 39.193C3.5111 35.793 3.04108 32.393 3.92108 29.033C5.23108 12.943 18.9211 4.70302 32.2411 4.78302C94.7111 5.13302 157.181 4.90299 219.651 4.88299C253.281 4.88299 286.901 4.94299 320.521 4.88299C330.171 4.88299 339.821 4.153 349.461 4.263C359.641 4.363 368.461 7.61302 373.871 17.033Z" fill="#CEA04A"/>
<path d="M4.10118 38.923C5.38118 40.923 4.96117 43.113 4.96117 45.243C4.96117 78.643 4.96117 112.046 4.96117 145.453C4.96117 151.953 4.96117 151.963 11.6512 151.973C16.6512 151.973 21.6512 152.273 26.6012 151.853C30.3512 151.533 31.2812 152.933 30.9312 156.263C30.8312 158.088 30.8312 159.918 30.9312 161.743C27.3812 164.193 23.2412 162.643 19.4412 163.413C17.8919 163.611 16.325 163.631 14.7712 163.473C18.7712 163.923 23.6012 162.923 28.4312 162.943C31.9312 162.943 34.0312 164.633 33.9212 167.943C33.7812 172.253 36.3112 177.513 30.4812 180.313C23.5612 180.613 16.6612 180.413 9.75117 180.423C7.98117 180.423 6.07118 180.663 4.82118 178.893C3.00118 171.263 4.34117 163.533 4.00117 155.893C3.92117 153.893 3.94116 151.953 3.92116 149.983C3.92116 145.656 3.92116 141.323 3.92116 136.983C3.37116 125.073 2.58118 113.153 3.10118 101.233C3.45118 93.433 2.55116 85.663 2.92116 77.883C2.91833 74.5708 3.2534 71.2671 3.92116 68.023V45.973C3.39116 43.603 3.01118 41.273 4.10118 38.923Z" fill="#E6B751"/>
<path d="M3.93119 68.0129V137.013C3.76119 136.733 3.43119 136.453 3.43119 136.163C3.32119 124.583 1.16121 113.033 2.23121 101.443C2.97121 93.443 1.23119 85.623 1.90119 77.683C2.21119 74.273 2.27119 71.0229 3.93119 68.0129Z" fill="#EFD378"/>
<path d="M4.10111 38.9229C4.04111 41.2762 3.97443 43.6096 3.9011 45.9229C2.40259 40.3734 2.41984 34.5235 3.95108 28.9829L4.10111 38.9229Z" fill="#EFD378"/>
<path d="M344.011 50.0429C347.371 45.9629 352.361 43.8229 355.841 39.7629C359.962 35.1823 364.343 30.8418 368.961 26.7629C370.201 25.6129 371.791 23.7629 373.691 24.6129C375.761 25.5129 374.911 27.8529 374.911 29.6129C374.958 58.4396 374.958 87.2629 374.911 116.083C374.911 117.083 374.991 118.083 375.031 119.083L374.881 152.003C373.521 153.753 371.651 154.163 369.561 154.203C365.728 154.276 361.901 154.276 358.081 154.203C354.651 154.203 351.331 153.993 350.311 158.493C350.274 158.834 350.146 159.159 349.939 159.433C349.732 159.707 349.455 159.92 349.137 160.049C348.819 160.178 348.473 160.219 348.133 160.167C347.794 160.115 347.475 159.972 347.211 159.753C345.001 157.183 345.701 154.053 345.691 151.143C345.601 122.063 345.691 92.9729 345.691 63.8829C345.691 59.7229 345.691 55.5629 343.431 51.8129C343.398 51.4937 343.432 51.171 343.532 50.866C343.632 50.561 343.795 50.2805 344.011 50.0429Z" fill="#C18B2A"/>
<path d="M343.811 51.063C347.051 53.063 348.151 55.953 348.131 59.843C347.941 91.213 347.941 122.583 347.901 153.953C347.901 155.953 348.001 157.953 348.051 159.953C348.407 160.21 348.706 160.537 348.931 160.913C349.157 161.29 349.303 161.708 349.361 162.143C349.613 163.303 349.75 164.486 349.771 165.673C349.831 169.223 351.351 173.023 348.081 176.033C348.081 177.463 347.211 179.033 348.851 180.163C349.851 181.343 349.501 182.813 349.781 184.163C349.921 187.263 351.101 190.563 348.061 193.043L347.941 196.043C351.941 197.313 349.651 198.763 348.061 200.193C347.401 214.123 347.401 214.113 361.321 213.983C364.961 213.983 368.601 213.983 372.241 213.903C374.451 213.833 375.241 214.753 374.821 216.903C367.821 216.903 360.821 217.083 353.891 216.803C349.541 216.633 347.201 217.743 347.991 222.563C348.06 223.725 348.01 224.891 347.841 226.043C346.091 229.733 345.931 233.703 345.931 237.683C345.931 261.263 345.931 284.84 345.931 308.413C345.931 310.553 346.191 312.753 344.841 314.673C343.491 316.593 341.991 317.413 339.751 316.453L334.221 314.723C331.861 311.623 332.721 307.983 332.721 304.583C332.648 247.436 332.648 190.293 332.721 133.153C332.721 110.333 332.441 87.503 332.901 64.693C334.391 58.403 337.611 53.523 343.811 51.063Z" fill="#391B05"/>
<path d="M348.081 175.993C348.081 172.353 348.081 168.716 348.081 165.083C348.661 164.743 347.811 164.883 348.441 164.743C357.291 162.743 366.141 162.433 374.951 164.973C375.151 165.783 375.391 166.573 375.551 167.393C377.111 175.563 375.971 176.903 367.781 177.003C362.991 177.003 358.161 176.493 353.411 177.793C352.447 178.103 351.409 178.096 350.449 177.772C349.49 177.448 348.66 176.824 348.081 175.993Z" fill="#D89F31"/>
<path d="M348.061 193.003V183.093C351.611 180.093 356.001 181.713 359.981 181.093C363.211 180.573 366.601 180.943 369.921 181.003C371.841 181.003 373.551 180.743 374.751 179.063C376.421 183.463 375.661 188.063 375.621 192.533C375.595 192.872 375.501 193.201 375.345 193.503C375.189 193.805 374.974 194.072 374.713 194.29C374.452 194.507 374.15 194.669 373.825 194.768C373.5 194.866 373.159 194.899 372.821 194.863C365.521 194.913 358.211 194.863 350.911 194.863C349.651 194.823 348.901 193.783 348.061 193.003Z" fill="#D89F31"/>
<path d="M348.141 161.853L348.051 159.913L348.311 159.493C349.901 157.203 347.191 153.333 350.311 152.083C352.571 151.183 355.491 151.973 358.121 151.973H374.881C374.041 154.803 377.281 159.523 371.341 159.973C368.111 160.213 364.841 159.973 361.581 160.303C365.931 161.883 370.681 159.663 374.911 161.993C374.461 162.478 373.914 162.864 373.307 163.126C372.699 163.388 372.043 163.52 371.381 163.513C364.771 163.513 358.161 163.513 351.561 163.513C350.898 163.542 350.238 163.405 349.641 163.115C349.044 162.825 348.529 162.392 348.141 161.853Z" fill="#D6A139"/>
<path d="M348.061 200.153C348.661 198.753 349.501 197.343 347.941 196.003L374.661 196.153C375.801 199.633 373.771 200.093 371.021 200.083C363.341 200.063 355.721 200.123 348.061 200.153Z" fill="#703206"/>
<path d="M374.761 179.053C375.761 182.513 373.631 182.963 370.961 182.963C363.331 182.963 355.701 183.043 348.071 183.093L348.851 180.093C357.464 179.302 366.112 178.955 374.761 179.053Z" fill="#7B3B07"/>
<path d="M348.141 161.853L374.941 161.953V164.953L348.071 165.063C348.101 164.003 348.121 162.923 348.141 161.853Z" fill="#793704"/>
<path d="M4.84104 178.913L30.951 178.963C30.901 181.773 28.7011 180.883 27.2911 180.963C22.7111 181.093 18.1211 181.013 13.5411 181.013C18.5411 181.013 23.5411 181.083 28.4811 181.013C31.9911 180.953 33.681 182.703 34.031 186.013C34.2261 188.007 34.2495 190.015 34.1011 192.013C33.7611 196.863 32.561 198.013 27.561 198.013C23.461 198.063 19.351 198.013 15.241 198.013C19.891 198.013 24.541 198.093 29.181 198.013C32.331 197.943 34.081 199.523 33.951 202.423C33.751 206.903 36.401 212.243 30.641 215.343C23.571 215.763 16.501 215.413 9.44105 215.543C7.73105 215.543 6.15105 215.363 4.94105 214.013H4.46104H3.98106C3.98106 204.073 3.98106 194.136 3.98106 184.203C3.96106 182.353 3.50104 180.483 4.84104 178.913Z" fill="#E4B24F"/>
<path d="M334.851 314.903C336.941 312.733 335.181 309.753 336.521 307.083C338.141 308.693 338.181 310.803 338.961 312.533C339.491 313.723 339.681 315.433 341.291 315.413C343.291 315.413 343.291 313.413 343.581 312.063C343.87 310.258 343.984 308.43 343.921 306.603C343.921 283.463 343.921 260.323 343.921 237.183C343.921 233.053 344.091 228.873 347.801 225.983C347.874 248.896 347.941 271.813 348.001 294.733C348.689 302.456 348.653 310.227 347.891 317.943C346.121 321.943 342.841 324.873 340.001 328.073C336.591 331.933 332.721 335.333 329.521 339.423C328.136 341.275 326.318 342.76 324.226 343.747C322.134 344.733 319.831 345.192 317.521 345.083C232.328 344.923 147.134 344.876 61.941 344.943C60.941 344.943 59.941 345.013 58.941 345.043C55.681 344.343 54.201 340.933 51.151 339.913L49.041 336.773C48.4525 334.279 48.8653 331.653 50.1909 329.46C51.5165 327.267 53.6492 325.681 56.131 325.043C63.031 329.543 70.791 329.723 78.661 329.723C151.628 329.67 224.594 329.67 297.561 329.723C303.261 329.723 308.841 328.893 314.481 328.543C317.161 328.373 319.131 326.903 320.951 325.113C323.691 322.433 326.331 319.653 329.151 317.053C330.751 315.613 332.341 313.953 334.851 314.903Z" fill="#2A1106"/>
<path d="M347.931 317.943C347.971 310.203 348.008 302.466 348.041 294.733L348.801 295.123C348.051 302.713 349.741 310.393 347.931 317.943Z" fill="#391B05"/>
<path d="M347.091 349.693C346.091 347.693 344.501 345.763 345.321 343.223C346.581 339.343 349.541 338.003 353.101 339.063C357.481 340.353 358.101 343.813 356.801 347.813C354.521 353.193 351.041 353.863 347.091 349.693Z" fill="#3F1E0B"/>
<path d="M347.091 349.693C350.961 352.363 354.091 351.113 356.801 347.813C357.401 347.743 358.491 347.433 358.431 348.153C358.171 351.453 355.501 352.913 352.871 353.383C350.241 353.853 347.151 353.823 347.091 349.693Z" fill="#DAAD5A"/>
<path d="M54.9811 325.913L49.0711 336.773C42.6911 330.773 36.0011 324.963 31.8211 317.003C31.1911 315.213 31.5011 313.363 31.5011 311.553C31.5011 285.746 31.5011 259.936 31.5011 234.123C31.5011 227.393 31.7111 220.653 30.9811 213.943C32.5311 209.943 31.4911 205.733 31.7511 201.633C31.9111 199.113 30.0511 199.263 28.3411 199.263C22.3411 199.263 16.3411 199.263 10.3411 199.183C8.67106 199.183 6.71106 199.803 5.09106 197.733C6.72106 196.383 8.55108 196.733 10.2311 196.733C16.0511 196.733 21.8711 196.653 27.6811 196.733C30.6011 196.793 31.8711 195.833 31.7911 192.733C31.4511 179.903 33.1511 182.213 21.3611 182.023C16.0311 181.943 10.6411 182.863 5.36105 181.093C13.7511 178.543 22.5211 180.843 30.9311 178.923C32.5811 174.923 31.4111 170.783 31.5811 166.713C31.7011 163.943 29.4511 164.203 27.6611 164.243C21.5211 164.403 15.3911 164.683 9.25107 164.803C7.89107 164.803 5.61107 165.483 5.53107 163.523C5.44107 161.303 7.79107 162.203 9.06107 162.163C16.3411 161.923 23.6411 161.843 30.9311 161.703C32.5411 159.813 31.7211 157.553 31.7211 155.483C31.7211 124.343 31.8211 93.2029 31.6011 62.0729C31.6011 56.9429 33.0911 53.1429 36.8611 49.8629C39.8611 47.2529 43.041 44.6429 45.4211 41.4929C51.5011 33.4329 59.271 31.4929 69.201 31.4929C152.128 31.8529 235.054 31.8729 317.981 31.5529C323.981 31.5529 328.421 33.1029 332.231 37.7729C335.801 42.1429 340.051 45.9429 343.991 49.9929C343.931 50.3329 343.861 50.6729 343.791 50.9929C342.441 53.6629 340.901 56.2729 338.181 57.6929C335.891 58.8929 336.181 61.3529 335.021 63.0629C334.597 62.841 334.233 62.521 333.958 62.1296C333.683 61.7382 333.506 61.2868 333.441 60.8129C331.101 53.6529 324.761 50.1029 319.531 45.6129C317.861 44.1629 315.331 44.9529 313.201 44.9529C234.081 44.9529 154.964 44.9529 75.8511 44.9529C70.6011 44.9529 65.2011 43.2629 60.0811 45.8229C55.4211 50.0829 51.1511 54.7229 46.8511 59.3429C45.2511 61.0529 44.9411 63.0629 44.9411 65.3429C44.9411 146.01 44.9411 226.703 44.9411 307.423C44.9411 312.873 48.4111 316.493 51.9411 320.053C53.7011 321.663 56.0611 322.893 54.9811 325.913Z" fill="#5D3107"/>
<path d="M30.9611 213.943C31.4626 215.691 31.7974 217.482 31.9611 219.293C31.9611 251.866 31.9111 284.436 31.8111 317.003C30.8111 314.603 31.2011 312.063 31.1911 309.593C31.1911 280.763 31.0511 251.943 31.3111 223.113C31.3111 217.943 29.8111 216.423 24.8111 216.813C19.3511 217.233 13.8111 216.813 8.33107 216.903C6.23107 216.903 4.61107 216.593 4.93107 213.903L30.9611 213.943Z" fill="#8B4D06"/>
<path d="M23.101 349.553C21.861 347.423 20.321 345.333 21.551 342.693C22.781 340.053 24.671 338.293 27.661 338.553C31.451 338.873 32.811 341.553 33.151 345.003C34.861 347.913 33.151 349.913 30.961 351.123C28.151 352.653 25.241 352.483 23.101 349.553Z" fill="#50270B"/>
<path d="M23.1011 349.553C28.9911 352.103 31.911 350.783 33.151 345.003L35.001 344.913C35.061 351.563 32.811 353.363 25.001 352.913C24.191 351.893 23.0111 351.093 23.1011 349.553Z" fill="#EFCC7A"/>
<path d="M27.1611 36.793C23.5211 36.303 21.0811 34.863 21.1611 31.113C21.2411 27.363 23.0111 24.963 26.8411 24.893C30.6711 24.823 32.9111 27.043 32.9711 30.713C33.0311 34.383 30.3411 36.123 27.1611 36.793Z" fill="#532A0B"/>
<path d="M350.481 24.673C354.411 24.813 356.961 26.193 357.131 30.163C357.301 34.133 354.901 35.813 351.281 35.993C347.661 36.173 345.411 34.543 345.351 30.883C345.341 27.383 346.761 24.783 350.481 24.673Z" fill="#552E0D"/>
<path d="M334.881 60.913C334.931 61.653 334.981 62.3929 335.041 63.1329C335.041 144.233 335.021 225.326 334.981 306.413C334.981 309.243 334.901 312.073 334.861 314.903C332.341 317.323 329.331 319.403 327.401 322.213C321.821 330.323 313.751 331.933 304.831 331.833H303.341C226.441 331.833 149.541 331.833 72.6411 331.833C66.1611 331.833 59.5911 331.733 54.9911 325.933L51.9911 321.933C44.6711 314.653 44.8611 305.513 44.8811 296.043C45.0611 220.81 45.0444 145.58 44.8311 70.3529C44.8311 63.5629 46.4711 58.3529 51.7611 54.3529C55.2811 51.6729 56.8911 46.823 61.7611 45.663C141.361 44.363 220.961 45.4429 300.571 45.0929C302.569 45.2477 304.576 45.231 306.571 45.0429C318.911 42.8229 326.501 49.7729 333.161 58.5929C333.688 59.3994 334.263 60.1741 334.881 60.913Z" fill="#643C02"/>
<path d="M61.9811 47.003C56.6611 50.863 52.7711 56.113 48.3211 60.833C46.7811 62.473 46.771 64.403 46.771 66.423C46.811 147.216 46.8277 228.006 46.8211 308.793C46.7252 310.191 46.9259 311.593 47.4102 312.908C47.8945 314.223 48.6513 315.421 49.6311 316.423C50.9311 317.763 53.101 319.273 51.991 321.883C45.991 316.733 42.881 310.943 42.921 302.323C43.291 223.103 43.151 143.883 43.061 64.663C42.9723 63.3654 43.173 62.0642 43.6486 60.8536C44.1242 59.643 44.8628 58.5532 45.811 57.663C50.331 53.253 54.5811 48.563 58.9411 43.993C61.8111 43.073 64.7511 43.683 67.6611 43.583C67.8651 43.5484 68.0742 43.5583 68.274 43.6118C68.4739 43.6654 68.6599 43.7614 68.8193 43.8933C68.9788 44.0252 69.1079 44.1899 69.1979 44.3763C69.288 44.5626 69.3368 44.7661 69.341 44.973C69.341 45.923 68.7111 46.333 67.7911 46.463C65.8311 46.733 63.8211 46.003 61.9811 47.003Z" fill="#B58338"/>
<path d="M61.9812 47.003C63.6012 45.253 66.0712 46.4529 68.4612 45.1729C65.1312 43.2729 61.9212 44.3329 58.9412 43.9629C60.5012 42.5129 62.4112 43.1129 64.1912 43.1129C145.261 43.1129 226.331 43.3729 307.391 42.8229C318.521 42.7429 325.451 47.3329 331.811 54.8929C333.271 56.6229 335.221 58.2129 334.881 60.8929C332.771 61.0229 332.261 59.2229 331.201 57.9829C325.201 50.9829 318.801 46.5629 308.411 46.6329C226.271 47.1629 144.121 46.973 61.9812 47.003Z" fill="#9B6B22"/>
<path d="M151.341 110.273L151.721 110.173C153.721 109.023 153.991 107.123 153.981 105.023C153.931 99.533 153.981 94.023 153.981 88.543C153.981 81.163 155.161 79.903 162.741 79.833C179.381 79.693 196.021 79.833 212.661 79.833C217.661 79.833 222.661 79.763 227.661 79.903C229.491 79.903 231.361 79.963 232.741 81.483L233.081 84.043C233.799 84.5822 234.274 85.3842 234.401 86.273C233.643 92.8714 233.309 99.5117 233.401 106.153C233.401 107.723 233.591 110.003 231.331 109.943C229.391 109.893 229.021 107.833 228.901 106.113C228.571 101.293 228.831 96.463 228.711 91.643C228.581 86.203 227.921 85.433 222.711 85.353C215.561 85.243 208.401 85.223 201.241 85.353C196.241 85.443 195.341 86.303 195.241 91.163C195.121 96.993 195.341 102.833 193.111 108.383C192.251 110.523 193.611 111.453 195.261 112.143C197.161 112.933 199.181 112.793 201.171 112.823C209.491 112.903 217.821 112.653 226.171 112.953C231.421 113.143 233.631 115.373 232.921 120.543C232.091 126.543 232.421 132.543 232.071 138.463C231.861 141.933 230.981 145.043 227.451 146.463C228.241 146.563 229.181 145.953 230.071 146.333C239.841 150.523 250.071 148.433 260.181 148.683C266.931 148.853 267.691 147.783 267.731 141.253C267.731 136.093 267.731 130.933 267.731 125.773C267.731 117.453 267.541 117.303 259.431 117.253C252.431 117.253 245.431 117.343 238.431 117.183C236.601 117.133 234.661 117.233 233.181 115.963C231.301 114.343 229.671 112.553 232.911 110.603C235.698 111.678 238.676 112.171 241.661 112.053C249.791 111.973 257.921 112.053 266.051 112.053C268.051 112.053 270.051 111.843 271.621 113.513C271.721 114.343 271.831 115.173 271.931 115.993C275.551 126.163 274.021 136.643 273.871 146.993C273.741 149.203 275.451 151.303 274.311 153.583C272.381 158.233 273.421 163.113 273.201 167.893C273.011 171.893 273.361 175.893 272.911 179.893C272.461 183.893 270.731 185.743 266.441 185.593C259.301 185.333 252.141 185.393 245.001 185.593C241.771 185.683 238.211 185.353 236.101 188.763C234.101 195.643 235.651 202.643 235.211 209.553C235.001 213.003 235.471 216.553 233.381 219.663C231.491 221.493 229.051 221.233 226.771 221.243C191.831 221.356 156.894 221.356 121.961 221.243C120.133 221.175 118.31 221.001 116.501 220.723C106.381 220.243 96.2411 220.623 86.1011 220.483C83.9611 220.483 81.7711 220.793 79.7111 219.843C77.8011 218.533 77.7111 216.573 77.7111 214.513C77.7111 196.213 77.6211 177.913 77.7711 159.603C77.8211 152.243 79.2011 150.773 86.6111 150.863C94.0211 150.953 101.531 149.673 109.031 150.003C112.531 150.153 114.141 148.703 114.031 144.953C113.791 136.803 113.911 128.643 113.971 120.493C113.971 114.363 116.291 112.093 122.421 112.033C130.241 111.963 138.061 112.033 145.881 112.033C147.931 111.993 149.931 112.063 151.341 110.273Z" fill="#F9BD2D"/>
<path d="M116.071 219.113L232.721 218.943C233.284 218.133 234.051 217.486 234.946 217.07C235.84 216.653 236.829 216.482 237.811 216.573C247.071 216.833 256.341 216.683 265.601 216.913C268.151 216.973 271.811 216.293 271.021 221.033C271.021 230.483 270.941 239.933 271.161 249.373C271.261 253.553 269.431 254.953 265.541 254.923C255.931 254.843 246.321 254.923 236.701 254.923C234.811 254.923 232.331 254.383 233.011 257.793C236.141 262.103 236.181 279.623 233.081 284.063L232.001 287.803C230.901 289.963 228.821 290.053 226.831 290.073C204.571 290.253 182.311 290.303 160.051 290.073C158.715 290.156 157.384 289.846 156.221 289.183C153.971 287.443 153.991 284.933 153.961 282.423C153.841 273.823 154.241 265.203 153.751 256.613C152.941 253.203 149.501 252.613 147.291 250.793C136.651 241.793 126.241 232.503 115.671 223.403C114.801 221.883 114.601 220.423 116.071 219.113Z" fill="#F95011"/>
<path d="M271.021 221.033C270.888 220.457 270.561 219.944 270.095 219.579C269.629 219.215 269.052 219.022 268.461 219.033L232.721 218.933C232.821 208.266 232.924 197.616 233.031 186.983C234.651 184.603 237.031 184.413 239.651 184.433C248.971 184.513 258.301 184.433 267.651 184.483C269.551 184.483 271.231 184.553 272.041 182.243C272.651 180.483 274.421 180.113 276.101 179.783C280.351 178.963 283.631 176.523 286.751 173.633C292.611 168.173 297.641 161.953 303.121 156.153C304.321 154.893 305.241 153.023 307.481 153.243L308.091 154.943C310.591 160.943 310.241 167.383 310.091 173.643C309.861 186.963 310.011 200.283 309.901 213.643C309.851 220.043 308.021 222.033 301.641 222.193C293.641 222.373 285.641 222.263 277.641 222.243C275.639 222.237 273.654 221.871 271.781 221.163C271.53 221.107 271.276 221.064 271.021 221.033Z" fill="#F4420A"/>
<path d="M155.871 287.613C168.971 287.733 182.061 287.903 195.161 287.943C207.441 287.943 219.721 287.873 232.001 287.833C234.861 289.233 233.801 291.833 233.821 294.033C233.911 308.943 233.821 308.923 219.091 308.913C202.951 308.913 186.811 308.713 170.671 309.003C166.081 309.083 163.191 307.653 161.011 303.743C158.581 299.393 155.311 295.553 153.221 290.993C152.711 289.883 152.061 288.943 153.071 287.833C153.415 287.436 153.902 287.19 154.426 287.149C154.95 287.108 155.469 287.274 155.871 287.613Z" fill="#291206"/>
<path d="M271.841 221.133C273.071 219.073 275.101 219.893 276.841 219.883C285.641 219.883 294.441 219.773 303.231 220.043C307.021 220.163 307.991 218.833 307.951 215.183C307.761 197.923 307.831 180.663 307.851 163.403C307.851 160.583 308.021 157.773 308.121 154.953C312.831 158.843 312.661 164.733 312.531 169.633C312.121 185.413 312.241 201.193 311.941 216.963C311.941 217.293 312.001 217.763 311.811 217.963C304.251 224.963 306.691 238.013 296.311 243.283C295.296 243.876 294.457 244.729 293.881 245.753C291.631 249.583 288.201 250.453 284.111 250.063C281.611 249.726 279.068 250.136 276.801 251.243C272.171 253.713 272.031 251.193 272.061 247.583C272.081 238.743 271.911 229.933 271.841 221.133Z" fill="#2A1106"/>
<path d="M233.081 284.093C233.081 275.333 233.058 266.576 233.011 257.823C234.301 256.273 236.011 255.953 237.931 255.963C247.401 255.963 256.881 256.083 266.351 255.893C269.851 255.823 270.461 257.193 271.041 260.473C272.431 268.303 267.041 272.563 263.381 277.973C259.721 283.383 255.201 285.133 249.041 284.973C244.441 284.843 239.751 284.263 235.201 285.713C233.761 286.153 233.841 284.553 233.081 284.093Z" fill="#291204"/>
<path d="M131.901 256.063C136.901 256.063 141.901 256.163 146.901 256.063C149.841 255.983 151.161 257.063 151.111 260.063C151.011 267.383 151.031 274.703 151.111 282.063C151.111 284.363 150.481 285.363 147.951 285.063C142.661 284.543 137.351 284.223 132.041 283.983C129.901 283.893 128.711 282.643 127.641 281.143C122.707 274.459 118.134 267.515 113.941 260.343C112.241 257.343 112.481 255.833 116.471 255.983C121.621 256.183 126.781 255.983 131.941 255.983L131.901 256.063Z" fill="#2A1105"/>
<path d="M151.341 110.273C153.651 113.443 152.161 114.153 148.991 114.143C139.991 114.143 130.991 114.323 121.991 114.143C117.721 114.073 115.991 115.653 116.101 119.993C116.281 127.643 116.101 135.303 116.041 142.993C115.981 150.683 114.651 151.993 107.171 152.173C99.5211 152.373 91.8811 152.773 84.2411 152.933C81.4411 152.993 79.9111 153.823 79.9111 156.933C79.9111 177.553 79.8945 198.173 79.8611 218.793C78.4411 220.793 76.8111 220.383 75.1211 219.203C75.0211 201.583 74.9211 183.963 74.8211 166.343C74.8211 161.853 75.1011 157.343 74.8211 152.873C74.5311 148.983 76.0611 148.083 79.6711 148.163C89.3111 148.373 98.9711 148.093 108.611 148.323C111.781 148.393 112.341 147.523 112.261 144.453C112.001 134.453 112.331 124.453 112.091 114.513C112.001 110.713 113.261 109.703 116.921 109.803C128.391 110.093 139.871 110.103 151.341 110.273Z" fill="#FAE9AA"/>
<path d="M307.461 153.273C303.271 160.523 297.091 166.113 291.461 172.183C282.521 181.913 271.201 185.623 258.231 185.043C255.071 184.903 251.911 184.993 248.751 185.043C243.421 185.103 237.981 184.313 232.981 187.043C232.781 183.413 235.541 184.193 237.501 184.173C246.981 184.083 256.501 183.953 265.931 184.173C269.871 184.263 271.211 182.903 271.091 179.003C270.861 171.693 271.091 164.373 271.091 157.053C271.091 154.843 271.031 152.613 273.891 151.983C274.891 150.423 276.481 150.053 278.241 150.043H303.241C304.07 149.96 304.908 150.086 305.676 150.409C306.444 150.732 307.12 151.242 307.641 151.893L307.461 153.273Z" fill="#FA5611"/>
<path d="M111.851 246.953C111.291 251.423 109.851 251.953 104.931 250.893C97.1712 249.203 93.1212 244.223 88.9312 238.633C84.2645 232.386 79.5978 226.153 74.9312 219.933C87.0212 218.863 99.1311 219.733 111.241 219.493C111.575 219.45 111.914 219.479 112.235 219.579C112.556 219.679 112.852 219.847 113.102 220.073C113.352 220.298 113.55 220.574 113.683 220.883C113.815 221.192 113.88 221.527 113.871 221.863C114.478 229.48 114.414 237.137 113.681 244.743C113.585 245.235 113.367 245.695 113.048 246.081C112.728 246.467 112.317 246.767 111.851 246.953Z" fill="#291204"/>
<path d="M116.971 222.973C123.341 225.543 127.341 231.273 132.561 235.273C139.261 240.423 145.501 246.163 151.961 251.643C152.496 252.033 152.949 252.526 153.292 253.092C153.636 253.659 153.863 254.288 153.961 254.943C153.855 255.282 153.629 255.57 153.325 255.754C153.021 255.938 152.661 256.006 152.311 255.943C148.851 254.253 145.181 255.313 141.621 255.213C133.241 254.973 124.861 254.993 116.471 254.903C114.151 253.523 113.631 251.293 113.991 248.903C114.991 242.023 114.491 235.093 114.791 228.203C114.901 226.193 114.891 224.133 116.971 222.973Z" fill="#ED3508"/>
<path d="M232.711 81.393C223.711 82.283 214.781 81.693 205.821 81.773C190.821 81.913 175.911 82.003 160.951 81.903C157.281 81.903 155.951 83.083 156.051 86.783C156.251 93.7831 155.991 100.783 156.051 107.723C156.051 111.403 154.731 112.123 151.721 110.133C151.811 100.653 152.061 91.1331 151.891 81.6931C151.831 78.1131 153.041 77.243 156.431 77.263C180.571 77.413 204.711 77.393 228.841 77.393C231.621 77.393 234.081 77.483 232.711 81.393Z" fill="#F8E69A"/>
<path d="M232.711 86.153C232.821 85.423 232.941 84.6829 233.051 83.9529C233.961 83.6329 234.441 80.3929 235.521 82.7929C239.081 90.6729 245.431 96.913 248.261 105.213C249.261 108.123 248.901 109.003 245.751 109.013C242.821 109.013 239.751 108.323 236.971 109.893C236.559 110.386 235.982 110.712 235.348 110.812C234.713 110.911 234.064 110.776 233.521 110.433C232.281 109.713 232.441 108.503 232.461 107.363C232.601 100.273 232.121 93.273 232.711 86.153Z" fill="#371905"/>
<path d="M272.031 148.893C271.251 137.893 271.681 126.893 271.941 115.893C276.721 122.823 279.601 130.713 283.161 138.263C284.591 141.263 287.161 144.043 286.021 147.873C281.601 151.753 276.791 149.943 272.031 148.893Z" fill="#341405"/>
<path d="M116.971 222.973C116.811 233.6 116.654 244.226 116.501 254.853C113.391 255.693 111.881 254.643 112.071 251.293C112.087 249.843 112.014 248.394 111.851 246.953C111.951 238.793 111.851 230.623 112.231 222.483C112.371 219.433 110.831 219.753 108.941 219.763C97.6076 219.83 86.2743 219.886 74.941 219.933C74.9119 219.662 74.9791 219.389 75.131 219.163L79.871 218.753C90.631 218.753 101.391 218.753 112.161 218.753C113.471 218.753 114.801 218.393 116.041 219.103L116.971 222.973Z" fill="#E78B47"/>
<path d="M233.551 110.273L236.971 109.943C247.511 109.943 258.061 109.943 268.601 109.843C271.431 109.843 272.721 110.533 271.601 113.503C260.101 114.713 248.601 114.113 237.081 113.683C235.321 113.613 233.391 113.273 232.641 111.153C232.722 110.951 232.845 110.768 233.002 110.616C233.159 110.464 233.346 110.347 233.551 110.273Z" fill="#FAE394"/>
<path d="M272.031 148.893C276.621 147.593 281.391 148.723 286.031 147.893C292.261 147.943 298.491 148.103 304.721 147.993C307.721 147.933 308.541 149.103 307.631 151.813C296.391 152.513 285.141 151.993 273.901 151.903C273.281 150.913 270.461 151.273 272.031 148.893Z" fill="#F2D599"/>
<path d="M152.341 255.893L153.991 254.893C155.661 255.073 156.911 255.633 156.671 257.663C155.491 267.603 156.671 277.613 155.871 287.563L153.071 287.783C151.281 285.053 152.161 282.003 152.141 279.103C152.071 271.403 152.251 263.653 152.341 255.893Z" fill="#F2AA58"/>
<path d="M233.551 110.273L232.671 111.153C231.671 115.803 235.381 114.913 237.671 114.963C246.491 115.143 255.321 115.283 264.131 114.963C268.841 114.793 270.191 116.473 270.031 120.963C269.741 129.283 269.891 137.613 270.031 145.963C270.031 149.293 270.481 151.133 265.341 150.883C258.281 150.543 251.061 150.713 243.921 151.043C238.851 151.283 233.981 150.753 229.381 148.373C226.881 147.063 224.011 146.973 221.161 146.863C221.361 146.183 221.431 145.643 221.541 145.633C228.811 145.063 229.851 143.883 230.021 136.333C230.141 130.853 229.591 125.333 230.871 119.923C231.741 116.233 229.871 114.923 226.171 114.983C218.011 115.163 209.821 114.623 201.711 115.193C196.531 115.553 192.501 112.853 187.881 111.863C186.561 111.573 186.221 110.233 187.391 109.783C194.131 107.213 192.391 101.233 192.961 96.263C193.165 93.2671 193.188 90.2617 193.031 87.263C193.031 84.343 194.451 83.033 197.331 83.043C207.331 83.043 217.331 83.043 227.331 83.043C230.621 83.043 231.091 84.943 231.061 87.593C231.001 94.533 231.061 101.473 231.381 108.413C232.871 101.053 230.931 93.523 232.801 86.213C232.801 92.663 232.861 99.103 232.981 105.553C232.921 107.073 232.191 108.813 233.551 110.273Z" fill="#F5B121"/>
</svg>
