<svg width="382" height="395" viewBox="0 0 382 395" fill="none" xmlns="http://www.w3.org/2000/svg">
<path d="M380.718 350.775C382.098 362.515 379.518 373.105 371.718 382.185C364.718 390.245 356.038 393.905 345.328 393.895C241.898 393.795 138.468 393.485 35.0376 394.175C17.0376 394.285 -0.372388 378.775 1.58761 360.875C2.01761 358.195 3.39762 359.875 3.99762 360.545C5.11082 362.094 6.53436 363.395 8.17764 364.365C10.2976 365.785 11.1776 368.175 12.7076 370.075C17.9626 374.497 24.6743 376.807 31.5376 376.555C31.8676 376.555 32.2076 376.555 32.5376 376.555C103.798 375.905 175.058 378.555 246.318 377.415C279.938 376.885 313.558 376.745 347.178 376.495C360.668 376.405 370.178 369.915 375.688 357.545C377.698 355.525 377.388 351.805 380.718 350.775Z" fill="#374047"/>
<path d="M380.718 350.775C379.908 353.085 379.108 355.395 378.298 357.695C377.802 357.636 377.328 357.463 376.911 357.188C376.495 356.913 376.149 356.545 375.9 356.113C375.651 355.68 375.507 355.196 375.479 354.698C375.451 354.2 375.539 353.703 375.738 353.245C377.058 349.735 375.148 347.385 373.678 344.755C373.381 342.277 373.264 339.78 373.328 337.285C373.328 279.412 373.328 221.542 373.328 163.675C373.288 161.673 373.355 159.67 373.528 157.675C374.798 150.905 373.148 144.175 373.218 137.395C373.548 105.625 373.358 73.8549 373.368 42.0849C373.276 39.6198 373.342 37.1514 373.568 34.6949C365.998 39.5649 360.488 47.9349 350.978 50.9049C350.56 51.2305 350.075 51.4594 349.558 51.5749C345.118 50.0449 341.968 46.7349 338.558 43.6949C334.178 39.7749 330.958 34.5749 325.558 31.8049C325.081 31.5439 324.586 31.3167 324.078 31.1249C309.798 29.5249 295.498 30.6449 281.218 30.3849C271.578 30.2149 261.928 30.3849 252.288 30.3849C250.126 30.5304 247.957 30.2274 245.918 29.4949C244.228 28.7749 242.248 28.2249 242.198 26.0049C242.138 23.5949 244.038 22.4549 246.018 22.0049C250.508 21.0749 254.248 18.5349 258.348 16.7649C266.768 13.1349 274.438 8.29489 282.038 3.28489C283.858 2.08489 285.888 2.3849 287.848 2.3849C310.128 2.3849 332.404 2.3849 354.678 2.3849C362.998 2.8449 368.808 7.5849 373.858 13.6349C377.318 19.1349 379.038 24.8549 377.258 31.5049C376.528 34.2349 377.068 37.3249 377.138 39.3149C377.268 34.3849 376.448 28.4049 379.628 22.9749C381.348 25.9149 380.568 29.1449 380.568 32.2349C380.568 127.448 380.551 222.658 380.518 317.865C380.518 321.185 380.688 324.515 380.778 327.865C380.738 335.498 380.718 343.135 380.718 350.775Z" fill="#E1B146"/>
<path d="M0.837602 29.0949C1.0876 28.9249 1.33761 28.7549 1.56761 28.5749C2.56761 29.1049 2.5676 30.0849 2.6476 31.0549C2.6476 23.5249 3.19761 22.7849 7.06761 24.9549C7.85309 26.9938 7.98932 29.2256 7.45763 31.3449C7.03963 33.9901 6.86224 36.6677 6.92763 39.3449C6.92763 128.425 6.67762 217.505 7.16762 306.575C7.23762 320.365 6.35761 334.135 6.78761 347.915C6.88761 351.175 6.91763 354.775 2.73763 356.085C-0.362373 353.885 0.16762 350.545 0.16762 347.455C0.12762 322.668 0.12762 297.872 0.16762 273.065C0.16762 193.685 0.16762 114.302 0.16762 34.9149C0.18762 32.9949 -0.522398 30.9249 0.837602 29.0949Z" fill="#F3DB86"/>
<path d="M5.53763 23.8349C2.00763 27.4649 4.81764 32.6249 1.95764 36.5949C1.81764 33.9349 1.68764 31.2749 1.54764 28.5949C1.78764 16.7949 8.59764 9.13495 17.7076 2.91495C23.5376 0.0949519 29.7976 0.0149579 36.0876 0.0149579L276.088 0.0649457C299.088 0.0649457 322.088 -0.125068 345.088 0.144932C351.398 0.214932 357.888 0.144951 363.838 3.44495C369.43 6.61179 374.14 11.1293 377.538 16.5849C378.028 17.2949 378.288 18.135 377.618 18.735C376.948 19.335 376.108 18.845 375.618 18.235C374.468 16.925 373.748 15.2849 372.618 13.9649C367.998 8.90494 362.878 4.66493 355.708 3.86493C355.132 3.53024 354.473 3.36716 353.808 3.39493C352.308 3.39493 350.808 3.39493 349.318 3.39493C249.248 5.82493 149.158 4.95495 49.0676 5.22495C41.9376 5.22495 34.8176 6.16493 27.6676 6.33493C20.1476 6.52493 15.2976 11.4849 10.8476 16.8049C9.54479 18.3225 8.40832 19.9753 7.45764 21.735C7.30535 22.2014 7.0553 22.63 6.72421 22.9921C6.39312 23.3542 5.98859 23.6416 5.53763 23.8349Z" fill="#F2E6AB"/>
<path d="M372.538 13.965C374.098 14.575 374.878 15.965 375.818 17.205C376.758 18.445 377.258 17.635 377.528 16.595C378.968 18.475 379.258 20.735 379.528 22.985C379.278 30.135 376.028 36.935 377.198 44.305C376.278 34.035 377.968 23.475 372.538 13.965Z" fill="#E7BE54"/>
<path d="M6.91763 365.725C5.84763 362.265 3.02763 359.555 2.66763 355.795C4.23299 352.843 4.92663 349.506 4.66763 346.175C4.18763 333.395 4.97764 320.635 4.92764 307.855C4.54764 217.855 4.71764 127.785 4.76764 37.745C4.76764 33.105 5.27762 28.475 5.55762 23.835L5.82764 21.895C6.62764 21.025 7.62763 20.035 8.72763 20.105C14.1376 20.445 16.6176 16.435 19.4376 13.045C25.6376 5.57499 35.2376 5.16497 41.3576 12.645C43.9976 15.855 48.4976 17.935 48.5676 23.015C49.0172 22.3599 49.6122 21.8178 50.3061 21.4309C51 21.044 51.7741 20.823 52.5676 20.785C56.4376 20.675 60.1676 21.595 63.8876 22.415C64.649 22.5116 65.3526 22.8714 65.8767 23.432C66.4008 23.9926 66.7124 24.7189 66.7576 25.485C66.7576 27.225 65.4576 28.035 63.8476 28.395C63.1976 28.535 63.9876 28.395 63.3476 28.395C49.5876 29.395 43.2776 40.885 34.5776 48.985C32.9376 50.505 32.4176 52.695 32.2476 54.905C32.0876 56.905 32.1476 58.905 32.1476 60.905C32.1476 101.555 32.6176 142.225 31.9076 182.905C31.6176 199.625 32.3576 216.325 31.9076 233.055C31.6576 241.955 32.2076 251.005 31.9776 259.935C31.5076 278.215 32.8976 296.485 32.0576 314.745C31.7476 321.335 34.1476 326.335 38.5476 330.795C41.5476 333.875 44.7276 336.895 46.4776 340.985C45.5476 344.985 45.7276 349.095 44.2876 353.075C42.8801 357.31 40.5038 361.159 37.3476 364.315C35.4978 366.198 33.8242 368.247 32.3476 370.435C28.5276 375.885 24.1676 376.835 18.1976 373.655C15.7176 372.345 13.3876 370.755 10.7076 369.845L6.91763 365.725Z" fill="#EABE4D"/>
<path d="M10.6576 369.845C14.0776 368.465 16.5476 371.055 19.3676 372.005C24.2976 373.685 27.6676 375.145 30.8376 368.705C31.9454 366.472 33.5171 364.502 35.4476 362.925C41.0876 358.415 42.7576 352.195 43.6276 345.545C43.8376 343.975 44.2376 342.655 45.6276 341.795C48.4676 340.795 49.9276 343.625 52.2376 344.105C53.3205 345.018 54.1476 346.196 54.6376 347.525C57.3876 353.945 62.3976 358.645 66.9276 363.695C68.2076 365.125 70.1276 365.375 71.9876 365.465C74.6476 365.605 77.3176 365.565 79.9876 365.565H338.988C341.989 365.474 344.993 365.534 347.988 365.745C352.969 366.131 357.945 364.925 362.197 362.301C366.449 359.677 369.758 355.771 371.648 351.145C372.548 349.065 373.098 346.655 375.648 345.795C377.948 346.795 378.898 348.345 378.078 350.935C377.378 353.155 377.078 355.475 378.288 357.685C373.388 370.485 363.848 377.185 350.478 378.685C347.326 378.972 344.161 379.079 340.998 379.005C274.564 379.132 208.138 379.242 141.718 379.335C104.918 379.335 68.1276 379.065 31.3376 378.955C23.0676 378.985 16.0376 376.325 10.6576 369.845Z" fill="#E0993E"/>
<path d="M50.5976 345.005C48.1576 345.155 47.5476 342.465 45.5976 341.795C41.4476 336.795 37.3376 331.795 33.1176 326.895C31.3763 324.856 30.4691 322.234 30.5776 319.555C30.6276 307.935 31.4676 296.225 30.3476 284.715C29.2276 273.205 30.8476 261.565 30.1976 249.955C29.8076 243.085 30.0676 235.805 30.2476 228.745C30.4576 220.045 31.0176 211.245 29.8176 202.525C29.1976 198.035 30.4476 193.525 30.4176 189.135C30.2776 168.835 31.4176 148.535 30.0376 128.245C29.7776 124.305 30.5576 120.305 30.5676 116.325C30.6343 96.165 30.6343 76.0083 30.5676 55.855C30.5676 52.085 31.5676 48.995 34.4476 46.555C34.5676 46.445 34.6776 46.315 34.7976 46.195C43.7976 37.715 50.7076 25.975 66.6376 27.075C61.5676 22.985 61.5676 22.985 43.3976 28.275C44.6276 25.915 47.2276 22.805 46.5876 21.825C44.114 18.116 41.058 14.8304 37.5376 12.095C31.7576 7.59498 25.7376 8.80497 21.1476 14.655C20.3197 15.4726 19.5511 16.3481 18.8476 17.275C16.3176 21.655 12.8976 23.695 7.78763 21.975C7.12483 21.8734 6.45042 21.8734 5.78763 21.975C8.78763 11.395 18.7876 4.10498 30.4576 3.81498C93.5876 2.23498 156.728 3.51497 219.868 3.15497C262.518 2.90497 305.178 3.00497 347.868 2.99497C350.478 2.99497 353.228 2.32498 355.658 3.94498C333.348 3.94498 311.028 4.01498 288.658 3.94498C285.518 3.94498 283.358 5.12498 280.708 6.94498C275.138 10.705 269.558 14.675 263.238 17.225C256.548 19.925 250.768 24.675 243.118 25.455C245.988 28.745 249.368 28.955 252.818 28.955C275.304 28.955 297.791 28.9783 320.278 29.025C322.368 29.025 324.648 28.405 326.468 30.135C323.318 32.645 319.548 32.215 315.928 32.215C284.968 32.2683 254.001 32.2683 223.028 32.215C170.918 32.215 118.808 32.285 66.6976 32.125C59.5676 32.125 53.4176 33.025 48.1776 38.565C44.4276 42.565 39.9176 45.775 36.8876 50.435C34.3876 53.685 34.0876 57.625 34.1876 61.375C34.7676 82.995 33.0276 104.565 32.9776 126.185C32.9776 145.305 34.4576 164.405 33.9776 183.505C33.1176 217.365 33.1676 251.235 33.0776 285.105C33.0776 296.405 34.5876 307.645 34.2176 318.965C34.0376 324.385 37.7076 328.225 41.2176 331.725C44.2176 334.725 46.6276 338.035 49.4476 341.085C50.5376 342.095 51.5376 343.325 50.5976 345.005Z" fill="#E7BE54"/>
<path d="M34.9576 48.9249C39.9576 42.9249 45.8276 37.7349 51.5076 32.3749C54.2776 29.7649 57.6476 30.1449 60.9276 30.1449C101.701 30.1449 142.471 30.1449 183.238 30.1449C230.998 30.1449 278.754 30.1149 326.508 30.0549C326.508 30.3149 326.508 30.5749 326.508 30.8349C330.838 35.0949 335.508 38.9649 339.658 43.4349C340.878 44.7549 342.398 45.8449 342.858 47.7449C342.438 53.4649 340.598 54.7449 334.668 53.6449C329.198 51.2849 325.408 46.4849 320.238 43.6449C316.238 41.2049 311.718 42.2849 307.538 42.5049C293.718 43.2249 279.898 42.6749 266.078 42.8849C239.428 43.2749 212.788 41.8849 186.138 42.4549C148.328 43.2549 110.518 43.0349 72.7176 42.5849C63.4476 42.4749 57.0876 44.8949 51.1176 51.5849C47.4476 55.7249 45.4576 59.4849 45.5476 65.1449C45.8143 83.8116 45.8143 102.478 45.5476 121.145C45.2476 123.625 46.3376 125.795 47.1776 128.015C47.4535 128.423 47.6722 128.867 47.8276 129.335C48.7676 135.165 52.1376 140.545 51.1676 146.755C50.2576 148.535 49.8076 150.515 48.8476 152.285C48.5024 152.644 48.096 152.938 47.6476 153.155C47.161 153.359 46.6954 153.61 46.2576 153.905C44.8376 155.035 45.1576 156.635 45.1976 158.085C46.2876 202.005 45.3476 245.935 45.6776 289.865C45.7476 298.515 45.3476 307.165 45.9376 315.805C46.0343 316.397 46.0812 316.995 46.0776 317.595C44.7976 321.065 45.9976 324.425 46.4176 327.855C46.9076 331.855 45.4976 333.215 41.7476 332.785C39.5676 330.945 37.8976 328.645 35.9176 326.635C35.1736 325.864 34.5892 324.954 34.1979 323.957C33.8066 322.96 33.6162 321.896 33.6376 320.825C32.7676 301.385 32.5576 281.945 32.6376 262.495C32.7076 247.355 32.4476 232.205 32.7076 217.075C32.9676 202.305 33.3676 187.525 33.0276 172.775C32.5176 150.315 32.5276 127.865 32.7576 105.425C32.9176 88.9649 33.1876 72.505 33.0876 56.045C33.0676 53.405 34.2376 51.2649 34.9576 48.9249Z" fill="#233743"/>
<path d="M375.658 345.805C373.378 359.545 360.798 368.975 349.578 367.715C347.048 364.455 346.838 360.945 348.478 357.245C349.478 355.665 351.108 356.395 352.478 356.245C356.088 355.795 357.198 353.865 356.228 350.085C352.438 343.505 351.048 343.585 344.948 350.775C341.418 351.035 341.608 348.305 342.188 346.495C344.358 339.735 343.508 332.195 347.578 325.955C349.148 322.315 349.038 318.475 349.038 314.645C349.038 259.565 349.038 204.488 349.038 149.415C349.678 144.415 350.408 139.475 356.328 137.675C357.716 137.144 359.22 136.989 360.688 137.225C365.508 138.225 373.528 147.225 373.958 152.305C374.098 153.985 374.158 155.595 375.368 156.915C375.408 200.915 375.451 244.895 375.498 288.855C375.571 307.835 375.624 326.818 375.658 345.805Z" fill="#BF760A"/>
<path d="M375.448 156.885C372.918 156.365 372.588 154.475 372.578 152.355C372.578 149.105 371.578 146.525 368.098 145.465C367.153 145.153 366.329 144.555 365.738 143.755C363.978 141.295 362.008 138.115 358.918 138.865C354.838 139.865 350.918 142.185 350.918 147.475C350.918 147.605 350.748 147.745 350.648 147.885C348.858 146.625 349.108 144.685 349.108 142.885C349.054 113.552 349.054 84.1983 349.108 54.8249C349.062 53.4947 349.255 52.167 349.678 50.9049C349.631 50.2538 349.802 49.6055 350.164 49.0623C350.526 48.5192 351.059 48.1119 351.678 47.9049C361.348 43.6549 368.198 35.9049 375.458 29.1449L375.448 156.885Z" fill="#C57F12"/>
<path d="M341.628 46.8749C337.069 41.2709 331.782 36.3003 325.908 32.0949C323.668 30.4549 326.378 31.2549 326.468 30.7949C330.998 32.4549 333.578 36.4749 336.938 39.5349C340.938 43.1949 344.758 47.0549 348.658 50.8349C350.058 52.7149 349.428 54.9049 349.588 56.9849C349.818 62.9849 349.088 69.1049 350.028 75.1349C350.028 88.8949 350.108 102.655 350.028 116.415C349.273 122.441 349.273 128.538 350.028 134.565C350.028 150.505 350.078 166.445 350.028 182.385C349.098 196.955 349.618 211.525 349.748 226.095C350.07 227.236 350.155 228.43 349.998 229.605C349.323 233.293 349.343 237.074 350.058 240.755C350.058 266.755 350.058 292.722 350.058 318.655C350.058 325.805 344.798 334.045 338.748 336.485C338.432 336.442 338.128 336.337 337.853 336.176C337.578 336.014 337.339 335.8 337.148 335.545C336.058 332.855 337.578 330.885 339.368 329.445C344.568 325.255 345.688 319.535 345.978 313.445C346.068 311.445 346.068 309.445 346.068 307.445C346.068 225.892 346.068 144.338 346.068 62.7849C346.068 59.6749 346.698 56.4249 344.748 53.5849C343.108 51.6249 342.988 48.9649 341.628 46.8749Z" fill="#140F04"/>
<path d="M348.988 230.335V226.335C349.148 211.995 349.148 197.662 348.988 183.335C349.438 166.655 349.518 149.975 348.918 133.335C349.218 128.035 349.148 122.735 348.918 117.425C348.918 103.092 348.918 88.7582 348.918 74.4249C348.998 68.6049 349.338 62.7749 348.748 56.9549L348.608 50.8949L349.608 50.9549C351.008 52.8949 350.508 55.1249 350.508 57.2349C350.568 87.4616 350.598 117.692 350.598 147.925C350.598 204.545 350.598 261.168 350.598 317.795C350.598 321.335 350.508 324.795 348.528 327.895C346.956 330.771 345.192 333.537 343.248 336.175C341.618 338.295 339.928 342.095 335.968 339.035C335.658 337.035 337.218 336.565 338.558 335.925C345.948 329.685 350.068 322.595 349.628 312.055C348.708 290.055 349.278 267.915 349.218 245.845C349.218 243.695 349.018 241.545 348.908 239.395C349.101 236.379 349.128 233.354 348.988 230.335Z" fill="#B3833D"/>
<path d="M351.268 29.7649C347.828 29.2349 345.618 27.6249 345.598 23.9949C345.598 23.1272 345.775 22.2686 346.117 21.4715C346.46 20.6744 346.962 19.9554 347.591 19.3584C348.221 18.7615 348.966 18.299 349.78 17.9993C350.594 17.6995 351.461 17.5687 352.328 17.6149C353.155 17.615 353.973 17.7884 354.729 18.1239C355.485 18.4595 356.162 18.9497 356.717 19.5631C357.272 20.1765 357.692 20.8993 357.951 21.685C358.209 22.4707 358.3 23.3019 358.218 24.1249C357.718 28.1949 354.618 29.2249 351.268 29.7649Z" fill="#8F4804"/>
<path d="M26.7276 17.5349H29.6476C34.6476 18.6149 36.5176 20.9349 35.9376 25.1549C35.7034 26.8012 34.8653 28.3015 33.5864 29.3642C32.3074 30.4269 30.679 30.9761 29.0176 30.9049C24.8676 30.9649 21.5176 28.4649 21.1476 25.0349C20.6876 20.6249 22.2376 18.5449 26.7276 17.5349Z" fill="#964F0A"/>
<path d="M28.2476 355.095C25.2976 354.785 22.9076 353.095 22.7376 349.335C22.5976 346.205 26.0376 342.705 29.0776 343.045C30.6632 343.122 32.1666 343.774 33.3074 344.878C34.4481 345.981 35.1484 347.463 35.2776 349.045C35.6576 352.215 32.2376 355.185 28.2476 355.095Z" fill="#AE5D0E"/>
<path d="M26.7276 17.5349C21.1676 21.0849 20.1176 25.2949 24.0376 28.2549C27.5276 30.8949 31.8176 30.2549 33.9076 26.7049C35.9976 23.1549 34.7876 20.2249 29.6476 17.4949C32.8976 15.3849 35.8376 18.1349 36.6476 19.7649C37.4547 21.3224 37.7657 23.0897 37.5387 24.8291C37.3116 26.5686 36.5575 28.1968 35.3776 29.4949C32.8276 32.1949 29.4676 32.4949 26.1476 31.4249C23.1976 30.4749 21.0176 28.5949 20.6576 25.0849C20.4127 23.4372 20.6621 21.754 21.3741 20.2481C22.0861 18.7421 23.2288 17.4812 24.6576 16.6249C25.6076 15.9749 26.9176 15.2049 26.7276 17.5349Z" fill="#E7BE54"/>
<path d="M336.538 338.855C340.988 337.675 342.778 333.405 345.938 330.725C346.883 329.824 347.771 328.866 348.598 327.855C347.168 332.385 343.878 336.625 346.958 341.855C347.598 342.935 345.658 343.935 344.958 345.015C344.038 346.485 342.138 348.015 344.688 349.705C347.898 349.705 349.378 351.565 349.908 354.465C347.778 355.055 349.908 356.305 349.508 357.155C348.988 360.695 350.648 364.225 349.508 367.755H179.198C144.068 367.755 108.938 367.755 73.8076 367.915C68.8976 367.915 65.1776 366.915 62.4676 362.525C60.7476 359.725 58.2876 357.365 56.0676 354.895C55.0126 353.847 54.176 352.601 53.6061 351.228C53.0362 349.854 52.7444 348.382 52.7476 346.895C53.1176 346.553 53.5628 346.302 54.0474 346.163C54.532 346.024 55.0424 346.001 55.5376 346.095C142.458 346.715 229.368 346.225 316.278 346.355C322.418 346.355 328.278 345.355 332.558 340.355C333.538 339.165 334.828 338.235 336.538 338.855Z" fill="#B26408"/>
<path d="M336.538 338.855C330.338 347.175 321.668 347.755 312.128 347.725C229.128 347.485 146.208 347.565 63.2376 347.545C59.7576 347.545 56.2376 347.795 52.8076 346.865L50.5976 345.005C46.8876 340.765 43.3476 336.355 39.4276 332.305C34.7376 327.465 32.1376 322.305 32.1776 315.155C32.4276 268.905 32.1776 222.655 32.1776 176.405C32.1776 136.972 32.2343 97.5449 32.3476 58.1249C32.3476 54.8649 31.7876 51.3349 34.9476 48.9249C32.5776 60.2249 33.7676 71.6749 33.7476 83.0649C33.6376 155.495 33.7476 227.925 33.6076 300.355C33.6076 307.525 34.6076 314.615 34.6076 321.765C34.6369 322.678 34.8525 323.576 35.2411 324.403C35.6297 325.23 36.1832 325.969 36.8676 326.575C38.8676 328.575 40.7276 330.705 42.6476 332.775C45.8471 333.745 48.611 335.795 50.4676 338.575C51.583 340.258 53.1304 341.61 54.9478 342.49C56.7652 343.369 58.7857 343.744 60.7976 343.575C62.2876 343.515 63.7976 343.575 65.2876 343.575C148.568 343.575 231.851 343.605 315.138 343.665C321.688 343.665 327.278 342.505 331.728 337.465C333.248 335.745 335.118 334.765 337.508 335.795L338.618 335.875L336.538 338.855Z" fill="#201E0E"/>
<path d="M46.5376 151.885H47.4276C54.3676 157.525 59.8376 164.475 65.0276 171.655C67.5242 175.337 70.6444 178.556 74.2476 181.165C75.9757 182.472 77.2575 184.281 77.9176 186.345C78.2576 187.765 79.4176 188.795 79.8276 190.185C81.37 193.977 83.944 197.261 87.2576 199.665C93.4276 204.545 99.7476 208.665 107.318 211.125C111.748 212.565 115.198 216.125 117.908 219.865C120.408 223.325 122.548 227.045 125.378 230.275C126.378 232.105 128.328 231.435 129.728 232.105C132.348 233.345 133.908 235.035 130.938 237.605C125.512 238.233 120.047 238.467 114.588 238.305C162.648 236.305 211.938 237.725 261.208 237.305C263.208 237.305 265.208 237.565 266.768 235.855C267.618 234.465 267.148 232.995 267.098 231.535C267.018 229.235 267.528 227.255 270.368 226.995C271.918 227.185 273.368 228.055 273.558 225.075C274.208 213.585 274.338 213.595 286.008 214.525C293.448 215.115 294.108 214.525 294.388 206.835C294.628 200.135 295.888 198.895 302.778 198.635C304.108 198.585 305.438 198.635 306.778 198.455C310.418 198.085 312.718 196.455 312.368 192.455C312.414 191.789 312.414 191.121 312.368 190.455C310.228 181.645 316.598 176.455 320.848 170.365C321.115 169.932 321.537 169.618 322.028 169.485C328.508 168.755 330.168 163.605 332.098 158.655C332.768 156.925 333.558 155.235 335.888 155.335C338.888 156.505 338.568 159.215 338.778 161.655C339.378 168.825 337.778 175.885 337.778 183.055C337.918 211.505 337.778 239.955 337.858 268.405C337.858 284.875 337.798 301.325 336.968 317.775C334.158 323.045 329.568 326.655 325.068 330.305C323.778 331.305 322.068 331.465 320.298 331.425C281.668 330.615 243.018 330.425 204.418 331.345C175.288 332.045 146.168 331.785 117.048 331.975C97.5976 332.115 78.1576 330.295 58.6776 331.315C52.7876 331.625 45.4076 324.315 44.4676 318.125L44.6176 316.835C45.7776 315.045 45.6176 313.025 45.6176 311.035C45.6176 262.635 45.6176 214.238 45.6176 165.845C45.6176 162.675 44.8576 159.575 45.0876 156.395C45.2476 154.775 44.9676 153.035 46.5376 151.885Z" fill="#283E49"/>
<path d="M322.958 42.915C327.278 45.325 330.738 48.835 334.568 51.915C338.118 54.115 338.868 57.155 338.328 61.265C337.198 69.985 337.958 78.805 337.868 87.575C337.778 96.345 337.868 105.135 337.808 113.915C337.808 116.375 338.098 118.915 336.928 121.235C335.758 123.555 333.418 123.375 331.288 123.385C322.808 123.385 314.288 123.385 305.848 123.385C300.408 123.385 295.398 124.385 290.908 127.885C285.908 131.715 279.818 132.205 273.848 132.325C262.718 132.545 251.568 132.325 240.428 132.415C238.524 132.452 236.634 132.091 234.877 131.356C233.121 130.62 231.537 129.527 230.228 128.145C220.228 118.375 211.868 107.215 202.958 96.505C199.828 92.735 197.368 88.215 192.818 85.775C189.818 87.055 188.348 89.775 186.428 92.105C185.203 93.8268 183.675 95.3111 181.918 96.485C173.818 103.485 168.038 112.535 161.228 120.655C158.165 124.169 154.906 127.508 151.468 130.655C150.797 131.272 150.008 131.745 149.148 132.048C148.289 132.351 147.377 132.475 146.468 132.415C131.528 132.415 116.568 132.735 101.648 131.415C100.141 131.414 98.6751 130.926 97.4676 130.025C94.9876 127.825 91.9176 127.155 88.9476 126.145C87.2976 124.655 85.2576 124.935 83.2976 124.935C72.9176 124.935 62.5376 124.935 52.1576 124.935C50.0376 124.935 47.8176 125.195 46.2176 123.265C45.3076 121.905 45.6476 120.365 45.6476 118.895C45.6476 100.245 45.7176 81.5949 45.5776 62.9549C45.5776 59.1649 46.9676 56.525 49.2976 53.625C55.8876 45.425 63.4776 42.265 74.5376 42.625C106.308 43.625 138.128 43.185 169.928 42.885C183.928 42.745 197.878 42.165 211.838 42.545C236.968 43.245 262.098 42.745 287.218 42.995C297.868 43.105 308.498 42.465 319.138 42.255C320.448 42.0819 321.781 42.3122 322.958 42.915Z" fill="#293E4A"/>
<path d="M45.5376 130.025L45.6476 128.725C46.0076 125.815 47.9176 124.895 50.5476 124.885C61.8676 124.885 73.1776 124.885 84.4876 124.885C87.8376 124.885 90.2076 126.775 92.3476 128.765C97.4676 133.505 103.448 134.935 110.228 134.765C119.548 134.545 128.928 134.055 138.168 134.895C147.408 135.735 152.858 131.665 158.588 125.105C169.398 112.745 178.728 99.175 190.108 87.315C190.918 86.465 191.578 85.495 192.848 85.315C193.008 85.315 193.228 85.215 193.318 85.315C199.462 90.186 204.483 96.3257 208.038 103.315C205.168 105.465 203.378 103.235 201.838 101.465C199.778 99.0949 197.838 96.635 195.708 94.045C194.318 95.045 194.798 96.465 194.798 97.635C194.798 107.465 194.858 117.285 194.718 127.105C194.668 130.005 195.718 132.625 196.088 135.395C195.368 137.505 193.528 137.735 191.708 137.955C190.221 138.053 188.773 138.465 187.458 139.165C183.758 141.395 183.628 143.775 187.048 146.605C187.495 147.187 187.781 147.877 187.878 148.605C188.078 150.465 187.448 152.215 187.188 154.015C186.518 158.645 187.188 162.625 192.278 164.505C195.468 167.335 194.168 171.695 195.868 175.045C194.758 176.805 192.868 176.785 191.128 177.175C189.686 177.419 188.335 178.042 187.214 178.981C186.093 179.919 185.242 181.139 184.748 182.515C186.398 183.715 188.288 182.355 189.618 183.615C190.878 185.695 189.318 187.275 188.618 189.025C186.468 194.375 185.548 199.505 190.828 203.775C191.641 204.628 192.102 205.757 192.118 206.935C192.334 207.774 192.329 208.654 192.103 209.49C191.877 210.327 191.437 211.09 190.828 211.705C188.538 213.575 185.758 213.105 183.148 213.125C168.658 213.225 154.148 213.125 139.658 213.125C137.658 213.125 135.658 213.125 133.658 213.215C129.308 213.425 125.788 214.615 125.138 219.755C124.914 221.255 124.273 222.662 123.288 223.815C122.979 224.116 122.597 224.332 122.18 224.441C121.763 224.55 121.324 224.548 120.908 224.435C120.019 223.81 119.332 222.941 118.929 221.932C118.526 220.924 118.424 219.82 118.638 218.755C119.208 214.985 117.368 214.005 114.158 214.025C112.484 214.063 110.837 213.6 109.428 212.695C108.158 211.885 108.088 210.925 108.898 209.765C110.898 207.985 113.338 208.765 115.588 208.765C118.498 208.765 120.288 207.685 120.968 204.765C124.318 190.345 121.408 177.455 111.368 166.455C108.698 163.535 106.078 160.455 102.518 158.455C94.7576 154.105 86.9176 151.675 77.7776 154.455C72.8796 156.038 67.7743 156.887 62.6276 156.975C60.1676 156.975 58.8076 158.795 56.8776 159.625C52.0876 159.115 50.2976 155.305 48.2576 151.765C46.4976 149.065 44.6476 146.325 50.2576 146.445C52.0276 144.445 54.4476 144.765 56.7276 144.725C62.8376 144.595 68.9776 145.015 75.0276 143.785C76.1176 143.555 77.3476 143.785 78.2776 142.535C77.0476 140.225 74.8576 140.225 72.7676 140.145C68.8004 139.935 64.8249 139.935 60.8576 140.145C54.7576 140.555 50.2676 138.335 47.3476 132.965C46.8972 131.899 46.2868 130.907 45.5376 130.025Z" fill="#F2C042"/>
<path d="M44.5376 318.145C46.9876 323.265 52.0576 325.505 56.2376 328.715C56.9321 329.152 57.7497 329.352 58.5676 329.285C84.8376 327.595 111.078 330.415 137.348 329.845C153.988 329.485 170.648 330.265 187.278 329.665C228.528 328.185 269.788 328.935 311.038 329.125C320.228 329.175 327.508 327.745 332.928 320.125C333.708 319.263 334.591 318.501 335.558 317.855C336.778 315.315 335.888 312.625 336.118 310.015C336.268 308.395 335.768 306.265 337.908 305.905C339.618 305.615 340.288 307.375 340.778 308.845C340.86 309.305 341.044 309.741 341.316 310.121C341.587 310.502 341.94 310.817 342.348 311.045C343.738 309.615 343.348 307.725 343.348 306.045C343.408 239.495 343.508 172.955 343.248 106.405C343.248 98.2949 342.188 90.1649 342.408 82.0149C342.648 73.2149 343.748 64.4449 343.528 55.6249C343.528 53.7849 343.738 51.9249 345.668 50.9049C348.478 52.7549 347.608 55.6549 347.608 58.2049C347.608 134.285 347.608 210.368 347.608 286.455C347.608 296.455 347.338 306.455 347.728 316.455C347.948 322.105 346.418 326.455 342.068 330.065C340.198 331.615 338.068 333.185 337.558 335.865C336.698 336.365 335.558 336.675 335.018 337.415C329.448 345.315 321.568 346.065 312.628 346.035C229.448 345.795 146.264 345.795 63.0776 346.035C56.0176 346.035 50.8676 344.205 47.1476 338.195C45.7961 336.309 44.3088 334.524 42.6976 332.855C45.4376 331.855 44.3776 329.855 44.2376 327.935C43.9576 324.625 42.1476 321.305 44.5376 318.145Z" fill="#0E1923"/>
<path d="M345.608 50.875C345.268 65.485 344.288 80.115 344.698 94.715C346.698 165.575 344.948 236.445 345.618 307.315C345.618 310.545 345.328 313.585 343.618 316.385C343.178 317.095 342.888 318.085 341.998 318.095C340.678 318.095 340.698 316.825 340.438 315.905C339.598 312.955 338.788 310.005 337.838 306.615C335.198 310.295 338.108 314.615 335.538 317.815C335.578 272.482 335.634 227.185 335.708 181.925C335.708 174.785 336.318 167.655 336.558 160.515C336.618 158.765 337.048 156.705 334.658 155.905L334.118 155.465C332.738 152.905 336.288 150.155 333.788 147.665C328.148 143.745 327.918 142.075 332.538 136.485C335.258 133.205 338.098 130.055 337.648 125.365C337.268 123.945 335.648 123.245 335.488 121.705C335.558 102.705 335.668 83.795 335.648 64.835C335.648 60.515 338.118 55.935 334.598 51.885C339.468 53.765 341.348 51.425 341.658 46.885C343.28 47.8725 344.637 49.2424 345.608 50.875Z" fill="#0E212B"/>
<path d="M322.958 42.9149C310.91 44.3043 298.784 44.9156 286.658 44.7449C266.358 44.7449 246.038 45.1249 225.748 44.5749C211.608 44.1949 197.458 43.6449 183.338 44.1249C146.398 45.3649 109.438 45.1749 72.5376 44.2549C60.2976 43.9549 55.3176 51.2549 48.4776 57.7849C47.0276 59.1749 47.5976 61.2549 47.5976 63.0549C47.5976 80.6949 47.581 98.3383 47.5476 115.985C47.5476 118.305 47.8076 120.675 46.5476 122.805C46.3942 123.015 46.1996 123.192 45.9756 123.325C45.7517 123.458 45.503 123.544 45.2449 123.577C44.9867 123.611 44.7244 123.592 44.4739 123.521C44.2234 123.45 43.9899 123.329 43.7876 123.165C43.7476 102.025 43.701 80.8849 43.6476 59.7449C43.5615 58.8354 43.6724 57.9181 43.9727 57.0553C44.2729 56.1925 44.7555 55.4045 45.3876 54.7449C49.4476 50.7949 53.4776 46.8249 57.3876 42.7449C59.5476 40.4949 62.2276 40.8749 64.8476 40.8749L226.638 40.985C256.271 40.985 285.901 40.985 315.528 40.985C318.158 40.995 320.978 40.4149 322.958 42.9149Z" fill="#5C6E77"/>
<path d="M48.3376 151.745C51.1176 154.095 53.1076 157.345 56.5776 158.885C68.6576 157.125 80.7376 155.525 92.9076 157.885C98.1976 158.935 101.648 162.215 102.238 166.525C100.898 168.975 98.5176 168.205 96.4776 168.285C87.9176 168.625 79.2976 167.525 70.7976 169.285C69.5776 169.545 67.8676 169.185 68.5076 171.425C70.5876 174.745 73.5076 175.845 77.3976 175.695C85.6676 175.385 93.9676 175.505 102.248 175.645C104.083 175.59 105.9 176.016 107.519 176.881C109.138 177.746 110.503 179.019 111.478 180.575C113.748 184.095 112.298 187.655 108.188 187.695C99.4076 187.775 90.7076 189.345 81.9076 188.935C80.9126 188.94 79.928 188.733 79.0192 188.328C78.1105 187.923 77.2986 187.329 76.6376 186.585C66.4276 176.485 57.7876 165.015 48.5376 154.075C48.0935 153.378 47.7375 152.629 47.4776 151.845C47.7663 151.831 48.0536 151.798 48.3376 151.745Z" fill="#26160F"/>
<path d="M43.7977 123.165L46.5576 122.815C58.8476 123.815 71.1576 123.185 83.4476 123.025C86.0176 123.025 88.4476 123.185 90.5976 124.595C90.7576 124.595 90.9976 124.535 91.0876 124.595C98.4176 131.965 107.878 131.195 117.088 131.315C126.558 131.435 136.038 131.245 145.498 131.385C146.962 131.464 148.425 131.203 149.771 130.621C151.118 130.04 152.311 129.155 153.258 128.035C162.188 118.635 170.028 108.375 177.958 98.1749C178.916 96.8059 180.184 95.6822 181.658 94.8949C184.338 91.8249 186.998 88.7249 189.738 85.7049C190.508 84.8549 190.888 83.0849 192.738 83.9549C193.678 84.2049 194.178 84.7549 193.948 85.7749C183.948 94.2549 177.208 105.435 168.948 115.385C163.688 121.765 157.538 127.385 152.708 134.135C151.188 136.265 148.648 136.835 146.018 136.825C132.388 136.825 118.758 136.825 105.128 136.825C100.008 136.825 95.9176 134.215 92.2476 130.985C90.6048 129.487 88.674 128.339 86.573 127.612C84.4721 126.885 82.245 126.593 80.0276 126.755C70.5676 127.135 61.0276 126.935 51.6076 126.905C49.3976 126.905 47.2676 126.905 45.6876 128.735C44.6776 126.995 43.0877 125.465 43.7977 123.165Z" fill="#F5DC68"/>
<path d="M46.5376 151.885C48.6476 205.045 46.9276 258.215 47.4176 311.385C47.4176 313.655 47.9076 316.255 44.5976 316.855C43.4976 315.045 43.5976 313.025 43.5976 311.035C43.5976 259.415 43.631 207.795 43.6976 156.175C43.6976 154.095 43.2076 151.905 44.2876 149.895C45.5976 150.095 45.9976 151.095 46.5376 151.885Z" fill="#61757F"/>
<path d="M45.5376 130.025C51.8376 138.735 61.0476 138.165 70.2476 137.915C73.9876 137.815 78.0476 137.105 80.9376 140.615C81.9376 141.865 83.5976 143.155 82.8776 144.865C82.2176 146.415 80.2376 145.955 78.8076 146.035C69.3346 146.67 59.8345 146.8 50.3476 146.425C47.2376 145.735 49.7876 143.565 49.2776 142.145C47.8776 138.165 46.7776 134.095 45.5376 130.025Z" fill="#2A1E16"/>
<path d="M349.538 354.715C347.551 353.469 345.902 351.751 344.738 349.715C345.098 345.655 347.458 343.195 351.358 343.115C355.518 343.035 357.358 345.935 357.758 349.865C358.848 352.585 357.398 354.235 355.258 355.465C353.118 356.695 351.208 356.745 349.538 354.715Z" fill="#642906"/>
<path d="M349.538 354.715C353.678 355.435 356.828 354.485 357.758 349.815C359.838 349.125 359.538 350.635 359.378 351.705C358.738 355.975 354.788 358.115 349.558 357.115C349.078 356.585 348.558 356.055 348.108 355.515L349.538 354.715Z" fill="#E7AF54"/>
<path d="M348.988 183.335C349.481 197.682 349.481 212.015 348.988 226.335C348.381 212.015 348.381 197.682 348.988 183.335Z" fill="#0E212B"/>
<path d="M348.798 56.9149C349.439 62.7179 349.496 68.5706 348.968 74.3849C348.318 68.5649 348.618 62.7449 348.798 56.9149Z" fill="#0E212B"/>
<path d="M348.958 117.385C349.443 122.677 349.443 128.003 348.958 133.295C348.433 128.005 348.433 122.675 348.958 117.385Z" fill="#0E212B"/>
<path d="M348.988 230.335C349.495 233.313 349.495 236.356 348.988 239.335C348.425 236.361 348.425 233.309 348.988 230.335Z" fill="#0E212B"/>
<path d="M278.658 271.655C280.458 266.135 279.218 260.455 279.538 254.855C279.768 250.735 279.538 246.605 280.218 242.465C280.385 242.916 280.492 243.386 280.538 243.865C280.068 251.575 280.718 259.065 284.428 266.075C285.638 268.345 285.558 270.395 283.698 272.885C281.198 276.225 282.698 280.625 282.608 284.545C282.408 292.805 282.528 292.815 274.348 292.815C224.728 292.815 175.111 292.842 125.498 292.895C121.578 292.895 118.988 291.765 116.758 288.565C113.538 283.925 109.908 279.565 106.428 275.125C105.628 274.125 104.328 273.225 105.768 271.775C106.305 271.248 106.955 270.849 107.669 270.609C108.382 270.368 109.141 270.291 109.888 270.385C117.558 270.765 125.158 269.535 132.818 269.545C178.098 269.605 223.371 269.605 268.638 269.545C272.098 269.595 275.708 269.095 278.658 271.655Z" fill="#0D1E28"/>
<path d="M76.6376 186.665C86.7776 186.515 96.9276 186.385 107.068 186.175C108.448 186.175 110.388 186.905 111.068 185.175C111.618 183.675 110.158 182.505 109.298 181.305C107.458 178.735 104.908 177.995 101.898 178.045C93.7476 178.175 85.5677 177.815 77.4577 178.425C71.7677 178.855 68.2776 176.655 65.7876 171.965C65.7876 168.715 68.1676 169.035 70.3376 168.885C79.0776 168.305 87.8176 167.685 96.5976 167.885C98.2276 167.885 99.9376 168.085 101.308 166.885C99.4876 161.745 94.9576 160.575 90.4176 159.885C81.0476 158.535 71.6277 159.715 62.2377 159.785C60.3477 159.785 58.2376 160.665 56.6076 158.935C56.1376 156.145 56.9876 154.735 60.1576 154.885C66.3676 155.185 72.4376 153.725 78.2876 152.055C88.7876 149.055 97.9977 152.005 105.958 158.055C120.728 169.345 127.158 184.455 123.708 203.185C122.278 210.965 121.488 211.625 113.558 210.855C112.271 210.606 111.011 210.231 109.798 209.735C108.088 208.735 108.218 207.055 108.228 205.355C108.228 199.625 107.798 199.195 101.998 199.085C99.1821 198.86 96.3531 198.86 93.5376 199.085C86.0576 200.155 81.2777 196.545 77.6777 190.575C77.6677 189.205 76.0976 188.205 76.6376 186.665Z" fill="#F38B13"/>
<path d="M278.538 241.685C278.498 247.052 278.451 252.425 278.398 257.805C278.145 257.944 277.852 257.992 277.568 257.941C277.284 257.89 277.026 257.743 276.838 257.525C275.138 255.605 275.508 253.245 275.388 250.985C275.658 246.575 274.528 244.655 270.208 245.705C259.808 248.225 249.788 243.655 239.548 245.015C230.505 246.088 221.368 246.122 212.318 245.115C207.534 244.64 202.738 245.892 198.798 248.645C198.48 249.037 198.071 249.346 197.608 249.545C194.418 250.135 191.798 247.935 188.608 247.825C182.958 247.625 178.238 248.435 175.378 253.825C174.849 254.232 174.227 254.5 173.568 254.605C169.438 254.685 168.028 256.775 168.838 260.705C168.95 261.279 168.945 261.87 168.823 262.442C168.701 263.015 168.464 263.556 168.128 264.035C164.508 267.035 159.888 266.575 155.758 267.805C144.318 268.185 132.858 268.025 121.388 267.905C121.238 269.015 124.268 270.845 121.868 270.905C116.668 271.125 111.198 272.815 106.158 269.905C106.717 262.105 106.868 254.281 106.608 246.465C106.548 242.535 108.218 240.945 111.998 241.275C112.328 241.275 112.668 241.275 112.998 241.275C166.068 241.015 219.148 240.545 272.218 240.795C274.328 240.875 276.538 240.405 278.538 241.685Z" fill="#F4BB36"/>
<path d="M107.038 270.735H120.938C118.248 269.905 115.608 269.215 113.018 265.835H155.618C170.608 264.272 185.678 263.604 200.748 263.835C214.448 264.145 228.288 264.205 242.028 262.935C247.982 262.305 253.99 262.375 259.928 263.145C265.998 264.015 268.548 261.915 269.048 255.725C269.067 254.561 269.324 253.412 269.804 252.351C270.284 251.29 270.976 250.339 271.838 249.555C274.058 247.655 276.298 247.185 277.578 250.715L277.748 257.805C278.658 262.065 277.608 266.425 278.328 270.695C278.467 270.99 278.578 271.298 278.658 271.615C249.348 271.685 220.028 271.805 190.718 271.825C162.398 271.825 134.081 271.795 105.768 271.735C105.838 271.53 105.888 271.319 105.918 271.105C106.008 270.235 106.378 270.095 107.038 270.735Z" fill="#D68B14"/>
<path d="M131.608 236.795C131.665 236.395 131.628 235.987 131.5 235.604C131.372 235.221 131.156 234.873 130.869 234.588C130.583 234.304 130.233 234.09 129.849 233.964C129.465 233.839 129.057 233.805 128.658 233.865C127.609 233.924 126.568 233.66 125.674 233.109C124.781 232.559 124.077 231.747 123.658 230.785C124.768 227.785 127.328 227.845 129.878 227.845C138.878 227.845 147.878 227.845 156.878 227.845C190.148 227.705 223.418 227.935 256.688 227.845C259.598 227.845 262.478 228.065 263.428 224.375C264.618 222.375 266.368 221.655 268.428 222.645C270.488 223.635 271.668 225.375 270.608 227.865C268.118 228.575 269.188 230.285 269.368 231.865C269.588 233.865 269.558 235.805 269.628 237.785C265.688 239.285 261.738 237.735 257.788 237.785C217.968 237.905 178.151 237.905 138.338 237.785C136.068 237.805 133.618 238.565 131.608 236.795Z" fill="#1C2935"/>
<path d="M270.588 227.885C269.418 225.355 268.408 222.605 264.668 223.885L263.978 223.435C262.148 217.105 262.558 215.605 267.348 211.915C269.398 210.325 269.048 208.115 269.098 206.005C269.268 198.555 270.378 197.445 277.828 197.405C279.642 197.246 281.467 197.263 283.278 197.455C291.688 199.105 297.098 195.255 300.868 188.205C305.178 182.615 312.518 179.265 315.048 172.775C317.578 166.285 320.718 161.425 327.478 159.105C329.898 158.275 330.948 154.295 334.558 155.885L334.628 155.955C333.988 158.015 333.008 160.055 332.788 162.165C332.238 167.515 329.878 170.555 324.168 171.025C321.168 171.275 314.648 180.505 314.598 183.845C314.538 187.845 314.518 191.845 314.598 195.845C314.678 198.475 313.698 199.685 310.998 200.165C308.062 200.769 305.061 200.997 302.068 200.845C298.068 200.555 296.448 201.845 296.458 206.155C296.458 217.885 295.838 218.575 284.078 216.605C275.188 215.115 275.288 215.755 275.718 225.085C275.718 225.415 275.838 225.745 275.868 226.085C276.108 228.275 277.868 231.345 275.158 232.315C272.448 233.285 271.768 229.795 270.588 227.885Z" fill="#0E212B"/>
<path d="M264.668 223.835C265.088 228.315 263.208 229.955 258.598 229.925C233.818 229.745 209.018 230.295 184.248 229.655C165.818 229.185 147.428 230.655 129.018 229.845C127.183 229.688 125.339 230.012 123.668 230.785C121.498 227.845 119.538 224.725 117.118 222.025C112.588 216.955 107.648 213.025 100.688 210.665C90.6876 207.315 82.7576 200.255 77.6876 190.615C81.9076 196.235 87.5776 197.735 94.2976 196.735C96.9585 196.513 99.6314 196.473 102.298 196.615C111.928 196.545 111.928 196.555 110.228 206.315C110.038 207.435 109.978 208.585 109.848 209.725C108.608 211.635 109.618 211.855 111.338 211.955C114.748 212.145 119.338 210.245 121.218 212.805C122.688 214.805 120.948 219.135 120.658 222.425C120.646 222.924 120.68 223.422 120.758 223.915C123.458 225.365 126.308 224.285 129.058 224.295C169.308 224.375 209.558 224.295 249.798 224.435C254.798 224.435 259.648 222.515 264.638 223.865L264.668 223.835Z" fill="#1D1718"/>
<path d="M107.038 270.735L105.918 271.135C104.848 261.535 105.648 251.895 105.328 242.275C105.198 238.445 108.078 239.705 109.888 239.695C136.654 239.575 163.421 239.505 190.188 239.485C217.948 239.485 245.711 239.578 273.478 239.765C275.158 239.765 278.008 238.085 278.478 241.685C241.708 241.775 204.918 241.425 168.158 242.135C149.538 242.495 130.918 242.645 112.308 242.855C109.838 242.855 107.608 242.855 107.568 246.345C107.538 254.475 107.238 262.605 107.038 270.735Z" fill="#DFCC78"/>
<path d="M131.608 236.795C168.828 236.795 206.048 236.818 243.268 236.865C252.068 236.865 260.858 236.695 269.608 237.865C269.998 238.185 271.468 238.255 270.788 238.545C269.368 239.155 267.548 238.885 265.888 238.885L111.678 238.755C110.548 238.815 109.417 238.69 108.328 238.385C116.108 238.005 123.888 237.925 131.608 236.795Z" fill="#19180D"/>
<path d="M278.328 270.735C276.918 266.495 277.798 262.145 277.748 257.845H278.388C278.83 262.131 278.81 266.453 278.328 270.735Z" fill="#EBA720"/>
<path d="M193.888 85.8049C193.478 85.1949 193.078 84.5849 192.678 83.9749C192.398 83.5749 191.778 82.9749 191.878 82.7849C192.768 81.3049 193.528 82.5549 194.018 83.1249C197.568 87.3049 201.018 91.5549 204.538 95.7849C213.228 106.285 221.368 117.245 231.048 126.915C232.165 128.151 233.533 129.134 235.061 129.798C236.589 130.462 238.242 130.792 239.908 130.765C253.538 130.415 267.198 131.705 280.818 129.965C284.985 129.547 288.894 127.753 291.928 124.865C292.977 123.812 294.236 122.993 295.623 122.461C297.01 121.928 298.494 121.695 299.978 121.775C311.798 121.845 323.628 121.775 335.458 121.705C336.998 122.165 338.618 122.485 339.638 123.935C340.348 125.445 339.918 126.215 338.208 126.165C336.446 125.203 334.452 124.75 332.448 124.855C322.298 124.855 312.138 124.935 301.978 124.855C299.303 124.73 296.687 125.664 294.698 127.455C289.088 132.455 282.608 134.455 274.998 134.225C263.358 133.835 251.688 134.015 239.998 134.225C235.598 134.285 231.778 133.425 228.638 130.225C221.348 125.645 217.878 117.715 212.388 111.555C210.198 109.095 207.598 106.805 207.708 103.055L193.888 85.8049Z" fill="#3C3919"/>
<path d="M181.618 94.9249C172.618 106.355 163.848 118.005 153.938 128.705C151.728 131.095 149.548 132.275 146.228 132.215C133.908 132.005 121.578 131.695 109.278 132.135C105.799 132.353 102.317 131.789 99.0844 130.486C95.8522 129.184 92.9524 127.174 90.5976 124.605C91.2176 124.535 92.1376 124.175 92.4276 124.455C100.098 131.995 110.058 130.095 119.258 130.715C127.538 131.275 135.888 130.715 144.198 130.895C145.76 130.975 147.321 130.71 148.769 130.119C150.217 129.528 151.518 128.625 152.578 127.475C161.508 118.475 168.718 108.095 176.888 98.4749C178.168 96.9949 178.838 94.5149 181.618 94.9249Z" fill="#333519"/>
<path d="M207.748 103.015C214.508 109.515 219.228 117.725 225.698 124.465C226.698 125.465 227.608 126.625 228.558 127.715C231.558 133.095 236.068 134.965 242.198 134.715C252.018 134.355 261.868 134.275 271.678 134.715C280.248 135.105 287.848 133.235 294.468 127.715C297.215 125.514 300.698 124.442 304.208 124.715C310.868 124.905 317.538 124.715 324.208 124.775C326.018 124.775 327.908 124.555 329.368 126.045C330.248 129.705 327.368 129.625 325.278 129.805C320.808 130.175 316.278 129.875 311.818 129.985C305.998 130.135 305.398 131.195 308.018 136.465C308.488 138.565 307.098 139.845 305.788 141.035C304.96 141.695 304.329 142.567 303.96 143.559C303.592 144.551 303.501 145.625 303.698 146.665C303.068 149.735 300.448 150.545 298.078 151.665C291.748 153.175 285.288 154.325 279.718 158.055C270.428 161.305 265.538 168.295 262.478 177.285C259.479 186.477 258.244 196.154 258.838 205.805C259.088 211.395 258.228 212.245 252.708 212.255C235.228 212.315 217.708 212.255 200.258 212.255C197.058 211.655 193.468 213.645 190.618 210.785V205.685C192.128 203.235 194.928 203.545 197.158 202.685C204.328 199.985 207.678 192.975 205.218 186.045C204.862 184.959 204.243 183.977 203.416 183.189C202.589 182.4 201.579 181.828 200.478 181.525C199.368 180.755 198.918 179.385 197.798 178.615C196.798 177.485 195.568 176.505 195.548 174.805C192.688 173.515 190.488 171.995 192.648 168.365C193.278 167.305 192.108 166.675 191.488 165.985C192.238 163.815 194.248 163.985 195.948 163.505C200.948 162.165 205.228 156.565 205.328 151.405C205.428 146.015 203.638 144.575 197.408 145.095C196.935 145.02 196.489 144.824 196.114 144.526C195.739 144.228 195.448 143.839 195.268 143.395C195.985 142.247 196.389 140.931 196.44 139.579C196.491 138.226 196.187 136.883 195.558 135.685C194.581 135.243 193.767 134.508 193.229 133.581C192.691 132.654 192.456 131.582 192.558 130.515C192.688 117.875 192.608 105.225 192.628 92.5849C192.628 91.2949 192.208 89.5849 193.628 88.9449C195.628 88.0649 195.868 90.4249 196.718 91.4049C198.998 94.0449 200.948 96.9549 203.238 99.5749C204.448 101.095 205.218 103.325 207.748 103.015Z" fill="#E3AC22"/>
<path d="M190.618 210.885L200.718 210.995C200.823 211.281 200.862 211.587 200.83 211.891C200.799 212.194 200.699 212.486 200.538 212.745C199.854 213.461 199.346 214.326 199.053 215.272C198.76 216.217 198.689 217.218 198.848 218.195C199.588 224.055 198.798 224.835 192.788 224.845C172.988 224.845 153.181 224.845 133.368 224.845C129.718 224.385 125.868 225.905 122.368 223.725C125.018 210.305 120.638 211.505 136.168 211.105C154.328 210.645 172.478 210.925 190.618 210.885Z" fill="#F75512"/>
<path d="M157.648 176.935C160.168 171.995 162.378 171.845 165.568 176.395C168.758 180.945 168.218 189.995 164.308 194.705C160.608 199.165 152.168 201.165 146.958 198.755C145.789 198.299 144.732 197.597 143.858 196.697C142.985 195.796 142.316 194.717 141.898 193.535C141.008 190.635 144.898 189.665 144.738 186.975C145.588 186.495 146.278 186.925 146.968 187.385C151.648 190.485 156.628 187.885 156.908 182.105C156.998 180.345 156.308 178.505 157.648 176.935Z" fill="#D38C12"/>
<path d="M122.398 223.725C126.168 224.505 129.968 224.145 133.758 224.015C141.888 224.775 150.028 224.235 158.158 224.325C166.968 224.435 175.838 225.035 184.578 224.215C207.738 222.065 230.928 222.845 254.108 222.545C257.108 222.545 259.908 222.085 259.928 218.105C260.448 214.495 261.388 211.105 265.158 209.515C266.753 206.941 267.43 203.903 267.078 200.895C266.778 197.085 268.638 195.475 272.178 194.985C275.496 194.588 278.843 194.498 282.178 194.715C287.538 194.955 292.428 194.305 296.178 189.845C297.378 188.683 298.804 187.781 300.368 187.195C301.538 187.195 302.688 187.195 302.648 188.825C294.458 198.895 294.458 198.895 281.218 198.885H279.218C271.218 198.885 269.738 200.395 270.908 208.225C271.408 211.535 271.498 213.845 267.308 213.935C265.098 213.935 264.708 215.575 264.698 217.395C264.698 219.555 264.638 221.705 264.618 223.865C263.078 225.765 260.988 225.865 258.748 225.865C214.441 225.865 170.131 225.865 125.818 225.865C123.958 225.865 121.658 226.585 120.728 223.935L122.398 223.725Z" fill="#2A0E09"/>
<path d="M200.538 180.815C203.728 179.135 205.408 180.685 206.668 183.545C211.898 195.335 204.438 205.695 190.608 205.785C184.028 200.705 183.088 196.515 186.608 187.955C188.338 188.865 188.478 190.565 188.708 192.215C189.008 194.375 189.858 196.215 192.318 196.215C195.018 196.215 196.488 194.365 197.198 191.955C197.858 189.735 197.828 187.585 195.438 186.355C193.998 185.605 192.188 185.495 191.338 183.795C191.221 183.348 191.274 182.874 191.488 182.465C194.298 180.515 197.618 181.665 200.538 180.815Z" fill="#D67304"/>
<path d="M197.628 144.095C198.558 143.788 199.435 143.34 200.228 142.765C202.748 140.165 204.228 141.645 205.588 143.945C211.058 153.135 204.588 165.375 194.008 165.945L191.538 166.095C187.288 164.285 182.798 162.865 185.398 156.415C186.318 154.135 184.908 151.185 186.398 148.755C188.318 149.405 188.468 151.115 188.738 152.755C189.008 154.395 189.608 155.595 191.358 155.885C192.173 156.022 193.01 155.904 193.755 155.545C194.5 155.187 195.116 154.607 195.518 153.885C196.658 152.245 197.628 150.545 197.198 148.415C196.888 146.915 196.638 145.455 197.628 144.095Z" fill="#CF7505"/>
<path d="M157.648 176.935C159.828 180.935 159.988 184.775 156.648 188.405C151.978 193.525 148.088 193.095 144.648 186.975C144.648 184.595 144.648 182.212 144.648 179.825C145.238 175.775 147.348 173.825 151.598 174.725C153.858 174.925 155.718 176.025 157.648 176.935Z" fill="#F23C04"/>
<path d="M191.538 182.955C192.095 183.288 192.693 183.546 193.318 183.725C199.828 184.725 201.978 189.305 198.538 194.925C196.838 197.695 194.338 199.355 191.078 198.665C187.628 197.945 186.478 195.245 186.568 191.925C186.568 190.605 186.618 189.275 186.638 187.925L189.778 183.925C190.048 182.975 190.538 182.435 191.538 182.955Z" fill="#ED3106"/>
<path d="M197.628 144.095C200.278 148.005 200.248 151.815 197.188 155.525C195.238 157.885 193.038 159.095 189.798 158.095C186.558 157.095 186.508 154.795 186.528 152.205C186.528 151.045 186.448 149.885 186.388 148.725C186.468 148.095 186.548 147.465 186.618 146.835C187.618 141.765 190.848 140.365 195.618 142.915L197.628 144.095Z" fill="#E93808"/>
<path d="M195.618 142.945C193.918 142.867 192.222 143.18 190.662 143.859C189.102 144.539 187.718 145.567 186.618 146.865C185.108 147.265 183.428 148.595 182.118 146.865C180.808 145.135 181.428 143.435 182.248 141.735C185.008 135.955 190.088 135.395 195.588 135.735C197.188 137.015 200.158 137.185 200.068 139.825C199.988 142.345 197.618 142.655 195.618 142.945Z" fill="#FAEDBE"/>
<path d="M151.668 174.725C148.778 175.655 146.948 178.015 144.718 179.835C139.908 177.485 139.278 174.835 142.718 171.165C145.808 167.925 149.568 166.505 154.008 167.505C155.958 167.945 158.258 168.685 158.058 171.145C157.888 173.195 155.958 173.885 153.938 173.985C153.151 174.127 152.387 174.376 151.668 174.725Z" fill="#FAECB4"/>
<path d="M191.538 182.955L189.778 183.955C189.286 183.918 188.792 183.994 188.334 184.178C187.877 184.361 187.467 184.648 187.138 185.015C185.848 186.125 184.508 187.215 182.818 185.835C180.948 184.325 181.818 182.615 182.688 180.995C185.528 175.905 189.998 174.255 195.558 174.995L199.558 176.945C200.738 180.675 199.558 182.605 195.458 182.445C194.155 182.255 192.826 182.357 191.568 182.745L191.538 182.955Z" fill="#FAF2B4"/>
<path d="M302.588 188.825L300.868 187.915C300.393 187.977 299.91 187.933 299.454 187.788C298.998 187.643 298.579 187.4 298.228 187.075C297.942 186.401 297.485 185.813 296.903 185.369C296.321 184.926 295.633 184.642 294.908 184.545C293.008 184.065 290.728 183.155 291.578 180.545C292.318 178.295 294.378 178.955 296.258 179.145C300.978 179.625 305.918 180.665 309.598 176.235C310.128 175.595 310.648 174.955 311.208 174.355C313.588 171.765 312.698 170.135 309.568 169.675C305.695 168.937 301.775 168.476 297.838 168.295C291.948 168.295 286.008 169.005 280.138 167.815C277.618 165.415 278.958 163.275 280.728 161.365C283.998 157.835 288.388 157.105 292.928 156.725C300.728 156.075 308.428 157.605 316.198 157.815C323.288 158.015 328.118 154.815 332.368 149.895C332.945 148.711 333.821 147.698 334.908 146.955L335.658 146.745C338.088 150.115 334.988 152.815 334.558 155.835C329.908 158.655 325.918 162.455 320.918 164.745C320.464 164.937 320.058 165.223 319.725 165.585C319.392 165.948 319.14 166.377 318.988 166.845C317.888 177.465 308.068 181.525 302.588 188.825Z" fill="#261614"/>
<path d="M302.538 145.915C299.888 145.065 300.268 143.555 301.838 142.055C303.578 140.405 305.218 138.575 307.628 137.825C308.628 136.195 310.178 135.825 311.908 135.825C313.902 135.631 315.91 135.614 317.908 135.775C326.108 136.915 332.008 133.425 336.498 126.885C336.751 126.572 337.071 126.32 337.434 126.147C337.798 125.974 338.195 125.885 338.598 125.885L339.718 123.975C341.598 126.855 338.948 128.905 338.238 131.245C337.728 132.895 336.358 134.305 335.298 135.765C330.588 142.305 330.578 142.295 335.748 146.765L335.648 146.905C333.648 148.745 331.098 148.735 328.648 148.845C321.226 149.072 313.799 148.738 306.428 147.845C304.945 147.676 303.569 146.993 302.538 145.915Z" fill="#221610"/>
<path d="M101.278 166.805C100.278 169.305 98.0976 168.805 96.2076 168.805C87.6276 169.165 79.0576 169.525 70.4776 169.805C68.4776 169.865 66.9076 170.285 65.7576 171.935C64.441 170.985 63.5221 169.582 63.1776 167.995C75.9576 166.795 88.6376 167.205 101.278 166.805Z" fill="#F5AF4D"/>
<path d="M277.538 250.755C275.958 249.055 274.538 248.935 273.118 251.015C271.772 252.9 270.857 255.057 270.438 257.335C269.748 261.445 267.898 264.795 262.768 264.915C227.048 265.722 191.318 266.028 155.578 265.835C159.318 263.665 164.238 266.085 167.668 262.725C167.758 262.595 167.818 262.375 167.938 262.335C172.418 260.865 174.138 257.465 174.438 253.065C176.128 246.995 177.718 245.815 184.658 245.855C189.178 245.855 193.978 244.855 197.588 248.855C197.937 249.385 198.095 250.019 198.037 250.651C197.979 251.283 197.708 251.877 197.268 252.335C196.268 253.605 196.888 254.265 198.078 254.765C198.821 255.417 199.35 256.278 199.598 257.235C200.098 258.975 200.978 260.295 203.038 259.785C205.368 259.215 204.688 257.375 204.508 255.785C204.408 254.985 204.138 254.205 204.068 253.395C203.868 251.935 203.218 251.095 201.558 251.145C200.747 251.164 199.946 250.961 199.242 250.56C198.537 250.158 197.955 249.572 197.558 248.865C199.128 243.225 204.338 243.655 208.358 243.065C213.058 242.365 217.918 243.155 222.728 243.635C230.788 244.425 238.848 242.185 246.988 242.805C250.138 243.045 253.288 242.915 256.378 243.745C260.061 244.736 263.95 244.652 267.588 243.505C275.668 241.185 277.648 242.875 277.538 250.755Z" fill="#EBA720"/>
<path d="M117.918 251.745C120.808 251.875 123.468 253.145 123.388 256.575C123.308 260.195 120.338 261.575 117.138 261.655C113.208 261.775 112.818 258.655 112.628 255.785C112.398 252.225 115.018 251.935 117.918 251.745Z" fill="#DD6E04"/>
<path d="M145.008 261.965C141.888 262.035 139.828 260.725 139.718 257.425C139.628 254.585 141.208 252.145 143.938 252.425C146.668 252.705 150.828 252.035 150.588 257.075C150.418 260.665 148.248 261.875 145.008 261.965Z" fill="#E57211"/>
<path d="M174.478 253.095C178.048 260.355 176.318 262.815 167.708 262.755C164.378 254.535 165.888 252.375 174.478 253.095Z" fill="#E86C0E"/>
<path d="M338.538 125.845L337.458 127.095C334.798 129.095 332.158 129.905 329.608 126.915C320.448 126.915 311.298 126.915 302.138 126.785C298.138 126.705 295.738 129.525 293.018 131.435C287.583 135.336 280.99 137.285 274.308 136.965C263.308 136.655 252.308 136.865 241.308 136.845C232.628 136.845 232.008 136.365 228.518 127.705C231.038 131.295 234.438 132.195 238.788 132.085C251.598 131.775 264.418 131.835 277.228 131.955C283.398 132.015 288.768 130.275 292.998 125.795C295.148 123.515 297.538 122.945 300.538 122.985C311.178 123.125 321.838 122.985 332.538 123.105C334.768 123.095 337.798 122.145 338.538 125.845Z" fill="#F4D457"/>
<path d="M334.368 149.955C330.368 156.355 325.368 160.555 317.028 159.895C308.938 159.245 300.778 159.365 292.648 159.215C290.654 159.094 288.657 159.368 286.769 160.02C284.882 160.672 283.141 161.69 281.648 163.015C280.458 164.105 278.798 165.205 280.838 167.015C290.838 167.475 300.938 167.575 310.968 168.385C312.228 168.485 313.768 167.805 314.668 169.105C315.798 170.755 314.118 171.855 313.438 173.015C309.868 179.015 303.808 179.465 297.808 179.255C294.534 179.028 291.246 179.366 288.088 180.255C285.748 180.185 283.408 179.945 281.088 179.855C277.698 179.345 274.398 178.375 270.918 180.075C268.738 181.145 266.338 180.435 264.548 178.595C262.758 176.755 263.208 174.675 264.098 172.595C266.078 167.852 269.272 163.713 273.358 160.595C275.509 159.061 277.578 157.415 279.558 155.665C285.068 152.095 291.308 150.805 297.648 149.835C307.648 146.185 317.868 149.745 327.958 148.925C330.038 148.765 332.538 147.515 334.368 149.955Z" fill="#E23C05"/>
<path d="M279.538 155.675C276.778 160.485 271.128 162.575 268.458 167.485C267.918 168.485 266.848 169.265 266.458 170.305C265.698 172.555 263.818 175.185 265.618 177.225C267.418 179.265 270.208 178.875 272.908 177.535C274.085 176.907 275.41 176.609 276.742 176.672C278.075 176.736 279.365 177.158 280.478 177.895C279.798 179.425 278.338 179.695 276.938 180.095C273.618 181.045 271.648 183.095 271.848 186.715C273.478 190.615 273.998 194.145 269.148 196.265C267.608 196.935 268.148 198.565 268.078 199.845C267.918 203.755 268.548 207.715 267.288 211.545C262.058 210.755 262.608 214.545 262.468 217.705C256.158 212.885 248.788 214.155 241.658 214.115C230.188 214.055 218.718 214.185 207.248 214.035C204.848 214.035 202.128 214.505 200.538 211.825C200.567 211.545 200.617 211.268 200.688 210.995C217.838 210.995 234.978 210.795 252.128 210.905C255.948 210.905 257.188 210.215 256.788 205.905C255.528 192.185 257.278 178.995 265.538 167.325C269.06 162.243 273.9 158.215 279.538 155.675Z" fill="#CB5804"/>
<path d="M237.538 175.985C243.298 172.135 246.848 173.985 247.538 181.145C248.538 190.915 241.598 198.925 232.318 198.875C229.268 198.875 226.998 197.585 224.758 195.635C222.058 193.265 223.258 191.145 224.308 188.575C225.358 186.005 223.908 183.245 225.368 180.785C227.268 181.475 227.288 183.225 227.698 184.785C228.698 188.655 231.698 189.575 234.568 186.785C236.368 185.015 237.678 182.865 236.968 180.105C236.648 178.675 236.228 177.225 237.538 175.985Z" fill="#D47006"/>
<path d="M329.608 126.925L337.458 127.105C334.968 134.245 330.208 137.775 322.858 137.835C317.768 137.835 312.668 137.835 307.578 137.835C304.488 136.525 302.958 134.355 303.698 130.835C304.508 127.015 307.578 128.075 310.048 127.835C316.538 127.355 323.168 128.955 329.608 126.925Z" fill="#DF8B11"/>
<path d="M237.538 175.985C239.718 179.855 240.538 183.615 237.288 187.445C235.038 190.125 232.288 191.445 228.968 190.585C225.318 189.705 225.588 186.585 225.568 183.755C225.568 182.755 225.458 181.755 225.408 180.755C225.408 180.105 225.488 179.465 225.538 178.825C225.818 174.825 227.718 173.295 231.638 174.705C233.638 175.095 235.758 174.725 237.538 175.985Z" fill="#E83309"/>
<path d="M231.648 174.735C229.247 175.466 227.122 176.901 225.548 178.855C221.808 179.335 220.038 177.235 221.348 173.855C223.348 168.565 229.978 165.655 235.498 167.635C237.238 168.255 239.328 168.965 239.118 171.145C238.908 173.325 236.958 173.875 234.968 173.925C233.808 173.955 232.608 173.895 231.648 174.735Z" fill="#FAEFC0"/>
<path d="M334.368 149.955C322.118 152.265 309.878 149.095 297.618 149.845C299.138 148.395 302.418 149.155 302.488 145.915L335.558 146.915C335.579 147.476 335.485 148.036 335.28 148.559C335.075 149.082 334.765 149.557 334.368 149.955Z" fill="#F28531"/>
<path d="M191.588 182.675C194.458 181.025 200.058 183.135 199.588 176.875C200.978 177.925 200.588 179.425 200.588 180.815C198.398 185.385 194.538 181.715 191.588 182.675Z" fill="#F2C042"/>
<path d="M200.538 211.825C218.348 211.825 236.158 212.035 253.958 211.745C258.748 211.665 261.958 212.375 262.468 217.745C263.128 224.555 263.128 224.575 256.668 224.575C218.314 224.575 179.981 224.575 141.668 224.575C139.038 224.575 136.358 224.945 133.778 224.035L192.258 223.875C197.698 223.875 198.458 222.675 196.368 217.705C193.968 212.025 193.968 212.025 200.538 211.825Z" fill="#E42502"/>
<path d="M267.318 211.545L262.898 209.965C267.638 210.155 267.588 207.695 267.608 205.145C267.608 200.955 266.898 196.685 270.488 193.145C272.558 191.145 270.488 188.895 269.618 186.855C270.074 186.264 270.648 185.775 271.304 185.418C271.96 185.062 272.684 184.846 273.428 184.785C281.201 184.347 288.995 184.423 296.758 185.015C297.584 185.146 298.329 185.59 298.838 186.255C299.628 186.655 300.608 186.825 300.838 187.885C295.028 198.305 285.088 196.935 275.528 196.835C268.588 196.765 268.528 196.835 268.698 203.835C268.698 205.955 268.938 208.085 269.128 210.205C269.298 211.835 268.388 211.765 267.318 211.545Z" fill="#D2770E"/>
<path d="M298.838 186.285L269.618 186.885C269.738 180.495 271.958 178.665 280.508 177.885L287.508 177.975C295.168 179.105 302.778 177.975 310.398 177.435C307.258 182.585 302.118 180.715 297.608 181.065C295.958 181.195 294.308 179.415 292.388 181.165C294.178 183.335 296.618 182.635 298.738 182.965C299.738 183.125 300.848 183.415 300.908 184.585C300.968 185.755 299.618 185.805 298.838 186.285Z" fill="#2A0E09"/>
<path d="M310.428 177.435C302.858 179.915 295.188 178.615 287.538 177.975C293.628 177.575 299.778 178.265 305.838 176.905C307.313 176.738 308.736 176.264 310.018 175.515C311.948 174.135 314.168 172.195 313.668 170.045C313.168 167.895 310.218 169.045 308.358 168.905C299.178 168.335 289.958 168.305 280.828 167.005C291.398 166.615 301.948 167.165 312.498 167.715C313.758 167.785 315.378 167.375 316.098 168.715C316.948 170.305 315.578 171.515 314.698 172.625C313.378 174.315 311.868 175.845 310.428 177.435Z" fill="#CB5804"/>
<path d="M267.658 254.765C267.568 259.575 266.328 261.765 262.658 261.825C259.238 261.905 257.078 260.005 256.968 256.895C256.838 253.185 259.738 252.035 263.028 251.895C266.158 251.745 267.748 253.155 267.658 254.765Z" fill="#E06507"/>
<path d="M205.588 252.815C206.658 256.015 209.888 259.615 204.588 261.935C199.958 263.935 197.588 261.425 197.588 254.855C199.128 250.635 201.038 250.145 205.588 252.815Z" fill="#DD6709"/>
<path d="M238.538 252.945C240.648 259.305 239.388 261.545 233.398 261.505C227.408 261.465 230.258 256.815 229.718 253.955C231.728 249.995 234.888 249.635 238.538 252.945Z" fill="#DA630A"/>
<path d="M205.588 252.815C202.918 253.475 199.588 251.405 197.588 254.815C196.138 255.425 197.318 258.985 194.768 257.815C192.868 256.955 194.038 254.815 194.768 253.415C195.588 251.805 196.678 250.325 197.648 248.785C200.328 250.095 205.118 247.095 205.588 252.815Z" fill="#F4BB36"/>
<path d="M238.538 252.945C235.538 252.795 232.338 250.795 229.718 253.945L227.328 257.705C226.068 254.245 226.238 250.805 228.818 249.895C231.918 248.795 235.928 248.185 238.908 251.195C239.128 251.435 238.668 252.355 238.538 252.945Z" fill="#F9CD50"/>
</svg>
