<svg width="378" height="382" viewBox="0 0 378 382" fill="none" xmlns="http://www.w3.org/2000/svg">
<path d="M132.727 381.11C101.007 381.11 69.2904 381.11 37.5771 381.11C32.9271 381.11 28.2971 381.11 23.7271 380.11C19.8271 377.3 15.1971 375.65 11.6171 372.34C6.42737 367.77 3.23579 361.347 2.72705 354.45C2.54705 352.32 2.08705 350.2 1.72705 348.08C1.90453 347.902 2.11711 347.763 2.35126 347.672C2.5854 347.581 2.83597 347.539 3.08704 347.55C3.58256 347.646 4.0448 347.869 4.42862 348.197C4.81244 348.524 5.10474 348.946 5.27704 349.42C11.537 358.27 19.3671 364.71 30.6671 365.77C34.6671 365.98 38.6671 365.77 42.6671 365.77C140.714 365.77 238.76 365.77 336.807 365.77C344.337 365.77 351.807 365.22 358.807 362.47C365.807 359.72 368.177 352.95 372.127 347.54C372.667 346.41 373.227 345.29 374.657 345.07C375.207 343.72 375.757 342.36 376.317 341.01C377.525 345.57 377.693 350.343 376.808 354.977C375.924 359.61 374.009 363.986 371.207 367.78C364.207 376.97 354.987 381.16 343.207 381.13C273.107 380.98 202.907 381.1 132.727 381.11Z" fill="#2D3B46"/>
<path d="M374.727 345.1L373.557 348.1C372.557 349.8 371.007 349.55 370.557 348.17C368.907 342.63 363.717 339.43 361.657 334.17C361.037 325.02 361.387 315.86 361.367 306.71C361.32 279.904 361.32 253.1 361.367 226.3C361.367 222.69 360.867 218.95 363.477 215.69C359.477 214.69 355.687 216.11 352.287 214.23C348.227 210 348.747 205.31 350.907 200.46C354.907 197.19 359.687 198.37 363.907 198.07C363.205 198.071 362.504 198.031 361.807 197.95C358.447 197.24 355.107 196.3 351.617 197.01C350.479 196.945 349.407 196.452 348.617 195.63C348.347 191.08 350.617 187.14 351.707 182.91C353.637 180.54 356.277 181.91 358.617 181.58C360.617 181.33 362.797 182.24 364.617 180.92C361.367 180.12 358.197 180.75 355.007 180.99C348.737 179.07 348.747 179.07 350.007 172.82C350.277 171.51 350.307 170.17 350.507 168.82C351.027 165.34 352.977 163.57 356.587 163.55C359.448 163.747 362.322 163.569 365.137 163.02C362.302 162.529 359.418 162.382 356.547 162.58C352.987 162.66 350.847 161.34 350.487 157.58C350.037 152.9 351.367 150.21 354.857 149.17C361.277 147.25 361.307 147.25 361.307 140.56C361.307 111.76 361.307 82.967 361.307 54.1804C361.307 53.1804 361.307 52.1804 361.307 51.1804C361.227 48.4104 360.417 47.2804 357.807 49.4604C355.517 51.3804 353.147 53.2004 350.947 55.2404C348.747 57.2804 346.117 58.8804 342.837 57.3304C341.167 56.5904 341.027 54.7604 340.057 53.5204C338.616 52.0709 337.691 50.1873 337.427 48.1603C337.597 41.9503 341.947 36.7304 347.747 36.9904C351.747 37.1604 353.497 35.0803 354.997 32.2903C356.767 29.0103 355.687 25.8704 353.807 22.9604C353.305 22.2972 352.713 21.7081 352.047 21.2104C347.137 16.8704 347.617 13.8104 353.767 11.2804C356.522 10.1526 359.398 9.34395 362.337 8.87036C366.167 9.38036 367.897 12.3403 369.917 15.1303C370.917 16.5503 370.847 19.1903 373.557 19.1303C375.557 23.7503 374.747 28.6404 374.747 33.4004C374.807 97.5137 374.807 161.62 374.747 225.72C374.794 265.507 374.787 305.3 374.727 345.1Z" fill="#A1B2BB"/>
<path d="M14.607 4.91034C19.667 0.760343 25.607 -0.0196299 31.927 0.000370138C73.367 0.12037 114.814 0.183675 156.267 0.190342C218.7 0.190342 281.124 0.133692 343.537 0.0203592C350.271 -0.139598 356.904 1.68629 362.607 5.27036C363.707 7.08036 363.267 8.34035 361.257 9.04035C360.546 9.2923 359.791 9.39395 359.038 9.33887C358.286 9.28379 357.554 9.07319 356.887 8.72037C350.957 5.42037 344.487 5.35037 337.947 5.37037C320.297 5.44037 302.617 4.88036 284.947 5.49036C227.677 7.49036 170.387 6.29035 113.117 6.17035C87.497 6.11035 61.867 5.43034 36.227 5.38034C32.2421 5.2762 28.2602 5.67945 24.377 6.58036C22.297 7.11036 20.727 9.18034 18.277 8.66034C16.087 8.34034 13.647 8.31034 14.607 4.91034Z" fill="#F3F7F8"/>
<path d="M3.90699 350C3.65699 349.28 3.82699 348.33 2.84699 348C0.90699 343.85 0.18699 339.58 1.59699 335.1V231.1C1.65699 218.45 1.74699 205.8 1.75699 193.15C1.75699 151.15 1.75699 109.15 1.75699 67.1504C1.75699 65.1504 1.65699 63.1504 1.59699 61.1504C1.66699 50.5504 1.71698 39.9404 1.83698 29.3404C1.83698 26.8804 1.537 24.3404 2.637 22.0004C5.017 23.6904 4.187 26.2303 4.197 28.4503C4.237 65.2503 4.237 102.047 4.197 138.84C4.197 202.014 4.197 265.18 4.197 328.34C4.197 330.9 3.41698 333.77 6.30698 335.51C8.02698 337.57 7.75698 340.12 8.05698 342.51C7.59698 344.35 8.90699 346.08 8.50699 347.9C7.94699 350.58 6.87699 352.47 3.90699 350Z" fill="#C0CDD2"/>
<path d="M2.82718 139.07C2.82718 101.857 2.8005 64.6504 2.74716 27.4504C2.74716 25.6304 2.65719 23.8004 2.61719 21.9804C4.29719 14.6704 8.11719 8.8504 14.6172 4.9104C15.1272 7.1604 16.9172 7.05041 18.6172 7.08041C19.5272 9.52041 17.3072 10.2304 16.0972 11.3204C13.5236 13.5404 11.4412 16.2727 9.98285 19.3427C8.52448 22.4126 7.72217 25.753 7.62717 29.1504C6.53536 34.1879 6.04861 39.3376 6.17719 44.4904C6.23719 74.0571 6.21719 103.624 6.11719 133.19C6.10719 135.41 7.82718 139.34 2.82718 139.07Z" fill="#DDE6EA"/>
<path d="M361.727 8.09039C362.084 7.72047 362.353 7.27482 362.514 6.78659C362.675 6.29836 362.724 5.78011 362.657 5.27039C368.867 7.88039 371.457 13.3704 373.657 19.1304C373.557 20.4204 373.467 21.7004 373.237 24.5904C369.427 18.8504 367.667 13.1604 362.707 10.0504C362.017 9.58038 360.947 9.30039 361.727 8.09039Z" fill="#D5DDE1"/>
<path d="M1.59707 335.1L2.84707 348L1.75707 348.08C1.08707 343.76 -1.74293 339.47 1.59707 335.1Z" fill="#3E4851"/>
<path d="M352.857 212.88C357.517 212.88 362.187 212.88 366.857 212.97C368.267 212.97 370.187 212.64 370.397 214.76C370.607 216.88 368.817 217.05 367.307 217.05C362.647 217.05 363.667 220.5 363.667 223.13C363.627 260.464 363.627 297.774 363.667 335.06C363.417 337.75 361.667 338.48 359.287 338.56C356.717 338.64 354.097 338.08 351.587 339.09C348.247 340.62 342.927 340.2 344.517 346.46C346.087 351.22 347.627 351.98 352.027 350.12C352.887 349.62 353.839 349.3 354.827 349.18C358.407 350 360.687 352.72 363.107 355.12C366.367 358.36 363.537 360.67 361.507 363.01C355.997 367.74 349.207 367.71 342.597 367.74C309.144 367.934 275.687 368.017 242.227 367.99C174.82 367.99 107.407 367.947 39.9869 367.86C36.1969 367.86 32.3369 368.46 28.6069 367.15C28.6069 360.55 32.3469 356.06 37.1569 352.33C38.8655 351.057 40.3291 349.485 41.4769 347.69C45.5469 344.75 48.9769 340.69 54.4769 340.17C58.8969 342.45 63.5969 342.86 68.4769 342.86C147.71 342.794 226.94 342.817 306.167 342.93C314.407 342.93 320.577 340.59 325.437 333.93C328.437 329.78 332.507 326.43 336.217 322.85C337.581 321.63 338.663 320.125 339.385 318.443C340.107 316.76 340.452 314.94 340.397 313.11C340.297 305.32 341.397 297.55 340.737 289.71C340.137 282.09 340.987 274.43 341.127 266.78C341.407 251.15 340.267 235.52 340.657 219.88C340.707 217.75 340.267 215.52 341.657 213.59C345.187 209.73 348.997 210.89 352.857 212.88Z" fill="#8094A2"/>
<path d="M42.647 349.03C40.867 351.03 39.427 353.56 37.247 354.82C32.317 357.66 32.507 363.82 28.587 367.15C16.767 366.61 9.58698 359.37 3.90698 350C5.59698 350.36 6.95698 350.19 6.65698 348C6.43698 346.39 6.07698 344.79 5.77698 343.18C8.40698 341.05 11.687 340.29 14.777 339.47C19.157 338.32 21.517 340.18 23.827 345.66C28.507 351.88 28.927 351.96 36.607 347.86C38.577 348.5 40.977 346.98 42.647 349.03Z" fill="#9FAFB7"/>
<path d="M361.487 363.01C361.237 360.69 365.367 358.36 361.487 356.01C358.979 354.41 356.752 352.407 354.897 350.08C352.697 348.25 356.047 345.48 353.797 343.65C352.697 341.91 351.327 340.26 351.677 337.98C350.737 336.83 350.027 336.38 352.477 336.31C356.207 336.2 360.257 338 363.667 335.02C367.157 338.71 371.917 341.54 371.937 347.57C371.937 348.26 372.937 348.18 373.587 348.03C371.552 354.352 367.24 359.692 361.487 363.01Z" fill="#92A4AD"/>
<path d="M361.727 8.09033L362.727 10.0903C360.057 12.9303 355.927 12.0903 352.827 14.0103C350.067 15.7403 348.827 16.4603 352.527 18.9103C354.159 19.9422 355.499 21.3759 356.419 23.0741C357.338 24.7722 357.806 26.6779 357.778 28.6088C357.75 30.5396 357.226 32.4309 356.258 34.1016C355.29 35.7723 353.909 37.1663 352.247 38.1503C349.887 39.6103 347.097 39.2803 344.477 40.4603C340.477 42.2703 338.957 44.2603 338.767 48.1303C336.547 49.3403 335.447 47.4803 334.167 46.3603C330.937 43.5403 328.227 40.1803 324.847 37.5003C323.571 35.8433 321.911 34.522 320.01 33.6508C318.109 32.7796 316.025 32.3847 313.937 32.5003H312.937C229.797 32.4537 146.66 32.437 63.527 32.4503C61.1177 32.3949 58.7243 32.8541 56.5066 33.7974C54.2889 34.7407 52.2981 36.1463 50.667 37.9203C46.607 42.0603 42.957 46.7303 37.667 49.5103C36.727 49.8803 35.337 50.2303 34.887 49.4403C31.487 43.5703 24.647 41.2403 21.007 35.5403C16.537 28.5403 20.877 17.5403 29.447 16.2303C25.257 13.4803 21.167 10.9003 22.647 5.23032C25.487 3.54032 28.647 3.40033 31.817 3.40033C52.647 3.40033 73.487 3.01032 94.307 3.51032C152.307 4.91032 210.247 4.11032 268.217 3.95032C289.527 3.89032 310.847 3.50032 332.157 3.42032C342.237 3.24032 352.557 2.04033 361.727 8.09033Z" fill="#B6C5CE"/>
<path d="M343.537 213.81C342.537 216.03 342.967 218.4 342.967 220.69C342.967 251.32 342.857 281.95 343.047 312.58C343.175 314.802 342.807 317.024 341.97 319.086C341.133 321.147 339.847 322.997 338.207 324.5C332.787 329.67 327.607 335.08 322.417 340.5C321.086 341.974 319.45 343.141 317.623 343.919C315.796 344.698 313.822 345.07 311.837 345.01C229.43 344.93 147.024 344.93 64.6171 345.01C60.0071 345.01 56.1371 344.08 52.8871 340.81C48.2571 339.81 45.8871 337 44.9771 331.73C46.8471 329.05 48.7671 326.36 51.4171 324.44C53.2371 323.12 55.467 323.33 57.557 324.21C61.267 327.21 65.5571 327.84 70.2071 327.84C146.967 327.78 223.737 327.67 300.507 327.98C308.607 327.98 313.387 323.65 318.667 319.19C321.077 317.19 323.147 314.73 325.617 312.74C328.617 310.31 328.367 306.86 328.377 303.54C328.417 276.56 328.417 249.584 328.377 222.61C328.377 220.28 328.377 217.95 328.497 215.61C328.597 213.92 328.737 212.26 330.247 211.13C333.577 210.73 333.587 213.32 333.677 215.34C334.277 227.79 336.497 240.12 335.947 252.67C335.247 268.67 337.227 284.67 336.677 300.46C337.677 297.46 336.587 294.12 336.607 290.81C336.677 282.33 336.607 273.81 337.317 265.38C338.187 254.89 335.947 244.46 336.387 233.97C337.667 204.02 337.647 174.05 337.247 144.1C337.047 128.67 336.057 113.21 336.667 97.8004C337.207 84.3304 337.057 70.8503 337.557 57.3904C337.647 54.8304 338.137 52.3104 341.557 52.1104C342.457 53.2504 343.327 54.4004 343.087 55.9904C344.365 58.1281 344.994 60.5915 344.897 63.0804C344.897 77.6304 345.097 92.1704 344.747 106.71C342.612 115.807 342.612 125.274 344.747 134.37C344.817 151.01 345.457 167.66 344.357 184.29C344.11 189.107 344.244 193.935 344.757 198.73C344.487 203.78 345.727 208.94 343.537 213.81Z" fill="#0B1822"/>
<path d="M342.727 107.1C343.087 91.5403 343.217 75.9803 342.787 60.4203C342.825 58.9484 342.941 57.4796 343.137 56.0203C346.077 57.2203 347.817 55.1103 349.657 53.5403C353.057 50.6403 356.347 47.5403 359.657 44.6103C360.487 43.8903 361.167 42.5403 362.527 43.1703C363.887 43.8003 363.577 45.1703 363.587 46.2803C363.587 79.8603 363.587 113.44 363.677 147.03C363.677 151.43 360.907 151.41 358.017 151.1C353.367 150.58 352.327 152.84 352.527 156.97C352.677 159.97 353.737 161.17 356.717 161.03C359.538 160.857 362.368 160.874 365.187 161.08C367.067 161.24 370.387 159.88 370.247 163.19C370.117 166.19 366.867 164.98 364.917 165.19C362.431 165.375 359.936 165.395 357.447 165.25C354.097 165.09 352.447 166.45 352.637 169.9C352.807 172.6 352.417 175.17 350.317 177.42L355.837 179.23C360.253 180.62 364.987 180.644 369.417 179.3C370.497 182.42 370.257 182.95 366.747 183.11C362.107 183.31 357.457 183.22 352.817 183.25C352.247 183.6 351.817 184.18 351.267 184.47C344.437 187.88 344.167 188.99 348.767 195.09L351.667 195.19C355.317 196.32 359.127 195.04 362.787 195.92C363.785 195.837 364.789 195.837 365.787 195.92C367.397 196.18 370.027 194.98 370.257 197.55C370.497 200.34 367.837 200.4 365.947 200.15C361.557 199.57 357.237 201.67 352.877 200.28C349.527 201.71 346.067 204.28 343.367 199.28C343.227 183.354 343.084 167.43 342.937 151.51C342.937 145.71 342.807 139.9 342.747 134.09C341.872 125.115 341.865 116.077 342.727 107.1Z" fill="#7F919B"/>
<path d="M341.557 52.1404C339.887 53.8204 339.697 55.9304 339.637 58.1404C339.297 70.4304 339.637 82.7204 338.997 95.0304C338.617 102.47 338.997 110.19 339.287 117.76C340.097 143.15 339.427 168.59 339.737 194.01C339.867 204.84 338.857 215.59 338.567 226.39C338.227 238.89 339.957 251.29 339.687 263.77C339.507 272.08 337.957 280.33 338.687 288.66C339.127 293.94 339.777 299.18 338.687 304.48C338.297 306.42 338.367 308.48 336.687 310.48C335.186 307.755 334.466 304.668 334.607 301.56C334.887 280.76 333.257 260.01 333.417 239.2C333.497 229.84 331.627 220.48 330.647 211.11C327.817 209.36 328.427 206.45 328.397 203.89C328.257 189.58 328.307 175.26 328.337 160.94C328.417 127.47 328.117 94.0103 328.497 60.5403C328.506 59.7146 328.429 58.8901 328.267 58.0804C328.137 57.5504 328.047 57.0004 327.967 56.4604C327.894 54.9453 328.398 53.459 329.377 52.3004C332.717 48.7104 331.447 46.0804 328.307 43.1404C325.487 40.5104 325.667 39.9304 327.307 37.2504L338.727 48.0904C339.527 49.5804 341.547 50.1404 341.557 52.1404Z" fill="#10212C"/>
<path d="M343.307 199.3C346.307 200.89 349.667 199.7 352.817 200.3C351.915 202.28 351.449 204.43 351.449 206.605C351.449 208.781 351.915 210.931 352.817 212.91C349.747 213.53 346.487 212.34 343.507 213.84C342.477 208.99 342.967 204.14 343.307 199.3Z" fill="#859AA5"/>
<path d="M348.727 195.05C342.587 195.97 343.907 191.57 343.627 188.05C343.297 184.05 345.027 182.62 348.817 183.05C350.127 183.2 351.457 183.14 352.817 183.17C352.187 187.41 353.527 192.27 348.727 195.05Z" fill="#859AA5"/>
<path d="M369.407 179.26C366.157 181.88 360.257 181.85 355.827 179.19L369.407 179.26Z" fill="#10212C"/>
<path d="M362.777 195.88C359.057 195.81 355.267 196.83 351.657 195.15C355.367 195.43 359.147 194.58 362.777 195.88Z" fill="#859AA5"/>
<path d="M22.627 5.09033C24.177 10.9903 30.387 13.0903 33.187 17.9503C33.4624 18.5287 33.7028 19.1231 33.907 19.7303C32.337 19.4303 31.077 19.2103 29.827 18.9403C25.707 18.0303 25.717 18.0303 24.637 22.1703C24.567 22.4603 24.217 22.6603 24.057 22.9403C19.467 30.8803 20.337 30.5803 26.367 37.6803C28.4144 40.1856 31.1774 42.0067 34.287 42.9003C37.117 43.9003 33.677 47.3303 35.677 49.1203C35.9305 49.4554 36.1 49.8464 36.1713 50.2605C36.2427 50.6746 36.2137 51.0997 36.087 51.5003C32.787 58.4503 34.087 65.8503 34.007 73.0803C33.877 99.8203 34.007 126.56 33.867 153.29C33.867 156.08 35.217 159.9 30.697 161.03C28.127 159.3 28.057 156.52 29.017 154.33C30.367 151.23 30.187 148.17 30.187 145.05C30.187 117.917 30.187 90.7837 30.187 63.6503C30.0707 62.3596 30.0707 61.061 30.187 59.7703C30.187 88.3803 30.187 117.7 30.187 147.02C30.187 153.07 30.187 153.07 24.387 153.92C20.0771 154.501 15.714 154.575 11.387 154.14C6.47699 153.7 4.747 151.85 4.177 147.06C6.307 108.06 4.617 69.0603 5.177 30.0603C5.054 29.067 5.19899 28.0588 5.59698 27.1403C6.29698 18.1403 10.857 11.5503 18.597 7.05032L22.627 5.09033Z" fill="#B2BEC4"/>
<path d="M45.5072 332.34L52.8872 340.83C50.5372 344.89 46.0872 346.33 42.6472 349.03C40.6472 349.47 38.6472 350.44 36.6472 349.03C35.5372 347.88 35.8772 346.11 34.8572 344.93C34.4886 343.845 33.9917 342.808 33.3772 341.84C30.9572 338.72 27.8272 339.04 26.1272 342.61C25.5672 343.77 25.5072 345.16 24.5872 346.19C24.3436 346.463 24.0443 346.68 23.7096 346.826C23.3749 346.973 23.0126 347.046 22.6472 347.04C19.5772 340.04 18.7872 339.74 11.5272 343.12C9.44717 344.12 7.66719 343.4 5.73719 343.12L5.58717 336C3.37717 334.2 4.20719 331.69 4.20719 329.48C4.16053 293.48 4.16053 257.46 4.20719 221.42C4.20719 218.21 2.66717 214.8 4.93717 211.73C7.32717 209.83 9.63718 209.9 11.8472 212.04C12.5472 214.04 13.9072 214.71 16.0472 214.62C20.0472 214.45 24.0472 214.82 27.9972 214.48C31.9472 214.14 33.3972 216.18 33.7072 219.65C33.9072 221.97 33.8572 224.3 33.8572 226.65C33.8572 254.22 33.9672 281.79 33.7772 309.36C33.7772 315.14 35.4772 319.62 39.6672 323.48C42.3572 325.88 45.5172 328.13 45.5072 332.34Z" fill="#B1BEC5"/>
<path d="M5.80709 212.1C4.37709 215.2 5.7371 218.33 5.7271 221.44C5.6271 259.627 5.59376 297.817 5.62709 336.01L3.90709 338.34C2.31709 337.28 2.80709 335.82 2.80709 334.6C2.80709 269.434 2.80709 204.257 2.80709 139.07C5.80709 137.72 4.63711 135.07 4.64711 132.91C4.71378 99.7637 4.73709 66.6171 4.71709 33.4704C4.71709 31.3504 4.21709 29.1104 5.62709 27.1704C5.62709 67.1704 5.62709 107.134 5.62709 147.06C4.92709 148.45 4.6771 150.16 5.6971 151.17C8.5771 154.05 7.7971 157.37 7.3871 160.72C7.1971 162.03 7.1871 163.36 7.0971 164.72C5.8971 167.99 8.25709 170.96 7.87709 174.23C7.65709 176.14 8.01711 178.12 6.92711 179.88C4.85711 185.25 5.9871 190.67 6.6371 196.09C4.4571 201.3 6.72709 206.79 5.80709 212.1Z" fill="#DAE3E9"/>
<path d="M351.657 338.02C353.717 339.14 354.407 341.32 355.577 343.13C355.987 347.13 354.167 350.13 350.407 351.13C347.047 352 343.757 351.3 342.407 347.28C341.157 339.72 343.417 337.46 351.657 338.02Z" fill="#273B44"/>
<path d="M342.417 347.24C348.337 352.38 352.417 351.09 355.577 343.13C357.997 345.73 355.397 347.82 354.877 350.13C349.967 353.47 346.377 353.48 343.027 350.13C342.227 349.32 341.237 348.49 342.417 347.24Z" fill="#CEDEE5"/>
<path d="M22.7271 347.07L23.7271 346.07C28.2271 348.34 32.297 345.57 36.557 344.97C38.237 346.28 37.2971 347.68 36.7071 349.07C30.1971 354.22 28.0571 353.92 22.7271 347.07Z" fill="#DCE8ED"/>
<path d="M45.5071 332.34C44.8671 331.83 44.2371 331.34 43.5871 330.8C33.8271 323.36 30.6971 313.74 31.0971 301.37C31.9671 274.49 31.3071 247.56 31.4571 220.65C31.4571 216.85 30.7371 215.36 26.5271 215.76C21.2571 216.27 15.8971 215.94 10.5871 215.87C9.38709 215.87 7.36711 216.53 7.20711 214.87C7.01711 212.87 9.13711 213.81 10.2071 213.51C10.6871 213.38 11.2071 213.3 11.6671 213.2C13.0671 210.81 15.4671 211.12 17.6671 210.93C21.0271 210.63 24.5071 211.57 27.6671 209.93C28.6756 209.027 29.3489 207.809 29.5776 206.475C29.8064 205.14 29.5771 203.768 28.9271 202.58C27.6071 199.97 24.9771 200.58 22.7871 200.63C18.5171 200.72 14.2571 200.55 9.98711 200.54C7.38711 200.54 5.3171 199.83 6.0671 196.49C6.26941 195.998 6.5886 195.562 6.99709 195.22C10.9971 193.96 15.1271 194.7 19.1971 194.62C28.6571 194.43 30.4471 192.55 29.6071 183.18C29.6971 181.88 29.0171 180.65 29.2371 179.35C29.3071 176.75 29.8571 174.2 30.1171 171.63C30.3271 169.51 30.4871 167.26 27.5671 166.63C22.9071 165.95 18.2271 166.47 13.5671 166.26C12.2222 166.296 10.8782 166.162 9.5671 165.86C8.0071 165.38 6.08709 164.92 6.40709 162.72C6.67709 160.88 8.4071 160.61 9.9171 160.62C16.5671 160.67 23.2371 160.16 29.9171 160.91L30.7971 161.16C32.1871 159.38 31.4771 157.31 31.4771 155.39C31.4771 125.47 31.4771 95.547 31.4771 65.6203C31.4771 59.7603 30.6671 53.6203 35.7071 49.0703C41.1971 43.7903 46.7071 38.5603 52.1771 33.2203C54.6571 30.7803 57.6671 30.3103 60.8971 30.3003C71.0471 30.3003 81.2071 30.2103 91.3571 30.2103C165.417 30.2103 239.48 30.2103 313.547 30.2103C319.657 30.2103 324.177 32.0703 327.357 37.2103C326.797 40.5503 329.747 41.7403 331.547 43.2103C335.347 46.3703 335.547 49.1003 331.857 52.3103C331.067 53.1419 330.358 54.0459 329.737 55.0103C327.607 56.0103 326.297 54.6303 324.977 53.3503C323.297 51.7403 321.627 50.1103 319.977 48.4203C316.547 44.8203 312.437 43.4803 307.437 43.5103C281.147 43.6503 254.857 43.5803 228.567 43.5103C225.735 43.5192 222.913 43.831 220.147 44.4403C172.517 44.6203 124.877 44.5303 77.2371 44.4403C71.6371 44.4403 66.0271 43.2103 60.4371 44.6703C54.2071 48.9403 50.0571 55.3803 44.3271 60.1903C42.5271 61.6903 43.1971 64.2603 43.1971 66.3903C43.1971 103.197 43.1971 140.01 43.1971 176.83C43.1971 221.31 43.0771 265.78 43.2771 310.25C46.0171 314.15 50.4171 316.37 53.3571 320.09C54.5171 321.56 56.5871 322.61 55.6871 325.09C53.2671 324.74 51.4971 325.62 50.6871 327.97C49.9071 330.66 47.9271 331.73 45.5071 332.34Z" fill="#2A3942"/>
<path d="M348.597 35.7003C346.85 35.6649 345.181 34.97 343.926 33.755C342.67 32.5401 341.92 30.8951 341.827 29.1503C341.871 28.2824 342.089 27.4321 342.467 26.6496C342.845 25.8671 343.376 25.1681 344.028 24.594C344.68 24.0199 345.441 23.5823 346.265 23.3068C347.09 23.0314 347.961 22.9238 348.827 22.9903C352.577 23.2803 355.037 25.3003 355.357 29.1603C355.607 32.5103 352.097 35.7403 348.597 35.7003Z" fill="#2D3F49"/>
<path d="M29.1071 35.2403C24.8871 35.2403 22.5372 33.0203 22.7672 29.0003C22.9972 24.9803 26.0171 23.3103 29.4471 23.3103C33.1371 23.3103 35.6471 25.5703 35.8071 29.5003C35.9471 32.8103 32.9371 35.2403 29.1071 35.2403Z" fill="#35434A"/>
<path d="M55.727 325.16C50.897 321.26 47.107 316.16 41.927 312.71C44.057 310.65 43.197 308 43.197 305.6C43.237 226.54 43.217 147.474 43.137 68.4004C43.137 63.3504 44.047 59.4004 48.337 56.3504C50.997 54.4304 53.097 51.7304 55.337 49.2204C57.047 47.2204 58.637 44.9404 61.637 44.6804C67.5898 44.1256 73.5704 43.9253 79.547 44.0804C124.857 44.1604 170.167 44.5204 215.467 43.9904C247.107 43.6104 278.747 43.8804 310.367 43.6404C315.877 43.7004 318.927 47.8304 322.657 50.9604C324.897 52.8504 326.017 56.5104 329.937 55.9604C331.127 58.1404 330.677 60.5204 330.677 62.8204C330.724 112.24 330.754 161.66 330.767 211.08C330.767 242.72 330.667 274.35 330.767 305.98C330.767 310.22 329.517 313.08 326.057 315.65C321.726 319.037 317.609 322.687 313.727 326.58C312.548 327.751 311.141 328.665 309.592 329.266C308.043 329.867 306.387 330.14 304.727 330.07C225.307 330.004 145.89 330.004 66.477 330.07C61.857 330.15 58.617 328.3 55.727 325.16Z" fill="#293F4A"/>
<path d="M342.727 107.1C343.154 116.107 343.154 125.107 342.727 134.1C341.058 125.178 341.058 116.023 342.727 107.1Z" fill="#10212C"/>
<path d="M355.897 163.05C360.04 162.184 364.314 162.157 368.467 162.97C364.345 164.012 360.032 164.039 355.897 163.05Z" fill="#10212C"/>
<path d="M329.867 55.9804C329.277 59.0904 328.147 59.7804 325.867 57.0504C322.037 52.4404 317.347 48.7804 312.607 45.1704C310.777 43.4604 308.497 44.1704 306.417 44.1704C279.837 44.1204 253.257 44.1704 226.677 44.1104C224.617 44.1104 222.317 44.8504 220.547 43.0004C222.547 41.8704 224.757 42.2604 226.887 42.2504C253.797 42.1904 280.707 42.3104 307.607 42.0104C313.607 41.9504 318.217 43.3504 322.087 47.9504C324.307 50.5904 327.087 52.7204 329.687 55.0804C329.727 55.3704 329.817 55.6704 329.867 55.9804Z" fill="#475A62"/>
<path d="M5.72703 161.08C6.72703 156.41 3.81703 151.74 5.72703 147.08C5.54703 149.66 6.72704 150.9 9.29704 151.52C15.607 153.06 21.867 151.63 28.117 151.37C30.717 151.26 29.697 148.44 29.697 146.83C29.777 126.18 29.757 105.53 29.757 84.8803C29.757 75.2503 29.757 65.6203 30.857 55.9803V161.18C22.495 161.917 14.0829 161.884 5.72703 161.08Z" fill="#C0CDD2"/>
<path d="M30.7271 213.16C24.4011 213.59 18.0532 213.59 11.7271 213.16C9.97712 211.58 7.81712 212.29 5.81712 212.1C2.21712 206.79 3.14712 201.4 5.53712 195.99L6.12712 196.53C6.12712 198.37 6.49713 199.47 8.85713 199.68C14.4671 200.17 19.9571 201.04 25.6571 199.93C31.0271 198.88 31.2771 199.36 31.1771 204.8C31.1171 207.58 31.7271 210.42 30.7271 213.16Z" fill="#C0CDD2"/>
<path d="M36.5371 344.96C31.0871 351.11 28.8371 351.3 23.7071 346.06C23.5671 340.7 25.6471 337.47 29.3971 337.2C33.1471 336.93 35.8271 339.69 36.5371 344.96Z" fill="#31434C"/>
<path d="M5.52704 195.99C2.34704 190.29 3.25704 184.59 5.52704 178.89L6.35706 179.19C7.97706 180.64 9.94705 180.62 11.9471 180.6C16.5571 180.6 21.177 180.6 25.7871 180.6C27.7871 180.6 29.7871 180.44 31.1071 182.43C31.3071 185.73 31.0271 189.03 31.2371 192.31C31.4071 194.98 30.287 195.71 27.777 195.64C22.347 195.51 16.9171 195.55 11.4771 195.64C9.90705 195.64 8.17705 195.01 6.75705 196.28L6.86707 196.23C6.41707 196.8 6.02706 196.75 5.70706 196.1L5.52704 195.99Z" fill="#C0CDD2"/>
<path d="M29.7271 164.37C30.4271 164.24 31.2771 164.37 31.2871 165.1C31.3371 169.78 32.4871 174.53 30.7071 179.1C30.248 179.569 29.6983 179.939 29.0914 180.189C28.4845 180.438 27.8331 180.561 27.1771 180.55C21.1171 180.55 15.0671 180.55 9.00708 180.55C7.84755 180.543 6.73481 180.092 5.8971 179.29L5.50708 178.88C6.2731 175.375 6.01626 171.724 4.76709 168.36C4.11709 166.8 4.31709 165.92 5.57709 165.05C10.7371 165.62 15.5071 167.85 20.8071 168.11C24.7271 168.31 27.8071 168.11 29.7271 164.37Z" fill="#C0CDD2"/>
<path d="M29.727 164.37C29.662 165.523 29.662 166.678 29.727 167.83C29.987 170.83 28.727 171.83 25.957 170.91C22.897 169.86 19.717 170.4 16.637 169.96C12.537 169.38 8.52696 168.41 5.63696 165.07C5.63696 163.74 5.69695 162.41 5.71695 161.07L30.847 161.17C25.487 162.61 20.037 161.29 14.647 161.74C12.207 161.94 9.64696 161.39 5.81696 163C14.627 164.89 22.307 163.16 29.727 164.37Z" fill="#B2BEC4"/>
<path d="M61.7271 45.8404C55.9071 50.3704 51.6271 56.4304 46.2271 61.3904C44.0971 63.3904 44.8671 66.0804 44.8671 68.5104C44.8271 138.15 44.8271 207.79 44.8671 277.43C44.8671 287.76 44.8671 298.09 44.7971 308.43C44.7971 310.33 45.7471 313.25 41.9071 312.72C41.9071 229.96 41.8671 147.204 41.7871 64.4504C41.7871 60.9804 42.5771 58.3604 45.4371 56.3204C50.7371 52.5504 53.6571 46.2704 59.4371 42.9604C60.1919 42.6593 61.0103 42.5527 61.8171 42.6504C63.0271 42.7404 64.8171 42.1304 64.9971 43.9304C65.1771 46.2204 62.9171 45.3104 61.7271 45.8404Z" fill="#72858E"/>
<path d="M61.7269 45.8404C62.4317 45.3166 63.0999 44.7452 63.7269 44.1304C62.6669 42.4804 60.8069 43.4104 59.3369 42.9504C62.5369 41.5004 65.9169 42.3104 69.1869 42.3904C119.617 43.6604 170.067 42.7704 220.507 42.9804C249.627 43.0304 278.757 43.0504 307.877 43.2304C309.417 43.2304 312.327 41.4504 312.567 45.1704C233.767 45.2171 154.964 45.2704 76.1569 45.3304C71.3969 45.3304 66.5769 45.6604 61.7269 45.8404Z" fill="#67777F"/>
<path d="M5.91699 179.3C14.187 178.89 22.447 178.74 30.727 179.14L31.577 182.24C31.277 182.74 30.977 182.71 30.677 182.24C23.957 182.24 17.247 182.29 10.537 182.29C8.38699 182.28 6.05699 182.46 5.91699 179.3Z" fill="#57656C"/>
<path d="M5.72699 196.09L6.88699 196.22C6.74699 199.1 8.82699 198.77 10.637 198.78C16.447 198.78 22.257 198.92 28.057 198.73C30.667 198.65 31.907 199.46 31.587 202.06C31.117 205.75 32.717 209.59 30.737 213.16C30.597 210.516 30.597 207.865 30.737 205.22C31.217 200.41 28.327 199.36 25.067 201.01C18.887 204.14 13.477 200.89 7.767 200.01C5.497 199.65 5.72699 197.74 5.72699 196.09Z" fill="#B1BEC5"/>
<path d="M30.7272 182.23C31.0225 182.155 31.3318 182.155 31.6272 182.23C31.2572 186.76 33.6872 192.58 30.6272 195.49C27.8072 198.13 22.1272 196.11 17.7072 196.26C14.0872 196.38 10.4672 196.26 6.84717 196.26C11.7372 193.83 16.9472 195.34 21.9872 195.18C31.8072 194.88 30.6972 195.86 30.7772 186.18C30.7272 184.89 30.7272 183.58 30.7272 182.23Z" fill="#B1BEC5"/>
<path d="M295.947 151.22C299.097 155.38 299.497 160.45 299.547 165.22C299.807 186.84 299.547 208.47 299.677 230.1C299.677 233.84 296.797 236 295.747 239.04C292.827 247.46 286.847 248.98 278.747 248.31C273.277 247.86 267.457 247.98 262.627 251.93C260.627 253.55 259.457 255.19 259.567 257.78C259.667 260.1 259.287 262.5 259.687 264.78C260.917 271.68 256.477 276.3 253.337 281.46C252.437 282.94 250.887 282.92 249.337 283.1C245.707 283.53 242.037 283.84 238.487 284.62C228.107 286.91 227.327 287.7 227.657 298.14C227.847 304.42 223.947 309.04 222.117 314.48C221.567 316.14 219.717 316.05 218.207 316.05C209.717 316.05 201.207 316.05 192.737 316.05C191.731 316.137 190.721 315.941 189.822 315.483C188.922 315.025 188.169 314.325 187.647 313.46C185.897 310.3 183.187 310.01 180.037 309.94C175.227 309.84 170.427 309.31 165.617 309.08C164.787 309.038 163.981 308.781 163.28 308.334C162.579 307.887 162.006 307.265 161.617 306.53C158.477 301.64 155.227 296.82 152.287 291.81C151.477 290.42 149.417 288.28 152.687 286.96C153.827 285.18 155.687 284.96 157.507 284.96C167.447 284.88 177.397 284.47 187.337 285.23C196.797 284.41 206.287 285.03 215.767 284.84C222.517 284.7 223.247 284.03 223.337 277.39C223.427 270.57 223.177 263.74 223.477 256.92C223.707 251.67 225.217 250.19 230.477 249.92C236.797 249.64 243.127 249.92 249.477 249.78C255.637 249.66 257.017 248.32 257.267 242.05C257.497 236.23 257.267 230.4 257.387 224.58C257.557 217.23 258.807 216 266.307 215.85C273.307 215.72 280.307 215.94 287.307 215.75C292.197 215.62 293.217 214.65 293.307 209.81C293.467 200.5 293.367 191.18 293.477 181.86C293.277 173.63 293.317 165.4 293.477 157.17C293.527 154.95 293.287 152.45 295.947 151.22Z" fill="#0C1B23"/>
<path d="M149.567 146.93L149.897 106.02C150.366 105.542 150.934 105.172 151.561 104.937C152.188 104.702 152.859 104.608 153.527 104.66C164.167 104.61 174.817 104.51 185.467 104.71C186.301 104.733 187.115 104.963 187.837 105.38C189.957 107.26 189.837 109.82 189.887 112.3C189.997 119.78 189.887 127.25 189.887 134.73C189.887 144.73 189.967 144.82 199.777 144.84C206.087 144.84 212.397 144.84 218.707 144.84C221.027 144.84 223.387 144.74 225.487 146.03C227.047 148.51 229.237 149.21 232.157 149.13C239.597 148.92 247.037 149.06 254.477 149.06C256.627 149.06 258.837 148.89 260.477 150.81C261.4 152.2 261.865 153.843 261.807 155.51C261.527 164.22 263.027 172.98 260.867 181.62C260.556 182.21 260.098 182.71 259.537 183.07C257.779 183.994 255.798 184.406 253.817 184.26C245.917 184.35 238.017 184.34 230.127 184.26C227.812 184.361 225.512 183.829 223.477 182.72C221.407 180.81 221.477 178.25 221.477 175.77C221.347 169.61 221.557 163.45 221.367 157.3C221.217 152.48 220.227 151.49 215.367 151.37C209.047 151.21 202.714 151.21 196.367 151.37C191.097 151.5 190.077 152.58 189.937 158.01C189.777 164.16 190.027 170.32 189.807 176.48C189.587 182.35 188.057 184.03 182.407 184.19C173.597 184.44 164.777 184.36 155.957 184.19C154.458 184.323 152.952 184.025 151.617 183.33C150.687 182.777 149.92 181.989 149.394 181.044C148.867 180.099 148.599 179.032 148.617 177.95C148.617 171.65 147.807 165.39 147.737 159.11C147.657 153 149.317 151.55 155.367 151.54H174.767C168.877 151.54 162.997 151.54 157.117 151.54C154.327 151.54 151.527 151.17 148.827 152.54C147.417 153.25 145.907 152.65 144.757 151.49C144.277 147.8 147.107 148.59 148.997 148.57C157.927 148.47 166.847 148.52 175.777 148.52C168.637 148.52 161.497 148.52 154.357 148.52C152.617 148.58 150.597 149.13 149.567 146.93Z" fill="#8899A3"/>
<path d="M225.727 147.19C214.777 147.13 203.827 146.95 192.877 147.07C189.187 147.07 187.517 146.29 187.617 142.12C187.897 130.18 187.757 118.23 187.777 106.29C188.777 104.58 190.537 104.65 192.167 104.65C201.874 104.59 211.587 104.59 221.307 104.65C222.807 104.65 224.307 104.76 225.387 106.02C225.583 106.03 225.773 106.092 225.937 106.2C228.437 113.26 227.867 120.61 227.937 127.89C227.937 131.38 227.937 134.89 227.937 138.35C227.937 142.08 229.657 143.98 233.397 143.79C242.177 143.35 250.667 146.35 259.447 145.93C269.597 146.01 279.747 146.07 289.897 146.2C291.837 146.2 293.897 145.61 295.647 147.1C294.137 149.05 292.017 149.1 289.807 149.1C270.227 149.1 250.647 149.1 231.067 149.1C229.077 149.1 227.037 149.19 225.727 147.19Z" fill="#566872"/>
<path d="M114.727 217.98C103.787 217.98 92.8571 217.98 81.9271 218.15C78.2671 218.21 76.5071 217.39 76.6471 213.21C76.9771 202.79 76.8871 192.35 76.9671 181.91C77.4852 181.497 78.0961 181.215 78.7471 181.09C89.5271 181.99 100.337 181.42 111.137 181.62C116.477 181.71 117.847 182.78 117.817 188.02C117.747 197.45 119.017 206.94 116.997 216.32C116.799 216.773 116.484 217.164 116.086 217.456C115.687 217.748 115.218 217.928 114.727 217.98Z" fill="#576B74"/>
<path d="M187.617 286.95H152.747L149.527 284.95C147.527 282.95 147.467 280.44 147.647 277.87C150.227 269.18 148.437 260.15 149.647 251.35C149.946 250.78 150.396 250.303 150.947 249.97C151.954 249.392 153.079 249.05 154.237 248.97C165.237 249.04 176.337 247.89 187.327 249.66C187.943 249.863 188.505 250.205 188.967 250.66C190.337 252.95 189.827 255.51 189.847 257.96C189.847 265.77 189.917 273.58 189.847 281.39C189.857 283.51 190.207 285.85 187.617 286.95Z" fill="#556A74"/>
<path d="M150.507 251.24C150.447 260.24 151.507 269.24 149.847 278.15C147.617 277.15 147.627 275.04 147.527 273.05C147.327 268.91 147.527 264.76 147.397 260.62C147.227 255.45 146.397 254.51 141.257 254.38C134.797 254.22 128.327 254.45 121.857 254.26C119.607 254.2 117.097 254.57 115.707 252.02L114.577 249.95C113.899 249.352 113.366 248.607 113.019 247.772C112.673 246.936 112.522 246.033 112.577 245.13C112.407 238.05 112.397 230.98 112.577 223.9C112.545 222.994 112.72 222.091 113.087 221.262C113.454 220.432 114.005 219.697 114.697 219.11V217.98L115.797 216.98C116.479 216.239 117.31 215.65 118.235 215.251C119.161 214.853 120.16 214.655 121.167 214.67C128.707 216.05 136.327 215.5 143.917 215.59C150.687 215.67 151.287 216.11 151.137 223.03C150.927 232.43 151.997 241.87 150.507 251.24Z" fill="#3C4D5A"/>
<path d="M77.7271 182.09C77.4771 182.02 77.227 181.96 76.967 181.91C76.967 171.244 76.967 160.604 76.967 149.99C78.1138 149.305 79.4454 148.994 80.777 149.1C91.257 149.21 101.727 148.87 112.207 149.28C116.447 150.64 118.067 153.58 117.977 157.96C117.857 163.96 118.147 169.89 117.857 175.85C117.587 181.34 116.277 182.66 110.927 182.56C99.8271 182.36 88.7271 183.22 77.7271 182.09Z" fill="#8C9CA6"/>
<path d="M259.727 182.1C259.727 171.754 259.704 161.397 259.657 151.03C260.058 150.391 260.628 149.875 261.304 149.54C261.98 149.205 262.735 149.063 263.487 149.13C273.307 149.13 283.127 149.06 292.957 149.13C293.954 149.219 294.912 149.563 295.737 150.13C295.817 150.49 295.907 150.85 295.997 151.2C295.87 161.48 295.744 171.757 295.617 182.03C294.377 185.03 291.727 185.51 289.047 185.11C281.187 183.96 273.287 184.53 265.407 184.25C263.247 184.19 260.987 184.34 259.727 182.1Z" fill="#5C6F77"/>
<path d="M114.667 219.11L114.577 249.95C108.917 248.69 103.247 247.67 97.387 248.01C93.867 248.22 92.717 245.01 91.197 242.86C86.767 236.66 82.197 230.5 78.717 223.68C77.097 220.56 76.817 218.92 81.277 218.99C92.407 219.19 103.537 219.09 114.667 219.11Z" fill="#0C1B23"/>
<path d="M115.727 252.02C125.477 252.02 135.227 252.15 144.977 251.96C148.687 251.88 149.877 253.2 149.787 256.84C149.607 263.94 149.787 271.04 149.867 278.15C149.757 280.42 149.657 282.69 149.547 284.96C145.657 284.2 141.827 283.1 137.817 283.07C137.154 283.15 136.481 283.067 135.857 282.828C135.234 282.59 134.678 282.202 134.237 281.7C127.507 272.7 120.337 264.01 115.367 253.82C115.127 253.38 115.567 252.63 115.727 252.02Z" fill="#0B1A22"/>
<path d="M259.457 145.92C249.677 146 239.887 146.03 230.107 146.21C227.367 146.26 225.727 145.77 225.777 142.49C225.927 130.39 225.907 118.29 225.957 106.19C232.467 117.54 239.367 128.69 245.297 140.34C247.297 144.24 249.247 145.43 253.137 145.17C255.237 145.04 257.477 144.58 259.457 145.92Z" fill="#13242E"/>
<path d="M111.727 151.12L82.647 150.98C80.697 150.98 78.647 151.24 76.947 149.98C76.087 146.18 78.847 146.98 80.817 146.98C102.25 146.98 123.68 146.98 145.107 146.98C146.597 146.98 148.107 146.98 149.587 146.98H184.587L184.697 148.4C182.297 150.11 179.437 150.09 176.567 150.22C165.837 150.69 155.057 149.7 144.337 150.94C143.047 153.61 140.507 153.3 138.247 153.31C129.337 153.3 120.357 154.22 111.727 151.12Z" fill="#E9F1F3"/>
<path d="M225.507 101.18C225.587 101.317 225.633 101.471 225.642 101.629C225.65 101.788 225.621 101.946 225.557 102.09C225.347 104.6 224.267 105.69 221.467 105.67C198.857 105.55 176.247 105.61 153.637 105.6C151.967 105.6 150.237 105.86 150.157 103.27C150.077 100.4 151.927 100.61 153.817 100.61H223.147C223.977 100.504 224.817 100.707 225.507 101.18Z" fill="#F6F8F6"/>
<path d="M295.727 150.15C290.187 151.68 284.557 150.56 278.967 150.75C272.537 150.97 266.087 150.95 259.647 151.03C249.287 150.96 238.927 150.92 228.567 150.81C226.207 150.81 223.267 151.04 225.787 147.19L295.697 147.09L295.727 150.15Z" fill="#DAE5E8"/>
<path d="M225.507 101.18H155.557C154.557 101.18 153.557 101.24 152.557 101.34C152.137 101.343 151.733 101.507 151.432 101.8C151.13 102.092 150.953 102.49 150.937 102.91C150.898 103.157 150.913 103.408 150.98 103.648C151.048 103.888 151.166 104.111 151.328 104.301C151.489 104.491 151.69 104.644 151.916 104.749C152.142 104.854 152.388 104.909 152.637 104.91C153.634 105.016 154.635 105.066 155.637 105.06C177.127 105.06 198.637 105.06 220.087 105.12C222.647 105.12 224.667 104.73 225.567 102.04C225.923 103.331 225.871 104.701 225.417 105.96L187.807 106.24L149.907 105.97C148.997 101.97 149.857 99.9703 154.727 100.06C176.847 100.27 198.957 100.06 221.077 100.11C222.537 100.17 224.417 99.2103 225.507 101.18Z" fill="#BFC6C8"/>
<path d="M259.727 182.1C269.927 182.5 280.167 181.52 290.347 182.96C292.156 183.292 294.024 182.969 295.617 182.05C295.617 192.52 295.617 203 295.807 213.46C295.897 217.34 294.227 218.27 290.727 218.19C282.587 218.03 274.437 218.14 266.287 218.14C259.617 218.14 259.727 218.14 259.567 224.63C259.377 232.43 260.127 240.24 259.077 248.03C258.647 251.21 257.237 252.18 254.187 252.13C246.187 251.97 238.187 252.19 230.247 252C226.757 251.92 225.557 253.22 225.627 256.65C225.807 265.13 225.567 273.65 225.817 282.09C225.937 286.09 224.427 287.3 220.587 287.21C209.587 286.97 198.637 287.02 187.667 286.96C187.667 277.26 187.697 267.56 187.757 257.86C187.757 255.56 187.507 253.21 188.757 251.11C190.197 248.59 192.707 248.96 194.977 248.9C201.977 248.72 208.977 248.9 215.977 248.78C221.387 248.67 222.297 247.73 222.417 242.26C222.557 235.77 222.327 229.26 222.527 222.78C222.727 216.52 224.097 215.12 230.237 214.91C236.897 214.7 243.557 214.91 250.237 214.8C256.457 214.69 257.337 213.8 257.437 207.42C257.537 201.04 257.437 194.76 257.517 188.42C257.517 186.07 257.577 183.71 259.757 182.11L259.727 182.1Z" fill="#344653"/>
<path d="M150.507 251.24C148.637 244.24 149.817 237.1 149.707 230.03C149.497 217.12 149.657 217.13 136.537 217.13C131.237 217.13 125.937 217.06 120.637 217.02C121.147 213.75 123.787 214.02 126.017 213.95C131.337 213.69 136.657 213.95 142.017 213.8C147.377 213.65 148.317 212.8 148.437 207.3C148.577 200.65 148.307 193.99 148.587 187.3C148.687 185.08 148.367 182.4 151.717 182.01C162.207 182.01 172.717 182.01 183.197 182.17C186.677 182.23 187.907 180.92 187.837 177.49C187.687 169.66 187.887 161.83 187.777 154.01C187.777 150.66 188.917 149.16 192.427 149.21C201.414 149.35 210.414 149.35 219.427 149.21C222.637 149.21 223.837 150.3 223.787 153.58C223.617 163.07 223.717 172.58 223.707 182.06C223.547 182.31 223.377 182.56 223.217 182.82C221.287 184.58 218.867 184.19 216.587 184.23C209.957 184.36 203.317 184.31 196.687 184.28C192.687 184.28 190.957 186.01 190.977 189.98C190.977 196.29 191.027 202.59 190.977 208.89C190.977 211.21 191.057 213.55 189.917 215.7C189.626 216.243 189.203 216.704 188.687 217.04C185.097 218.84 181.227 218.18 177.457 218.25C171.327 218.37 165.197 218.14 159.077 218.35C154.357 218.51 153.237 219.62 153.077 224.35C152.847 231.13 153.077 237.92 152.957 244.71C152.957 247.04 152.957 249.39 150.787 251.01L150.507 251.24Z" fill="#586A73"/>
<path d="M259.727 182.13C259.727 191.96 259.527 201.79 259.677 211.61C259.747 215.76 258.147 217.22 254.077 217.11C245.917 216.91 237.747 217.17 229.597 216.98C225.947 216.89 224.527 218.13 224.597 221.86C224.807 229.68 224.417 237.53 224.777 245.34C224.997 250.1 223.177 251.34 218.717 251.19C208.717 250.92 198.717 251.11 188.717 251.11L187.517 251.02C185.657 249.49 185.517 247.36 185.467 245.18C185.367 237.76 185.417 230.34 185.467 222.93C185.407 221.609 185.673 220.293 186.242 219.098C186.81 217.904 187.664 216.867 188.727 216.08C190.337 213.96 192.727 213.92 195.027 213.89C201.027 213.8 206.947 213.89 212.917 213.89C221.027 213.89 221.597 213.47 221.397 205.55C221.237 198.74 222.307 192.02 222.397 185.24C222.423 184.07 222.895 182.954 223.717 182.12V182.17L259.727 182.13Z" fill="#586A73"/>
<path d="M151.727 182.06C149.947 184.63 150.827 187.55 150.727 190.3C150.587 196.93 150.437 203.58 150.727 210.21C150.917 214.64 149.647 216.53 144.887 216.21C138.607 215.84 132.277 216.11 125.967 216.15C124.167 216.15 122.297 215.89 120.647 216.98H115.807C115.737 207.34 115.527 197.69 115.677 188.04C115.747 184.04 114.277 182.84 110.427 182.93C101.277 183.15 92.127 183.03 82.977 183.01C81.177 183.01 79.287 183.42 77.707 182.09C88.317 182.09 98.927 181.89 109.527 182.14C113.957 182.25 115.587 180.26 115.637 176.33C115.717 169.54 115.487 162.73 115.767 155.95C115.887 152.74 113.617 152.25 111.767 151.12L144.397 150.9H180.067V152.11C171.857 152.11 163.647 152.11 155.437 152.11C152.907 152.11 150.597 152.3 150.517 155.51C150.257 164.37 150.057 173.26 151.727 182.06Z" fill="#7E909B"/>
<path d="M188.727 216.08C186.727 227.68 188.447 239.39 187.577 251.02H150.757C150.757 241.22 150.857 231.42 150.617 221.63C150.507 217.31 152.547 216.15 156.337 216.16C167.097 216.2 177.887 216.12 188.727 216.08Z" fill="#83969F"/>
<path d="M223.727 182.07C225.437 192.52 223.097 202.96 223.617 213.42C223.767 216.37 221.157 216.03 219.207 216.04C209.047 216.04 198.887 216.04 188.727 216.04C188.727 206.41 188.867 196.77 188.637 187.14C188.537 183.14 189.987 181.95 193.827 182.02C203.727 182.24 213.727 182.09 223.727 182.07Z" fill="#8899A3"/>
</svg>
