<svg width="378" height="396" viewBox="0 0 378 396" fill="none" xmlns="http://www.w3.org/2000/svg">
<path d="M372.944 20.6128C374.834 22.9528 374.074 25.7428 374.074 28.3228C374.134 132.323 374.157 236.293 374.144 340.233C374.144 345.693 374.774 351.233 373.144 356.553C374.654 358.623 374.144 360.353 372.244 361.843C366.754 361.843 364.564 359.143 363.094 353.123C361.094 345.063 362.094 336.803 360.554 328.753C360.756 326.262 360.822 323.761 360.754 321.263C360.754 238.043 360.754 154.816 360.754 71.5828C360.754 63.2628 359.184 55.0228 359.694 46.6728C359.754 45.7328 359.904 44.4728 358.804 44.0328C357.704 43.5928 356.964 44.5228 356.224 45.1728C352.224 48.6528 348.634 52.6828 342.954 53.4028C337.604 52.1428 336.184 46.1828 331.624 43.8628C330.386 43.0853 329.268 42.132 328.304 41.0328C324.234 35.1428 318.864 32.5028 311.574 33.6528C307.984 34.2228 304.264 33.8228 300.574 33.8228C245.784 33.8228 191.004 33.9728 136.224 33.7428C117.274 33.6628 98.3339 34.0528 79.3939 33.8228C72.2739 33.7428 65.2339 32.0628 58.0039 33.5128C54.0939 34.3028 50.6639 35.4428 47.7939 38.1528C44.0039 39.0028 41.5539 41.7928 39.0239 44.4328C37.0635 46.4759 34.7668 48.1671 32.2339 49.4328C31.5112 49.8809 30.6458 50.0393 29.8112 49.8761C28.9766 49.7129 28.2346 49.2402 27.7339 48.5528C27.286 47.9319 27.0724 47.1725 27.131 46.4092C27.1895 45.6459 27.5165 44.928 28.0539 44.3828C30.0539 41.9528 32.0539 39.3228 34.5839 37.5928C38.2939 35.0528 40.7439 31.5928 43.3939 28.1728C44.3939 26.8328 46.3939 25.4428 44.2739 23.5528C41.8939 21.4528 41.3539 24.5528 39.9739 25.2628C39.6839 25.4128 39.4339 25.6428 39.1439 25.8228C37.8239 26.3728 36.5439 27.7328 35.0739 26.0828C34.2864 24.9059 33.9329 23.4918 34.0739 22.0828C34.8039 16.6528 36.4139 14.8328 42.1639 13.6328C44.7894 13.1732 47.3018 12.2124 49.5639 10.8028C52.9139 8.5928 56.7139 8.2628 60.5639 8.3728C65.4639 8.5228 70.2239 8.14278 74.3239 4.97278C75.7339 3.88278 77.5039 4.1228 79.1539 4.1228C97.3139 4.1228 115.494 3.6528 133.624 4.3028C142.394 4.6228 151.164 4.09279 159.954 4.54279C167.204 4.92279 174.534 6.7328 181.574 6.0528C217.964 2.5228 254.414 4.7628 290.824 4.1828C296.014 4.1028 301.094 3.31278 306.234 3.10278C319.514 3.10278 332.794 3.10278 346.084 3.10278C355.884 3.10278 363.084 7.6828 368.624 15.4028C369.984 17.1928 370.494 19.7128 372.944 20.6128Z" fill="#97A8B2"/>
<path d="M371.884 361.463L373.114 356.553C373.344 355.053 373.544 353.483 373.714 351.863C374.064 348.321 374.211 344.762 374.154 341.203C376.722 347.773 377.748 354.844 377.154 361.873C377.055 365.37 376.331 368.821 375.014 372.063C369.374 385.013 360.484 395.063 342.114 394.653C320.114 394.183 298.114 393.963 276.174 394.653C223.074 396.373 169.974 395.583 116.884 395.183C88.1039 394.973 59.3139 394.923 30.5339 394.493C17.8139 394.303 4.76385 382.353 1.94385 368.493C2.29385 365.833 1.38386 363.033 2.86386 360.493C7.68386 361.043 8.36385 366.003 11.3839 368.493C16.8139 377.373 25.9038 377.403 34.6938 378.133C37.0138 378.323 39.3538 378.213 41.6938 378.213C136.114 378.213 230.534 378.213 324.954 378.213C333.942 378.226 342.914 377.473 351.774 375.963C357.774 374.963 362.774 371.383 366.454 366.373C367.964 364.383 369.474 362.463 371.884 361.463Z" fill="#3A424A"/>
<path d="M372.944 20.6128C372.314 21.0928 372.434 24.5328 370.864 21.4328C364.354 8.63282 353.864 3.80281 339.864 4.43282C328.924 4.92282 317.954 4.5728 307.004 4.6028C305.274 5.5028 303.404 5.05282 301.604 5.06282C274.484 5.06282 247.357 5.06282 220.224 5.06282C208.594 5.06282 196.974 5.41282 185.354 6.06282C176.584 6.53282 167.834 5.49282 159.064 5.40282C132.134 5.12282 105.144 4.0128 78.3239 5.5428C62.5539 6.4428 46.8239 6.19282 31.1039 6.90282C23.8439 7.23282 18.3039 11.1728 12.7739 15.2228C12.111 15.6169 11.3506 15.8165 10.5796 15.7988C9.80855 15.7811 9.05807 15.5469 8.41391 15.1228C7.98751 14.7536 7.71022 14.2417 7.63391 13.6828C8.63391 10.5828 11.6339 8.92281 13.1639 6.14281C16.8839 2.40281 21.7139 1.3528 26.6839 0.602798C57.3139 0.212798 87.9339 0.692798 118.554 0.602798C151.887 0.509465 185.204 0.359483 218.504 0.152816C256.314 -0.137184 294.114 0.072809 331.924 0.082809C338.234 0.082809 344.544 1.15281 350.864 0.172805C351.813 0.229769 352.739 0.482127 353.586 0.914047C354.433 1.34597 355.181 1.94814 355.784 2.68282C363.534 6.70282 370.074 11.8628 372.944 20.6128Z" fill="#E8EFF1"/>
<path d="M10.9139 14.5228C16.5039 8.30277 23.3339 4.52277 31.8339 4.52277C122.881 4.4761 213.934 4.45276 304.994 4.45276C305.654 4.45276 306.324 4.54277 306.994 4.59277C305.084 6.06277 302.834 5.59277 300.724 5.59277C273.391 5.59277 246.094 5.59277 218.834 5.59277C206.551 5.42595 194.276 6.27886 182.134 8.14276C178.894 8.68276 176.514 6.45276 173.434 6.54276C162.434 6.84276 151.314 6.54275 140.354 6.16275C120.884 5.50275 101.444 6.16275 82.0139 5.57275C78.2439 5.46275 74.8439 5.74275 72.0139 8.82275C70.0839 10.9228 67.1439 10.7228 64.4639 10.5828C58.5639 10.2828 52.8539 10.5328 47.9039 14.5128C46.9039 15.3528 45.0839 15.2628 43.6439 15.6228C39.7639 16.6228 35.6439 17.2728 35.7539 22.7028C34.3039 23.2028 33.2239 22.2728 32.0539 21.7028C29.8739 20.7028 27.7639 20.7028 26.2039 22.7028C24.6439 24.7028 25.6639 26.4328 26.9739 28.0928C27.4839 28.7428 27.9739 29.4128 28.4639 30.0928C30.0539 32.5428 31.9439 31.5028 33.5239 30.2828C35.4339 28.8028 37.2839 27.1428 37.9939 24.6428C38.9939 24.3628 39.9939 23.8328 39.8739 22.6428C39.4239 16.8928 42.4939 19.6428 44.5539 20.8028C45.9539 21.6028 46.9639 23.0828 48.2539 24.1228C49.9039 25.4428 48.9239 25.8028 47.8439 26.9828C42.0139 33.3828 36.3739 39.9828 29.5139 45.3228C29.2926 45.4468 29.1005 45.617 28.9507 45.8217C28.801 46.0265 28.6969 46.261 28.6457 46.5095C28.5945 46.758 28.5973 47.0145 28.6539 47.2618C28.7106 47.5091 28.8197 47.7413 28.9739 47.9427C29.7539 48.8327 30.8339 48.5128 31.7339 48.0528C35.2239 46.2928 37.6639 43.2728 40.5139 40.7328C41.8439 39.5428 42.5139 37.0628 45.1039 37.7328C45.3147 38.3233 45.3523 38.9618 45.2123 39.573C45.0724 40.1843 44.7607 40.7428 44.3139 41.1828C42.6235 43.8687 40.5017 46.2574 38.0339 48.2528C34.5139 51.3728 33.2039 55.0928 33.2439 59.7628C33.3839 74.9228 33.3039 90.0828 33.3039 105.253C33.3039 152.586 33.3039 199.919 33.3039 247.253C33.3039 256.393 32.9339 265.543 32.6339 274.683C32.1339 290.133 33.6339 305.613 33.4939 321.103C33.4939 324.103 35.1139 326.463 37.0139 328.643C38.6539 330.523 40.5539 332.163 42.0639 334.163C45.3239 337.393 48.7239 340.523 51.8939 343.863C53.1439 345.183 54.4439 346.473 54.6639 348.423C54.6622 349.01 54.5072 349.586 54.2143 350.095C53.9214 350.603 53.5007 351.027 52.9939 351.323C47.3639 354.803 43.4139 359.953 39.3639 365.003C36.8831 368.081 34.2112 371 31.3639 373.743C26.3639 378.193 22.9939 378.303 17.1439 374.813C14.1439 373.023 12.0339 370.133 8.8439 368.673C6.1139 366.533 5.2039 363.053 2.9039 360.583C2.7139 359.583 2.53388 358.473 2.35388 357.413C2.58388 351.963 3.07388 346.513 3.07388 341.043C3.07388 240.783 3.07388 140.523 3.07388 40.2628C3.07388 35.4228 3.42391 30.6028 3.75391 25.8128C3.83317 23.4637 4.53872 21.1784 5.79755 19.1934C7.05638 17.2085 8.82274 15.596 10.9139 14.5228Z" fill="#9DADB5"/>
<path d="M10.9139 14.5228C4.91389 22.4728 4.91389 31.6428 4.91389 41.0728C5.03389 140.613 5.03389 240.153 4.91389 339.693C4.91389 344.693 4.3039 349.643 4.0239 354.613C3.9539 355.863 3.65391 356.913 2.34391 357.373C1.59695 355.387 1.25687 353.272 1.34391 351.153C1.34391 289.946 1.34391 228.733 1.34391 167.513C1.34391 164.513 1.1939 161.513 1.1139 158.513C1.20056 130.513 1.29055 102.496 1.38389 74.4628C1.38389 71.4628 1.22389 68.4628 1.13389 65.5328C-0.660584 51.2289 -0.323585 36.7379 2.13389 22.5328L6.48389 14.6628L8.09391 13.4828C8.45762 13.8541 8.89925 14.1401 9.38694 14.3199C9.87462 14.4998 10.3962 14.5691 10.9139 14.5228Z" fill="#D2DCE3"/>
<path d="M43.8639 39.4828L45.0939 37.7328C50.2239 31.2228 57.3039 30.8829 64.8639 30.9029C145.644 31.0829 226.427 31.1662 307.214 31.1529C308.709 31.2765 310.212 31.2598 311.704 31.1028C320.584 29.3528 326.184 33.9228 330.704 40.7328C331.154 42.6728 332.624 43.8628 334.054 44.9528C337.234 47.3728 337.474 50.5129 335.324 53.2729C332.264 57.2029 332.244 61.5328 332.244 66.0428C332.244 142.336 332.244 218.626 332.244 294.913C332.244 298.573 331.784 302.313 332.324 305.913C334.324 319.083 324.784 324.753 316.324 331.153C315.104 332.073 313.494 331.863 311.974 331.863C231.521 331.736 151.067 331.716 70.6139 331.803C67.7859 331.653 64.9519 331.653 62.1239 331.803C55.4639 332.503 50.0139 330.533 45.8739 325.183C43.8739 323.503 41.6439 321.943 42.4039 318.763C43.3339 315.823 42.4839 312.843 42.4839 309.883C42.5572 229.623 42.5572 149.366 42.4839 69.1128C42.4839 63.1128 43.0939 58.1128 48.2639 54.1628C52.3139 51.1128 54.9539 46.3928 59.7439 44.1628C101.064 43.9628 142.374 44.1128 183.744 44.0828C225.897 44.0828 268.044 44.0828 310.184 44.0828H79.6638C77.0038 44.0828 74.3438 44.1329 71.6638 44.0229C67.5238 43.1429 63.3839 42.3829 59.2339 44.0229C57.1139 44.5329 56.2339 46.5129 54.7939 47.8429C53.3539 49.1729 51.9839 50.7028 49.6839 50.3528C45.2839 48.0528 44.6939 43.7028 43.8639 39.4828Z" fill="#293F4A"/>
<path d="M46.0338 323.503C52.6238 330.433 61.1238 329.613 69.5838 329.603C149.004 329.533 228.434 329.403 307.854 329.773C318.724 329.823 323.184 322.123 329.364 316.143C330.754 314.793 329.994 312.293 329.994 310.313C329.994 227.893 329.994 145.473 329.994 63.0528C329.994 59.0528 329.544 55.2528 333.344 52.1928C335.594 50.3728 335.414 47.5328 333.084 45.1428C331.934 43.9728 329.734 43.1428 330.674 40.7328C334.114 44.6828 338.884 47.2328 341.914 51.6028C345.814 54.6028 345.494 58.9028 344.914 63.0128C344.401 66.9713 344.178 70.9618 344.244 74.9528C344.244 149.053 344.224 223.146 344.184 297.233C344.184 304.233 345.734 311.143 345.184 318.153C344.814 322.683 344.184 327.153 340.594 330.423C336.464 334.423 332.354 338.423 328.594 342.743C326.03 345.499 323.173 347.967 320.074 350.103C316.964 351.003 313.784 350.763 310.634 350.763C228.314 350.763 145.98 350.763 63.6338 350.763C60.2638 350.763 56.5338 351.763 53.7138 348.763C49.1938 345.313 45.8338 340.763 41.9738 336.673C40.9738 332.673 42.9738 329.053 43.5338 325.253C43.5606 324.964 43.65 324.684 43.7958 324.433C43.9417 324.181 44.1405 323.965 44.3784 323.799C44.6163 323.632 44.8876 323.519 45.1735 323.468C45.4594 323.417 45.753 323.429 46.0338 323.503Z" fill="#0C1B25"/>
<path d="M337.994 330.533C342.524 326.383 342.754 320.973 342.684 315.353C341.774 235.063 342.504 154.783 342.234 74.4928C342.234 66.8628 343.724 59.2028 341.934 51.6028C343.384 52.3628 344.334 51.6028 345.494 50.7528C351.065 46.825 356.29 42.4291 361.114 37.6128C362.704 38.7828 362.014 40.4028 362.054 41.7728C363.644 102.363 362.644 162.963 362.864 223.563C362.994 258.863 362.924 294.173 362.944 329.473C362.117 335.874 362.141 342.357 363.014 348.753C364.014 355.383 359.864 364.333 354.114 367.583C353.56 367.953 352.93 368.195 352.271 368.288C351.611 368.382 350.939 368.325 350.304 368.123C347.304 366.123 349.434 363.283 348.964 360.863C348.964 358.673 350.964 358.013 352.164 356.753C354.044 354.803 355.234 352.823 353.164 350.303C351.364 346.813 347.684 346.183 344.574 344.693C342.424 339.953 337.824 336.353 337.994 330.533Z" fill="#667984"/>
<path d="M349.914 367.383C355.624 365.233 358.494 360.693 360.334 355.193C362.474 348.823 361.954 342.253 362.054 335.723C362.054 333.613 361.624 331.413 362.944 329.473C363.444 336.973 362.014 344.583 364.944 351.933C366.494 355.803 367.014 360.113 371.864 361.463C368.214 372.153 357.654 378.763 343.664 379.663C333.664 380.303 323.664 380.313 313.724 380.313C221.677 380.313 129.62 380.313 37.5538 380.313C27.2638 380.313 17.6138 378.813 10.3138 370.583C9.76384 369.963 9.31383 369.273 8.80383 368.583C12.5738 368.803 14.8038 371.843 17.6138 373.673C22.1938 376.673 25.9838 375.813 29.6138 372.373C32.5638 369.523 35.3038 366.463 38.1438 363.493C43.2638 365.843 48.6638 366.233 54.2138 366.233C146.967 366.186 239.711 366.186 332.444 366.233C335.606 366.126 338.772 366.21 341.924 366.483C344.544 366.973 347.384 365.743 349.914 367.383Z" fill="#8897A9"/>
<path d="M342.094 29.4828C340.294 26.5528 339.954 23.5328 342.094 20.7528C344.034 18.2928 346.824 17.7528 349.724 18.7528C352.974 19.8428 354.224 22.3828 354.084 25.7028C352.224 32.1828 347.354 33.7228 342.094 29.4828Z" fill="#2C404A"/>
<path d="M27.2839 31.2927C22.4939 27.1327 21.6439 24.1428 24.3539 21.0328C27.6139 17.2928 32.1639 17.9528 35.7439 22.6828C35.8939 24.0028 36.0339 25.3128 36.1839 26.6228C34.2439 31.8628 31.5239 33.2427 27.2839 31.2927Z" fill="#334550"/>
<path d="M27.2839 31.2928C31.3939 31.9128 34.0439 29.7628 36.1839 26.6228C37.3339 26.4428 36.6539 24.6228 37.9839 24.6228C37.9717 26.6758 37.2579 28.6629 35.9611 30.2544C34.6642 31.8459 32.8621 32.9463 30.8539 33.3728C29.6139 33.6828 26.7839 34.8628 27.2839 31.2928Z" fill="#D3E0E8"/>
<path d="M342.094 29.4828C348.574 32.0528 350.524 31.4329 354.094 25.6729C355.804 29.9329 352.344 31.2029 349.754 32.4029C349.06 32.7177 348.31 32.8919 347.548 32.9154C346.786 32.9389 346.027 32.8112 345.315 32.5397C344.603 32.2682 343.952 31.8583 343.399 31.3336C342.846 30.8089 342.402 30.1799 342.094 29.4828Z" fill="#CFDEE5"/>
<path d="M7.97388 13.5528C9.10291 10.7905 11.2207 8.54798 13.9139 7.26282C12.5946 9.89737 10.5287 12.0851 7.97388 13.5528Z" fill="#D2DCE3"/>
<path d="M342.954 368.363C318.661 368.363 294.367 368.363 270.074 368.363L48.3939 368.463C44.1739 368.463 39.9739 368.463 38.1139 363.523C42.2239 357.443 46.8339 351.883 53.6939 348.703C55.8539 348.613 58.0139 348.443 60.1739 348.443C144.174 348.443 228.154 348.443 312.114 348.443C315.114 348.443 318.114 348.923 320.964 347.443C323.774 347.383 326.384 346.273 329.214 346.103C332.764 345.893 335.214 347.103 336.984 350.103C339.554 354.593 340.484 359.903 344.214 363.863C345.494 365.293 345.244 367.403 342.954 368.363Z" fill="#354A57"/>
<path d="M46.0339 323.503C44.2139 327.743 45.5739 332.963 41.9539 336.633C38.8039 334.383 36.5639 331.243 33.9539 328.513C31.4539 325.943 30.7139 323.003 30.7139 319.513C30.7739 253.58 30.7739 187.649 30.7139 121.723C30.7139 100.723 30.9139 79.7728 30.7639 58.7928C30.7639 54.2728 31.9539 50.7928 35.3639 47.8628C38.3639 45.2628 41.0738 42.3228 43.9138 39.5328C48.0738 41.4728 47.1039 46.6428 50.0639 49.3328C50.4539 52.6228 48.2839 54.6428 46.1539 56.4628C44.9419 57.465 43.9833 58.7389 43.3561 60.181C42.7288 61.6232 42.4505 63.1929 42.5439 64.7628C42.6039 147.429 42.6039 230.076 42.5439 312.703C42.5439 315.053 43.4439 317.303 43.0739 319.703L46.0339 323.503Z" fill="#273842"/>
<path d="M22.8339 353.633C22.8339 352.983 22.7339 352.323 22.6939 351.633C22.4239 347.003 24.8239 343.733 28.6339 343.523C32.4439 343.313 35.2139 346.143 35.7939 351.203C36.0239 354.983 33.5139 356.653 30.4539 357.283C27.2239 357.983 24.0539 357.583 22.8339 353.633Z" fill="#314249"/>
<path d="M22.8339 353.633C27.7639 358.223 32.1439 357.413 35.8339 351.243C38.1939 355.803 34.3339 357.163 31.6239 358.323C27.3839 360.113 23.8139 357.913 22.8339 353.633Z" fill="#D5E2E9"/>
<path d="M306.974 208.453C307.814 209.033 308.914 209.823 308.454 210.803C306.234 215.573 307.134 220.613 306.904 225.553C306.734 229.233 303.514 229.423 301.414 229.193C294.724 228.473 291.414 232.503 288.554 237.363C286.644 240.643 284.124 242.033 280.364 241.603C275.684 241.073 274.484 243.603 275.304 247.733C275.374 248.063 275.474 248.383 275.524 248.733C277.004 257.883 275.714 259.253 266.314 258.433C260.084 257.903 260.084 257.903 260.004 264.263C259.884 274.343 259.874 274.563 249.504 274.373C244.974 274.293 243.864 275.943 243.904 280.193C244.014 292.423 243.824 292.973 231.604 292.303C224.544 291.923 221.604 296.523 218.754 300.773C215.144 306.063 211.044 308.033 204.674 307.713C194.384 307.183 184.034 307.473 173.674 307.633C172.184 307.761 170.688 307.473 169.353 306.8C168.018 306.128 166.897 305.097 166.114 303.823C162.904 298.983 159.814 294.033 156.234 289.463C151.398 283.56 145.811 278.316 139.614 273.863C137.954 272.623 134.994 272.083 135.924 268.863C137.014 266.433 139.254 266.573 141.354 266.423C146.084 266.083 150.794 266.893 155.524 266.423C156.4 266.614 157.182 267.106 157.734 267.813C159.174 271.923 158.404 276.263 158.954 280.483C159.254 282.743 159.954 283.893 162.324 283.483C163.156 283.233 164.026 283.132 164.894 283.183C180.674 285.073 196.504 283.753 212.304 283.943C214.481 283.864 216.609 283.282 218.524 282.243C218.95 281.899 219.327 281.499 219.644 281.053C220.978 278.163 221.628 275.005 221.544 271.823C221.544 268.323 223.404 266.703 226.784 266.483C229.944 266.283 233.114 266.293 236.274 266.313C240.044 266.313 241.794 264.533 241.714 260.813C241.714 260.153 241.714 259.483 241.774 258.813C242.064 250.613 242.654 249.893 251.064 249.373C254.664 249.163 256.584 247.853 256.844 244.073C257.104 240.293 257.844 236.823 257.844 233.143C257.844 229.463 259.364 227.463 263.424 227.003C270.844 226.153 272.514 224.353 272.424 216.573C272.234 205.573 274.304 207.163 282.314 207.103C288.474 207.053 294.644 207.103 300.804 207.103C302.964 207.053 305.164 206.913 306.974 208.453Z" fill="#0F1C23"/>
<path d="M306.974 208.453C297.334 208.363 287.684 208.363 278.044 208.153C275.044 208.083 273.884 209.083 274.044 212.153C274.254 216.303 273.954 220.473 274.104 224.623C274.214 227.553 273.314 228.683 270.164 228.723C259.914 228.863 259.954 228.993 259.604 239.113C259.464 243.113 260.464 247.973 258.514 250.733C256.564 253.493 251.374 251.593 247.624 251.653C244.624 251.703 244.134 252.923 243.994 255.563C243.764 259.783 245.994 265.563 242.744 267.823C239.804 269.823 234.404 268.383 230.094 268.453C229.095 268.518 228.093 268.518 227.094 268.453C223.904 268.063 222.744 269.263 222.774 272.603C222.774 276.523 223.714 280.543 222.114 284.383C219.274 282.893 220.014 280.143 219.844 277.763C219.524 273.173 219.074 272.573 214.784 274.353C205.984 277.993 196.904 279.123 187.504 278.753C177.434 278.363 167.724 276.693 159.044 271.153C158.263 270.452 157.589 269.64 157.044 268.743L155.834 267.743C149.434 267.533 146.074 262.533 141.784 258.923C139.244 256.783 137.664 252.993 133.354 253.573C128.824 253.663 124.244 254.573 119.824 252.803C117.244 250.013 119.944 249.443 121.684 248.803C123.864 248.053 126.304 248.743 129.074 248.013C126.234 243.843 123.284 240.123 120.964 236.013C119.392 233.407 118.388 230.498 118.02 227.477C117.651 224.456 117.925 221.391 118.824 218.483C121.544 217.613 122.904 219.573 124.024 221.333C125.904 224.333 128.094 227.013 129.864 230.033C134.574 241.353 143.684 248.483 153.594 254.793C176.844 269.593 210.384 267.563 232.174 249.643C254.484 231.273 263.804 207.133 261.824 178.483C260.984 166.223 257.254 154.793 251.824 143.843C250.824 141.843 249.114 139.843 250.824 137.353C253.444 135.773 255.734 136.813 257.964 138.263C263.784 143.913 269.264 149.803 271.624 157.863C272.374 160.443 273.954 162.603 275.054 165.003C279.344 174.293 278.594 184.003 277.554 193.783C274.734 204.643 269.804 214.683 265.424 225.153C269.474 225.853 270.834 223.873 270.834 220.233C270.727 217.069 270.841 213.901 271.174 210.753C271.554 208.003 272.854 205.703 275.774 205.683C285.884 205.623 296.044 204.223 306.084 206.593L306.974 208.453Z" fill="#D37C0D"/>
<path d="M306.044 206.543C300.884 208.543 295.544 207.143 290.294 207.403C285.984 207.623 281.654 207.563 277.344 207.403C274.074 207.273 272.874 208.693 272.994 211.843C273.124 215.323 272.834 218.843 273.054 222.303C273.294 226.073 272.054 227.983 268.054 227.573C265.902 227.463 263.746 227.463 261.594 227.573C263.914 221.863 267.354 216.933 268.994 211.193C270.744 205.083 274.594 199.813 276.064 193.593C280.764 188.283 283.064 182.513 281.064 175.183C277.874 163.523 278.064 163.483 289.844 164.033C296.774 164.363 303.694 164.963 310.604 165.663C312.944 169.003 310.474 171.263 308.604 173.363C305.074 177.293 301.174 180.873 297.494 184.663C296.184 186.013 294.724 187.663 296.494 189.323C299.494 192.193 300.064 196.323 302.184 199.603L306.044 206.543Z" fill="#E38F0F"/>
<path d="M43.0338 319.603C41.0338 318.303 41.1838 316.253 41.1838 314.253C41.1838 230.586 41.1438 146.919 41.0638 63.2528C41.0638 56.1728 46.9138 53.8428 50.0138 49.2528C53.2738 47.7328 54.3738 43.6928 57.8838 42.4528C62.2743 41.7727 66.7433 41.7727 71.1338 42.4528H79.0438C80.1338 45.3728 77.9138 44.8828 76.3938 44.9628C70.9538 45.2428 65.4838 44.4728 60.0638 45.3828C55.5738 49.8428 51.1638 54.3828 46.5538 58.7228C43.9938 61.1328 44.2538 64.0928 44.2538 67.0628C44.2538 116.189 44.2372 165.326 44.2038 214.473C44.2038 244.473 44.2038 274.453 44.2038 304.413C44.2038 308.243 44.4138 312.063 44.6638 315.883C44.7538 317.563 44.9738 319.013 43.0338 319.603Z" fill="#70838D"/>
<path d="M61.8838 163.713C62.7538 160.923 65.1738 161.893 66.9538 161.853C76.7738 161.613 86.6039 161.413 96.4339 161.483C99.9639 161.483 101.034 160.253 100.914 156.843C100.704 151.353 101.064 145.843 100.914 140.353C100.824 137.483 101.804 136.353 104.614 136.703C105.11 136.743 105.608 136.743 106.104 136.703C116.974 136.533 116.974 136.533 117.054 125.423C117.134 124.424 117.134 123.421 117.054 122.423C116.484 118.633 117.704 117.113 121.844 117.353C125.984 117.593 131.074 118.883 133.954 116.353C136.834 113.823 134.894 108.813 134.854 104.903C134.854 101.903 135.984 101.283 138.644 101.353C143.644 101.503 148.644 101.153 153.644 101.453C156.874 101.643 157.704 100.453 157.544 97.4528C157.364 93.9728 157.694 90.4529 157.544 86.9629C157.434 84.4529 158.104 83.4629 160.844 83.4629C179.504 83.4629 198.154 83.3228 216.844 83.2628C218.324 83.2628 220.544 82.5629 220.014 85.5229C219.003 87.0766 217.616 88.3496 215.981 89.2238C214.346 90.0979 212.517 90.5448 210.664 90.5229C201.204 89.8329 191.764 91.2528 182.294 90.8228C177.294 90.6028 172.294 90.7528 167.294 90.8228C164.374 90.8228 162.764 92.0228 162.294 95.1328C160.864 104.433 160.124 105.063 150.904 106.483C149.908 106.607 148.907 106.68 147.904 106.703C139.994 107.053 139.904 107.053 139.174 114.943C138.774 119.053 136.664 121.013 132.594 121.733C120.034 123.983 122.474 120.913 120.244 134.073C119.764 136.873 118.934 139.493 116.354 140.653C108.804 144.043 107.064 151.043 105.284 157.973C104.384 161.433 103.424 164.673 100.214 166.723C92.7839 169.223 85.2139 169.163 77.5339 168.153C73.4639 168.423 69.2138 166.273 65.2938 168.993C63.2638 167.793 61.8738 166.203 61.8838 163.713Z" fill="#F4E384"/>
<path d="M60.0638 45.4827C64.6238 43.5627 69.4038 44.9627 74.0638 44.5427C75.9138 44.3627 78.1338 45.1227 79.0638 42.5427L219.524 42.4327C248.857 42.4327 278.19 42.4327 307.524 42.4327C310.974 42.4327 314.994 40.6427 317.134 45.2627C317.514 46.0827 318.844 46.7128 317.764 47.7528C317.024 48.4628 316.164 47.9227 315.574 47.3227C313.424 45.1727 310.694 45.4627 308.044 45.4627L60.0638 45.4827Z" fill="#617780"/>
<path d="M257.034 139.493L251.034 137.623C249.134 138.413 248.574 136.623 247.514 135.793C242.864 130.493 238.734 124.663 232.654 120.793C226.304 115.693 219.094 112.213 211.574 109.233C209.424 108.383 206.574 107.843 206.734 104.493C208.504 101.813 211.254 104.043 213.374 103.143C215.434 102.763 216.924 100.333 219.374 101.443L220.504 101.663C223.414 103.433 226.584 102.423 229.644 102.423C230.764 102.423 231.914 102.113 233.074 102.083C240.944 101.863 240.944 101.853 241.994 108.923C243.134 111.753 240.644 115.133 243.354 117.723C246.554 119.473 250.004 118.353 253.354 118.533C255.414 118.643 257.244 118.693 257.894 121.093C257.894 124.573 258.234 128.093 257.804 131.523C257.244 136.053 258.924 137.593 263.264 136.953C264.598 136.871 265.937 136.911 267.264 137.073C266.714 140.073 264.314 139.453 262.314 139.693C260.534 139.863 258.814 138.503 257.034 139.493Z" fill="#EDA723"/>
<path d="M119.344 251.333L134.784 251.803C138.304 256.193 138.254 263.803 134.684 267.593C134.373 267.874 133.964 268.02 133.546 267.999C133.128 267.979 132.735 267.793 132.454 267.483C126.274 261.27 120.111 255.05 113.964 248.823C113.488 248.152 113.123 247.409 112.884 246.623C111.634 240.333 107.364 236.533 102.104 233.543L98.9839 229.683C98.1793 229.242 97.5276 228.567 97.1151 227.747C96.7026 226.927 96.5488 226.002 96.6739 225.093C96.7523 224.269 96.7857 223.441 96.7739 222.613C96.9239 213.033 96.6939 212.963 87.2839 212.713C81.4239 212.553 75.2839 214.163 69.8239 210.653C66.3339 209.423 66.3339 209.423 66.8739 207.983C67.079 207.378 67.4988 206.869 68.0539 206.553C77.8739 204.133 87.8339 205.553 97.7339 205.553C99.3039 205.553 100.484 206.553 101.644 207.553C103.944 210.413 102.944 213.833 103.254 217.033C103.544 220.033 102.424 223.303 104.494 226.093C106.914 227.793 109.644 226.953 112.224 226.933C117.344 226.933 118.584 227.933 119.054 233.053C119.614 239.153 118.904 245.253 119.344 251.333Z" fill="#1B1A17"/>
<path d="M257.034 139.493C259.664 135.423 264.034 138.563 267.264 137.043C269.484 137.043 271.854 135.913 273.834 137.863C274.194 145.083 274.334 152.323 276.514 159.303C277.126 160.075 277.89 160.714 278.758 161.18C279.627 161.646 280.582 161.93 281.564 162.013C290.084 162.453 298.564 164.013 307.104 163.573C309.104 163.473 311.104 163.413 312.254 165.573C312.194 165.853 312.154 166.137 312.134 166.423C312.013 166.601 311.829 166.727 311.619 166.773C311.408 166.82 311.188 166.784 311.004 166.673C301.861 166.665 292.728 166.061 283.664 164.863C280.664 164.433 280.064 165.723 281.114 168.293C281.734 169.833 282.244 171.423 282.914 172.943C287.154 182.583 281.254 189.803 277.184 197.783C275.524 196.513 276.414 194.873 276.034 193.593C276.974 181.313 275.594 169.433 270.164 158.193C266.804 151.193 261.704 145.503 257.034 139.493Z" fill="#F7C643"/>
<path d="M69.8239 210.653C77.8239 210.653 85.8239 210.653 93.8239 210.513C97.6939 210.423 99.2639 211.983 99.1139 215.833C98.9339 220.443 99.0439 225.063 99.0339 229.683C88.7839 230.773 81.1739 226.853 75.8139 218.003C74.1639 215.353 71.3439 213.493 69.8239 210.653Z" fill="#121A1F"/>
<path d="M311.004 166.703L312.134 166.453C313.234 167.623 311.714 169.283 312.604 170.233C318.054 176.033 313.954 180.073 310.194 184.233C308.652 186.185 306.982 188.033 305.194 189.763C302.004 192.473 300.274 195.403 302.194 199.573C299.544 196.413 297.004 193.163 294.194 190.133C292.144 187.893 292.514 186.373 294.624 184.373C299.284 179.943 303.734 175.273 308.204 170.633C309.344 169.473 310.934 168.603 311.004 166.703Z" fill="#121C26"/>
<path d="M134.684 267.593C134.684 262.333 134.717 257.069 134.784 251.803C137.914 251.153 139.454 253.593 141.224 255.323C145.794 259.793 150.334 264.273 155.804 267.673L135.924 268.863L134.684 267.593Z" fill="#E5941B"/>
<path d="M219.424 101.413C217.354 102.073 217.534 106.573 213.944 104.613C208.024 102.723 205.944 97.0627 202.674 92.7227C201.234 90.8227 202.394 89.0427 205.254 89.0227C207.174 89.0227 209.184 89.6027 211.044 88.5627L219.934 85.5627C220.209 90.851 220.039 96.1531 219.424 101.413Z" fill="#E58C0E"/>
<path d="M273.304 161.343C272.67 153.519 272.848 145.65 273.834 137.863C274.834 137.543 275.064 138.283 274.974 138.913C274.104 145.343 277.364 150.343 280.394 155.543C281.233 157.172 282.535 158.515 284.137 159.405C285.739 160.295 287.568 160.691 289.394 160.543C295.864 160.453 302.334 160.543 308.804 160.543C310.584 160.543 312.524 160.103 313.804 161.883C310.324 164.883 306.144 163.513 302.324 163.433C293.234 163.243 284.144 162.723 275.074 162.043C274.747 162.051 274.422 161.994 274.118 161.873C273.813 161.753 273.537 161.573 273.304 161.343Z" fill="#2D2D22"/>
<path d="M273.304 161.343L313.814 161.903C313.894 163.393 313.814 164.803 312.254 165.603C301.144 166.223 290.254 163.893 279.184 163.393C277.154 163.293 274.834 163.243 273.304 161.343Z" fill="#EFDB77"/>
<path d="M61.8838 163.713L65.3238 168.473C67.1177 168.867 68.76 169.769 70.0538 171.073C74.7138 176.373 80.5538 180.753 83.0538 187.723C80.4338 191.813 77.8938 195.993 72.8338 197.543C71.8338 194.303 74.9438 193.393 76.4538 191.783C78.7538 189.323 79.4538 187.443 76.8738 184.673C72.5738 180.113 68.4438 175.373 64.5438 170.463C63.0938 168.613 60.2338 166.953 61.8838 163.713Z" fill="#392C11"/>
<path d="M242.044 108.863C241.444 104.073 238.484 103.153 234.164 103.553C230.201 103.793 226.227 103.793 222.264 103.553C221.264 103.553 219.044 104.063 220.554 101.613C226.194 101.313 231.844 101.183 237.464 100.613C241.704 100.213 243.934 101.093 242.384 105.883C242.172 106.862 242.058 107.861 242.044 108.863Z" fill="#E3CD7D"/>
<path d="M72.8538 197.543L82.0538 187.723C85.4838 188.233 84.2538 190.723 83.3638 192.033C79.0538 198.293 74.5438 204.433 67.1638 207.523C67.0885 207.689 66.991 207.843 66.8738 207.983C64.6838 207.523 65.3538 206.473 66.3138 205.343L72.8538 197.543Z" fill="#E7D475"/>
<path d="M102.104 233.543C109.694 234.403 114.894 240.703 112.884 246.623L102.104 233.543Z" fill="#121A1F"/>
<path d="M257.924 121.063C254.224 118.493 250.014 120.343 246.124 119.633C245.124 119.453 242.334 121.013 243.404 117.693C247.164 117.573 250.954 117.693 254.674 117.253C258.084 116.863 258.714 118.193 257.924 121.063Z" fill="#EED988"/>
<path d="M71.1339 42.5128H57.8839C62.2224 41.3377 66.7954 41.3377 71.1339 42.5128Z" fill="#617780"/>
<path d="M342.954 368.363C343.574 367.293 344.044 366.063 342.954 365.173C338.524 361.483 338.234 355.523 335.124 351.063C333.594 348.863 332.484 347.783 329.644 348.243C326.804 348.703 323.694 349.243 320.944 347.493C326.944 342.173 331.564 335.493 337.944 330.493C340.714 334.663 344.764 338.133 345.094 343.633C345.934 347.213 342.024 349.733 342.934 353.333C342.044 356.823 343.934 358.493 346.934 359.163C348.054 359.403 349.164 359.413 349.874 360.463C351.814 362.763 350.354 365.053 349.874 367.343C347.754 368.863 345.344 368.533 342.954 368.363Z" fill="#4D636E"/>
<path d="M340.994 353.493C340.184 349.293 342.104 346.243 345.144 343.673C349.774 343.343 352.924 345.503 354.954 349.533C355.594 354.223 353.184 357.873 348.764 358.903C345.254 359.713 342.534 357.863 340.994 353.493Z" fill="#1A2F38"/>
<path d="M340.994 353.493C343.094 356.493 345.994 358.043 349.504 357.023C353.014 356.003 354.734 353.193 354.954 349.533C356.814 352.333 356.774 354.013 354.324 356.783C352.962 358.13 351.502 359.374 349.954 360.503C344.614 362.003 340.614 358.863 340.994 353.493Z" fill="#C3D5DD"/>
<path d="M158.974 269.623C168.974 273.723 179.204 276.553 190.234 276.623C200.284 276.733 209.544 274.183 218.544 270.313C221.354 269.103 222.044 269.493 222.004 272.383C222.004 276.383 222.074 280.383 222.124 284.313C222.123 284.361 222.111 284.408 222.087 284.45C222.063 284.492 222.03 284.528 221.989 284.554C221.948 284.58 221.902 284.595 221.854 284.598C221.806 284.601 221.758 284.593 221.714 284.573C215.454 285.513 209.144 284.823 202.864 284.963C189.934 285.253 176.994 284.543 164.074 285.333L161.934 285.263C159.234 283.803 158.934 281.323 158.934 278.593C158.914 275.633 157.614 272.623 158.974 269.623Z" fill="#E59613"/>
<path d="M158.974 269.623C159.954 274.856 160.954 280.083 161.974 285.303C158.244 286.303 156.564 285.173 156.914 281.003C157.264 276.833 157.034 272.813 157.054 268.713L158.974 269.623Z" fill="#EDBA49"/>
<path d="M164.074 285.373C165.151 284.989 166.268 284.73 167.404 284.603C185.511 284.603 203.617 284.603 221.724 284.603C219.194 285.773 216.484 285.313 213.874 285.323C197.274 285.403 180.674 285.373 164.074 285.373Z" fill="#D37C0D"/>
<path d="M127.944 230.603L119.004 218.383C114.004 215.933 113.584 210.893 112.174 206.383C110.554 201.573 109.814 196.543 108.364 191.683C107.624 189.203 107.424 186.493 108.954 184.073C110.314 182.523 111.814 183.073 112.794 184.273C116.574 188.693 121.854 189.273 127.044 190.163C128.874 190.753 130.874 190.893 132.464 192.163C134.824 196.163 136.104 200.653 138.144 204.823C141.204 211.093 144.074 217.313 149.144 222.413C153.464 226.743 153.144 229.163 149.444 234.103C145.804 236.943 142.044 239.553 137.224 239.923C132.614 238.323 131.184 233.573 127.944 230.603Z" fill="#6E7F87"/>
<path d="M127.944 230.603L136.994 238.673C139.794 239.393 141.934 241.033 144.134 242.913C155.914 253.033 169.214 259.583 185.134 259.373C191.594 259.283 197.984 259.373 204.434 257.933C221.634 254.043 234.314 243.933 244.204 229.933C258.694 209.423 260.754 186.773 255.204 162.933C254.114 158.273 252.084 153.863 251.924 148.933C251.854 146.433 249.924 144.433 248.324 142.523C247.164 139.733 245.454 136.933 248.324 134.153L251.054 137.603C256.604 150.423 261.914 163.243 263.544 177.383C267.914 215.333 245.244 252.383 210.544 263.453C195.804 268.066 179.961 267.738 165.425 262.52C150.888 257.301 138.454 247.477 130.014 234.543C129.257 233.266 128.566 231.951 127.944 230.603Z" fill="#1A191A"/>
<path d="M113.844 206.773L119.004 218.383C119.514 221.323 121.234 223.843 119.854 227.383C119.134 229.233 121.324 232.483 122.754 234.953C125.754 240.223 130.134 244.563 133.544 250.013C128.484 251.503 123.724 249.553 119.334 251.323C116.424 251.633 117.244 249.383 117.204 247.983C117.054 242.543 116.954 237.103 117.024 231.673C117.024 229.113 116.134 228.213 113.564 228.293C109.784 228.433 105.994 228.213 102.204 228.153C101.564 225.343 103.204 223.913 105.554 223.713C109.954 223.353 109.404 221.373 107.654 218.643C103.984 212.913 102.874 206.053 99.5939 200.133C99.0454 198.914 98.838 197.57 98.9939 196.243C99.0992 195.251 99.2798 194.268 99.5339 193.303C99.9239 190.763 101.084 188.843 103.844 188.573C106.604 188.303 107.364 190.363 108.484 192.313C111.074 196.863 111.184 202.283 113.844 206.773Z" fill="#F3AB26"/>
<path d="M113.844 206.773C112.867 206.035 112.07 205.084 111.516 203.993C110.961 202.901 110.663 201.697 110.644 200.473C110.304 196.363 106.294 194.533 105.414 190.713C104.994 188.873 102.944 190.203 101.974 191.353C100.704 192.873 101.124 194.783 100.974 196.553C98.2839 196.633 97.6839 194.463 97.2239 192.633C95.3539 185.361 95.2033 177.753 96.7839 170.413C97.2439 168.263 98.5939 166.943 99.9339 165.483C103.174 160.483 103.224 154.483 105.464 149.123C107.364 144.563 109.844 140.913 114.564 139.263C117.244 138.323 117.894 136.483 118.104 133.933C119.154 120.823 119.194 120.743 132.474 119.683C135.644 119.423 136.774 118.183 136.934 115.083C137.434 105.003 137.524 105.013 147.594 104.503C148.254 104.503 148.924 104.433 149.594 104.353C159.274 103.133 159.394 103.133 159.864 93.3527C160.044 89.6827 161.564 88.4627 165.104 88.4927C180.404 88.6027 195.704 88.5527 211.014 88.5627C209.104 90.9027 204.454 87.7827 204.014 91.2227C203.794 93.0227 207.134 95.1727 208.724 97.2827C210.524 99.6627 212.174 102.163 213.884 104.613C211.534 106.313 209.214 103.933 206.884 104.563C205.284 106.703 203.124 106.193 200.964 105.873C191.952 104.375 182.766 104.24 173.714 105.473C166.494 106.563 160.014 109.563 153.874 113.183C136.274 123.523 123.534 138.123 116.104 157.263C113.474 164.023 112.914 171.123 112.104 178.203C111.894 180.203 112.104 182.253 110.284 183.653C109.264 191.703 112.334 199.113 113.844 206.773Z" fill="#F6B734"/>
<path d="M67.1638 207.523C71.8305 202.33 76.4972 197.136 81.1638 191.943C82.2438 190.733 83.7638 189.543 82.0438 187.723C76.4772 181.303 70.9005 174.886 65.3138 168.473C65.8438 165.193 67.5538 164.033 70.8038 165.223C72.4838 165.833 74.2638 166.143 75.9938 166.583C82.9238 169.093 85.8638 175.183 88.5938 181.193C91.8176 188.641 95.8198 195.727 100.534 202.333C101.984 204.333 103.784 206.463 100.874 208.753C96.8738 207.053 92.6938 208.113 88.6038 207.933C81.4738 207.633 74.3138 207.643 67.1638 207.523Z" fill="#F2B126"/>
<path d="M100.884 208.753C101.132 207.867 101.145 206.932 100.923 206.04C100.7 205.147 100.249 204.328 99.6138 203.663C92.5338 196.953 89.3938 187.883 85.3638 179.413C83.0138 174.473 79.0238 170.943 76.0538 166.583C84.0685 166.688 92.0824 166.32 100.054 165.483C98.0538 174.933 96.9038 184.383 99.9738 193.843C100.274 194.773 100.714 195.653 101.094 196.553C102.724 204.823 106.774 212.113 110.674 219.413C113.754 225.193 113.914 225.303 107.574 225.413C105.314 225.473 103.204 225.553 102.284 228.123C100.054 227.983 100.854 226.203 100.844 225.123C100.724 219.693 100.824 214.223 100.884 208.753Z" fill="#FACD52"/>
<path d="M110.374 183.653C109.004 167.393 113.744 152.733 122.774 139.493C135.264 121.193 151.634 107.883 173.774 103.253C183.254 101.253 192.954 102.173 202.494 103.983C203.954 104.253 205.494 104.373 206.924 104.563C213.114 108.063 220.134 109.763 226.224 113.563C229.074 115.333 231.854 117.043 233.934 119.713C232.364 125.183 228.324 127.363 221.114 126.633C210.044 119.633 198.114 115.633 184.864 115.743C156.514 116.003 130.594 140.063 127.994 168.303C127.374 173.403 127.354 178.558 127.934 183.663C128.304 186.243 129.314 189.333 126.694 191.663C119.894 191.763 113.614 190.763 110.374 183.653Z" fill="#829095"/>
<path d="M222.004 125.563C227.114 125.903 230.114 121.933 233.944 119.683C240.414 122.853 244.334 128.553 248.324 134.173C247.924 136.863 249.324 139.173 249.984 141.613C250.244 144.023 253.624 146.613 250.804 148.673C247.984 150.733 246.134 147.173 244.124 145.773C240.424 143.203 237.834 138.973 232.824 138.393C228.249 135.342 224.528 131.173 222.014 126.283C222.004 126.043 222.004 125.803 222.004 125.563Z" fill="#667981"/>
<path d="M148.074 232.613C152.544 229.613 150.504 226.413 147.844 224.103C140.324 217.583 137.844 208.203 133.424 199.913C132.224 197.643 131.204 195.033 131.844 192.233C131.758 191.593 131.848 190.941 132.105 190.349C132.363 189.757 132.777 189.246 133.304 188.873C136.054 186.663 139.304 187.343 142.424 187.333C170.684 187.253 198.937 187.253 227.184 187.333C231.498 187.509 235.815 187.048 239.994 185.963C242.994 186.733 243.224 189.243 242.894 191.523C239.894 212.523 230.604 229.333 209.774 236.893C194.394 242.473 178.544 242.723 163.024 236.253C159.124 234.623 155.324 232.123 150.674 233.773C150.174 233.876 149.654 233.819 149.187 233.611C148.721 233.403 148.331 233.054 148.074 232.613Z" fill="#556871"/>
<path d="M148.074 232.613C154.584 228.753 160.074 232.613 165.774 234.913C184.144 242.103 212.434 239.403 227.314 222.603C236.314 212.403 240.314 200.033 240.964 186.523C238.904 185.003 239.104 182.933 239.334 180.713C240.757 168.014 238.682 155.168 233.334 143.563C232.334 141.563 231.644 139.563 233.104 137.563C233.754 135.413 234.834 136.363 236.104 137.023C241.444 139.783 245.254 144.533 250.314 148.113C251.374 145.683 249.314 143.713 250.004 141.643C255.094 148.433 255.824 156.793 257.774 164.573C262.774 184.623 261.414 204.633 251.504 222.763C239.024 245.603 220.364 260.303 192.904 261.763C176.764 262.603 162.274 258.763 148.904 249.973C144.418 246.806 140.402 243.022 136.974 238.733C140.95 237.239 144.688 235.177 148.074 232.613Z" fill="#2A3E4B"/>
<path d="M133.044 190.553L131.844 192.233C129.994 193.123 128.054 194.723 126.704 191.583C123.704 174.133 125.284 157.463 134.864 142.063C139.139 135.096 144.8 129.081 151.495 124.391C158.19 119.702 165.777 116.437 173.786 114.8C181.794 113.163 190.054 113.189 198.052 114.875C206.051 116.561 213.618 119.872 220.284 124.603C220.839 124.966 221.413 125.3 222.004 125.603C221.004 129.273 218.324 128.263 216.124 127.483C208.574 124.823 200.944 122.793 192.874 122.373C177.494 121.573 163.524 125.263 151.874 135.543C137.214 148.443 132.154 164.983 134.874 184.063C135.143 186.383 134.485 188.715 133.044 190.553Z" fill="#F4F8F7"/>
<path d="M133.044 190.553C132.154 181.963 130.854 173.383 132.544 164.753C138.014 136.753 163.004 117.973 191.804 119.953C200.514 120.543 208.954 122.033 216.974 125.573C218.574 126.283 220.294 127.413 221.974 125.573C226.974 128.353 229.714 133.243 233.114 137.523C241.434 152.933 243.404 169.373 240.984 186.523C238.984 189.773 235.674 189.413 232.524 189.423C201.624 189.423 170.724 189.443 139.824 189.483C137.504 189.483 135.114 189.093 133.044 190.553Z" fill="#8798A3"/>
</svg>
